<?xml version="1.0" encoding="utf-8" standalone="no"?>
<!DOCTYPE svg PUBLIC "-//W3C//DTD SVG 1.1//EN"
  "http://www.w3.org/Graphics/SVG/1.1/DTD/svg11.dtd">
<svg xmlns:xlink="http://www.w3.org/1999/xlink" width="510.23622pt" height="283.464567pt" viewBox="0 0 510.23622 283.464567" xmlns="http://www.w3.org/2000/svg" version="1.1">
 <metadata>
  <rdf:RDF xmlns:dc="http://purl.org/dc/elements/1.1/" xmlns:cc="http://creativecommons.org/ns#" xmlns:rdf="http://www.w3.org/1999/02/22-rdf-syntax-ns#">
   <cc:Work>
    <dc:type rdf:resource="http://purl.org/dc/dcmitype/StillImage"/>
    <dc:date>2024-12-08T16:41:57.543180</dc:date>
    <dc:format>image/svg+xml</dc:format>
    <dc:creator>
     <cc:Agent>
      <dc:title>Matplotlib v3.9.2, https://matplotlib.org/</dc:title>
     </cc:Agent>
    </dc:creator>
   </cc:Work>
  </rdf:RDF>
 </metadata>
 <defs>
  <style type="text/css">*{stroke-linejoin: round; stroke-linecap: butt}</style>
 </defs>
 <g id="figure_1">
  <g id="patch_1">
   <path d="M 0 283.464567 
L 510.23622 283.464567 
L 510.23622 0 
L 0 0 
z
" style="fill: #ffffff"/>
  </g>
  <g id="axes_1">
   <g id="patch_2">
    <path d="M 50.77524 216.715636 
L 500.675355 216.715636 
L 500.675355 66.748931 
L 50.77524 66.748931 
z
" style="fill: #ffffff"/>
   </g>
   <g id="matplotlib.axis_1">
    <g id="xtick_1">
     <g id="line2d_1">
      <defs>
       <path id="m995484ed7b" d="M 0 0 
L 0 10 
" style="stroke: #000000; stroke-width: 1.7"/>
      </defs>
      <g>
       <use xlink:href="#m995484ed7b" x="105.641108" y="216.715636" style="stroke: #000000; stroke-width: 1.7"/>
      </g>
     </g>
     <g id="text_1">
      <text style="font: 15px 'Times New Roman'; text-anchor: middle" x="105.641108" y="241.131261" transform="rotate(-0 105.641108 241.131261)">2.0</text>
     </g>
    </g>
    <g id="xtick_2">
     <g id="line2d_2">
      <g>
       <use xlink:href="#m995484ed7b" x="193.426496" y="216.715636" style="stroke: #000000; stroke-width: 1.7"/>
      </g>
     </g>
     <g id="text_2">
      <text style="font: 15px 'Times New Roman'; text-anchor: middle" x="193.426496" y="241.131261" transform="rotate(-0 193.426496 241.131261)">4.0</text>
     </g>
    </g>
    <g id="xtick_3">
     <g id="line2d_3">
      <g>
       <use xlink:href="#m995484ed7b" x="281.211884" y="216.715636" style="stroke: #000000; stroke-width: 1.7"/>
      </g>
     </g>
     <g id="text_3">
      <text style="font: 15px 'Times New Roman'; text-anchor: middle" x="281.211884" y="241.131261" transform="rotate(-0 281.211884 241.131261)">6.0</text>
     </g>
    </g>
    <g id="xtick_4">
     <g id="line2d_4">
      <g>
       <use xlink:href="#m995484ed7b" x="368.997273" y="216.715636" style="stroke: #000000; stroke-width: 1.7"/>
      </g>
     </g>
     <g id="text_4">
      <text style="font: 15px 'Times New Roman'; text-anchor: middle" x="368.997273" y="241.131261" transform="rotate(-0 368.997273 241.131261)">8.0</text>
     </g>
    </g>
    <g id="xtick_5">
     <g id="line2d_5">
      <g>
       <use xlink:href="#m995484ed7b" x="456.782661" y="216.715636" style="stroke: #000000; stroke-width: 1.7"/>
      </g>
     </g>
     <g id="text_5">
      <text style="font: 15px 'Times New Roman'; text-anchor: middle" x="456.782661" y="241.131261" transform="rotate(-0 456.782661 241.131261)">10.0</text>
     </g>
    </g>
    <g id="xtick_6">
     <g id="line2d_6">
      <defs>
       <path id="m8a9c163e97" d="M 0 0 
L 0 5 
" style="stroke: #000000; stroke-width: 0.75"/>
      </defs>
      <g>
       <use xlink:href="#m8a9c163e97" x="61.748414" y="216.715636" style="stroke: #000000; stroke-width: 0.75"/>
      </g>
     </g>
    </g>
    <g id="xtick_7">
     <g id="line2d_7">
      <g>
       <use xlink:href="#m8a9c163e97" x="83.694761" y="216.715636" style="stroke: #000000; stroke-width: 0.75"/>
      </g>
     </g>
    </g>
    <g id="xtick_8">
     <g id="line2d_8">
      <g>
       <use xlink:href="#m8a9c163e97" x="127.587455" y="216.715636" style="stroke: #000000; stroke-width: 0.75"/>
      </g>
     </g>
    </g>
    <g id="xtick_9">
     <g id="line2d_9">
      <g>
       <use xlink:href="#m8a9c163e97" x="149.533802" y="216.715636" style="stroke: #000000; stroke-width: 0.75"/>
      </g>
     </g>
    </g>
    <g id="xtick_10">
     <g id="line2d_10">
      <g>
       <use xlink:href="#m8a9c163e97" x="171.480149" y="216.715636" style="stroke: #000000; stroke-width: 0.75"/>
      </g>
     </g>
    </g>
    <g id="xtick_11">
     <g id="line2d_11">
      <g>
       <use xlink:href="#m8a9c163e97" x="215.372843" y="216.715636" style="stroke: #000000; stroke-width: 0.75"/>
      </g>
     </g>
    </g>
    <g id="xtick_12">
     <g id="line2d_12">
      <g>
       <use xlink:href="#m8a9c163e97" x="237.31919" y="216.715636" style="stroke: #000000; stroke-width: 0.75"/>
      </g>
     </g>
    </g>
    <g id="xtick_13">
     <g id="line2d_13">
      <g>
       <use xlink:href="#m8a9c163e97" x="259.265537" y="216.715636" style="stroke: #000000; stroke-width: 0.75"/>
      </g>
     </g>
    </g>
    <g id="xtick_14">
     <g id="line2d_14">
      <g>
       <use xlink:href="#m8a9c163e97" x="303.158231" y="216.715636" style="stroke: #000000; stroke-width: 0.75"/>
      </g>
     </g>
    </g>
    <g id="xtick_15">
     <g id="line2d_15">
      <g>
       <use xlink:href="#m8a9c163e97" x="325.104579" y="216.715636" style="stroke: #000000; stroke-width: 0.75"/>
      </g>
     </g>
    </g>
    <g id="xtick_16">
     <g id="line2d_16">
      <g>
       <use xlink:href="#m8a9c163e97" x="347.050926" y="216.715636" style="stroke: #000000; stroke-width: 0.75"/>
      </g>
     </g>
    </g>
    <g id="xtick_17">
     <g id="line2d_17">
      <g>
       <use xlink:href="#m8a9c163e97" x="390.94362" y="216.715636" style="stroke: #000000; stroke-width: 0.75"/>
      </g>
     </g>
    </g>
    <g id="xtick_18">
     <g id="line2d_18">
      <g>
       <use xlink:href="#m8a9c163e97" x="412.889967" y="216.715636" style="stroke: #000000; stroke-width: 0.75"/>
      </g>
     </g>
    </g>
    <g id="xtick_19">
     <g id="line2d_19">
      <g>
       <use xlink:href="#m8a9c163e97" x="434.836314" y="216.715636" style="stroke: #000000; stroke-width: 0.75"/>
      </g>
     </g>
    </g>
    <g id="xtick_20">
     <g id="line2d_20">
      <g>
       <use xlink:href="#m8a9c163e97" x="478.729008" y="216.715636" style="stroke: #000000; stroke-width: 0.75"/>
      </g>
     </g>
    </g>
    <g id="xtick_21">
     <g id="line2d_21">
      <g>
       <use xlink:href="#m8a9c163e97" x="500.675355" y="216.715636" style="stroke: #000000; stroke-width: 0.75"/>
      </g>
     </g>
    </g>
   </g>
   <g id="matplotlib.axis_2">
    <g id="ytick_1">
     <g id="line2d_22">
      <defs>
       <path id="m2d69067764" d="M 0 0 
L -10 0 
" style="stroke: #000000; stroke-width: 1.7"/>
      </defs>
      <g>
       <use xlink:href="#m2d69067764" x="50.77524" y="200.929667" style="stroke: #000000; stroke-width: 1.7"/>
      </g>
     </g>
     <g id="text_6">
      <text style="font: 15px 'Times New Roman'; text-anchor: end" x="36.77524" y="206.13748" transform="rotate(-0 36.77524 206.13748)">0</text>
     </g>
    </g>
    <g id="ytick_2">
     <g id="line2d_23">
      <g>
       <use xlink:href="#m2d69067764" x="50.77524" y="161.464745" style="stroke: #000000; stroke-width: 1.7"/>
      </g>
     </g>
     <g id="text_7">
      <text style="font: 15px 'Times New Roman'; text-anchor: end" x="36.77524" y="166.672557" transform="rotate(-0 36.77524 166.672557)">1000</text>
     </g>
    </g>
    <g id="ytick_3">
     <g id="line2d_24">
      <g>
       <use xlink:href="#m2d69067764" x="50.77524" y="121.999822" style="stroke: #000000; stroke-width: 1.7"/>
      </g>
     </g>
     <g id="text_8">
      <text style="font: 15px 'Times New Roman'; text-anchor: end" x="36.77524" y="127.207635" transform="rotate(-0 36.77524 127.207635)">2000</text>
     </g>
    </g>
    <g id="ytick_4">
     <g id="line2d_25">
      <g>
       <use xlink:href="#m2d69067764" x="50.77524" y="82.5349" style="stroke: #000000; stroke-width: 1.7"/>
      </g>
     </g>
     <g id="text_9">
      <text style="font: 15px 'Times New Roman'; text-anchor: end" x="36.77524" y="87.742712" transform="rotate(-0 36.77524 87.742712)">3000</text>
     </g>
    </g>
    <g id="ytick_5">
     <g id="line2d_26">
      <defs>
       <path id="m5f8f7433c5" d="M 0 0 
L -5 0 
" style="stroke: #000000; stroke-width: 0.75"/>
      </defs>
      <g>
       <use xlink:href="#m5f8f7433c5" x="50.77524" y="216.715636" style="stroke: #000000; stroke-width: 0.75"/>
      </g>
     </g>
    </g>
    <g id="ytick_6">
     <g id="line2d_27">
      <g>
       <use xlink:href="#m5f8f7433c5" x="50.77524" y="208.822652" style="stroke: #000000; stroke-width: 0.75"/>
      </g>
     </g>
    </g>
    <g id="ytick_7">
     <g id="line2d_28">
      <g>
       <use xlink:href="#m5f8f7433c5" x="50.77524" y="193.036683" style="stroke: #000000; stroke-width: 0.75"/>
      </g>
     </g>
    </g>
    <g id="ytick_8">
     <g id="line2d_29">
      <g>
       <use xlink:href="#m5f8f7433c5" x="50.77524" y="185.143698" style="stroke: #000000; stroke-width: 0.75"/>
      </g>
     </g>
    </g>
    <g id="ytick_9">
     <g id="line2d_30">
      <g>
       <use xlink:href="#m5f8f7433c5" x="50.77524" y="177.250714" style="stroke: #000000; stroke-width: 0.75"/>
      </g>
     </g>
    </g>
    <g id="ytick_10">
     <g id="line2d_31">
      <g>
       <use xlink:href="#m5f8f7433c5" x="50.77524" y="169.357729" style="stroke: #000000; stroke-width: 0.75"/>
      </g>
     </g>
    </g>
    <g id="ytick_11">
     <g id="line2d_32">
      <g>
       <use xlink:href="#m5f8f7433c5" x="50.77524" y="153.57176" style="stroke: #000000; stroke-width: 0.75"/>
      </g>
     </g>
    </g>
    <g id="ytick_12">
     <g id="line2d_33">
      <g>
       <use xlink:href="#m5f8f7433c5" x="50.77524" y="145.678776" style="stroke: #000000; stroke-width: 0.75"/>
      </g>
     </g>
    </g>
    <g id="ytick_13">
     <g id="line2d_34">
      <g>
       <use xlink:href="#m5f8f7433c5" x="50.77524" y="137.785791" style="stroke: #000000; stroke-width: 0.75"/>
      </g>
     </g>
    </g>
    <g id="ytick_14">
     <g id="line2d_35">
      <g>
       <use xlink:href="#m5f8f7433c5" x="50.77524" y="129.892807" style="stroke: #000000; stroke-width: 0.75"/>
      </g>
     </g>
    </g>
    <g id="ytick_15">
     <g id="line2d_36">
      <g>
       <use xlink:href="#m5f8f7433c5" x="50.77524" y="114.106838" style="stroke: #000000; stroke-width: 0.75"/>
      </g>
     </g>
    </g>
    <g id="ytick_16">
     <g id="line2d_37">
      <g>
       <use xlink:href="#m5f8f7433c5" x="50.77524" y="106.213853" style="stroke: #000000; stroke-width: 0.75"/>
      </g>
     </g>
    </g>
    <g id="ytick_17">
     <g id="line2d_38">
      <g>
       <use xlink:href="#m5f8f7433c5" x="50.77524" y="98.320869" style="stroke: #000000; stroke-width: 0.75"/>
      </g>
     </g>
    </g>
    <g id="ytick_18">
     <g id="line2d_39">
      <g>
       <use xlink:href="#m5f8f7433c5" x="50.77524" y="90.427884" style="stroke: #000000; stroke-width: 0.75"/>
      </g>
     </g>
    </g>
    <g id="ytick_19">
     <g id="line2d_40">
      <g>
       <use xlink:href="#m5f8f7433c5" x="50.77524" y="74.641915" style="stroke: #000000; stroke-width: 0.75"/>
      </g>
     </g>
    </g>
    <g id="ytick_20">
     <g id="line2d_41">
      <g>
       <use xlink:href="#m5f8f7433c5" x="50.77524" y="66.748931" style="stroke: #000000; stroke-width: 0.75"/>
      </g>
     </g>
    </g>
   </g>
   <g id="output_sample.dat">
    <path d="M 50.773484 200.929667 
L 59.142943 200.894283 
L 59.145577 166.612786 
L 60.141063 192.590611 
L 60.730981 195.261754 
L 60.22007 174.471633 
L 61.036474 187.473549 
L 61.039108 127.528069 
L 61.152351 192.228125 
L 62.037227 156.287736 
L 63.011645 183.35353 
L 62.658748 138.699404 
L 63.037981 180.533879 
L 63.246032 94.004196 
L 63.512022 191.541633 
L 64.038734 167.164782 
L 64.784032 178.778638 
L 64.528577 148.212818 
L 65.036854 168.190278 
L 65.542498 146.678817 
L 65.184334 189.674547 
L 66.034974 155.545006 
L 66.237758 192.31625 
L 66.353635 123.461208 
L 67.035727 172.412275 
L 67.372823 124.315229 
L 67.820529 181.057382 
L 68.031214 166.364591 
L 68.202395 180.281304 
L 68.241899 133.623426 
L 69.031967 172.800767 
L 69.537611 149.448465 
L 69.972149 179.444727 
L 70.032721 166.931071 
L 71.001871 181.209361 
L 71.012406 146.535165 
L 71.030841 171.717613 
L 71.262594 147.026897 
L 71.25206 180.508227 
L 72.026327 174.826383 
L 72.05793 178.122533 
L 72.165906 134.817634 
L 72.984943 170.13361 
L 73.527457 122.696773 
L 73.56696 176.450917 
L 73.983063 156.497295 
L 74.156878 176.192422 
L 74.541378 121.134357 
L 74.98645 170.932261 
L 75.025954 127.554115 
L 75.51843 177.610239 
L 75.989837 157.299617 
L 76.669296 175.925916 
L 76.345368 125.089926 
L 76.990591 166.25476 
L 77.253947 103.24767 
L 77.556806 174.983217 
L 77.901803 172.9842 
L 77.930772 177.999087 
L 77.928138 139.711679 
L 78.892022 167.860035 
L 78.918358 147.797253 
L 79.342361 177.847542 
L 79.890142 174.683165 
L 80.179834 156.369429 
L 80.856659 179.771772 
L 80.888262 173.880488 
L 81.393906 180.188719 
L 80.959368 169.498461 
L 81.891649 177.53344 
L 81.896916 171.971649 
L 82.8687 181.100162 
L 82.889769 180.667823 
L 82.892402 178.127072 
L 83.885255 183.403216 
L 84.643721 182.514782 
L 84.870207 184.795696 
L 86.36607 188.401527 
L 85.178334 182.451441 
L 86.389772 187.904901 
L 86.539885 185.459102 
L 87.06133 189.416723 
L 87.385258 188.7502 
L 87.406327 188.677663 
L 89.94508 193.994615 
L 90.794404 196.336818 
L 89.950347 189.856875 
L 90.92696 193.248885 
L 90.952857 193.270157 
L 91.630121 197.249875 
L 91.5814 189.532829 
L 91.955366 194.999273 
L 92.116013 194.372846 
L 92.77967 197.604755 
L 92.924516 196.001564 
L 93.00879 194.386422 
L 93.598708 196.827288 
L 93.685616 196.683202 
L 94.457249 197.986148 
L 95.015564 199.887888 
L 94.617896 196.839444 
L 95.629184 199.121009 
L 95.900441 196.086611 
L 96.485092 201.044682 
L 96.62467 200.88648 
L 97.035506 200.444927 
L 97.219855 198.633148 
L 97.820307 205.867321 
L 98.025725 203.550588 
L 98.515568 212.590683 
L 98.518201 200.92802 
L 98.92377 200.929687 
L 119.067883 200.929667 
L 119.069237 -1 
M 119.080222 -1 
L 119.223263 242.601468 
L 119.448572 -1 
M 119.450285 -1 
L 119.53929 185.677856 
L 119.892857 -1 
M 119.899095 -1 
L 120.463671 190.654975 
L 120.906109 187.66823 
L 120.908742 187.672926 
L 120.91401 187.65418 
L 121.019352 107.938865 
L 121.925297 176.540148 
L 122.502047 183.74664 
L 122.178119 156.404158 
L 122.789105 173.396096 
L 123.505434 146.862723 
L 123.734554 183.173728 
L 123.787225 176.678788 
L 124.2639 184.427489 
L 124.140123 159.37705 
L 124.313938 178.253715 
L 124.616797 153.18895 
L 124.743208 190.240672 
L 125.312058 179.051735 
L 125.76503 169.049863 
L 126.07579 181.221122 
L 126.310177 178.935708 
L 126.678876 184.386603 
L 126.502427 151.291082 
L 127.255626 179.163499 
L 127.748102 163.419797 
L 127.790239 184.139908 
L 128.253746 179.422271 
L 128.904236 154.599821 
L 128.438095 184.131975 
L 129.286102 176.760954 
L 129.317705 177.084685 
L 129.34404 177.053547 
L 129.615297 161.629984 
L 130.147277 192.345928 
L 130.34216 176.930022 
L 131.229671 145.813746 
L 131.234938 185.280918 
L 131.311311 170.199161 
L 131.519362 193.034394 
L 132.148784 131.015978 
L 132.312064 190.334361 
L 132.725534 152.032234 
L 132.435842 190.424933 
L 133.312818 171.773219 
L 133.515602 191.363528 
L 133.4919 165.830552 
L 133.731554 170.298731 
L 134.582195 142.305314 
L 134.060749 181.255219 
L 134.729674 167.919075 
L 134.737575 167.956369 
L 134.745475 167.925231 
L 135.053602 97.619972 
L 135.385431 175.941899 
L 135.746229 160.899607 
L 136.565266 187.842231 
L 136.225537 119.156375 
L 136.746982 164.912953 
L 136.849691 186.685514 
L 136.770684 146.240362 
L 137.745102 170.245058 
L 137.75827 150.571637 
L 138.603643 184.986707 
L 138.740588 177.520733 
L 139.046082 180.916334 
L 139.343674 168.006332 
L 139.472719 173.435008 
L 139.475352 166.879293 
L 140.452403 185.997561 
L 140.468205 182.739969 
L 140.48664 186.376701 
L 141.116061 171.403906 
L 141.466325 182.621495 
L 142.385438 190.180172 
L 141.550599 160.824229 
L 142.496047 188.676203 
L 142.693564 157.378547 
L 143.496801 186.218644 
L 143.502068 186.221604 
L 143.504701 186.189676 
L 143.509969 186.20266 
L 144.284236 150.804085 
L 144.381677 192.720884 
L 144.513356 181.912271 
L 144.776712 175.904881 
L 144.997931 182.793207 
L 145.52201 178.712494 
L 145.701092 176.408256 
L 145.743229 180.237024 
L 145.748496 178.834599 
L 146.040821 185.131227 
L 146.201469 166.930913 
L 146.746616 180.256046 
L 147.233825 173.117276 
L 147.170619 184.184622 
L 147.736835 175.237766 
L 148.36889 182.857732 
L 147.784239 175.177187 
L 148.737588 181.399582 
L 148.99041 186.087975 
L 148.919304 179.470537 
L 149.111554 182.687678 
L 149.277469 175.129632 
L 149.846318 187.162329 
L 150.109674 180.337384 
L 150.157078 184.110546 
L 150.641653 177.254108 
L 151.107794 183.190303 
L 152.105914 175.566074 
L 152.061143 186.679081 
L 152.111181 179.811158 
L 153.072431 189.388821 
L 152.182287 173.994423 
L 153.114568 185.003361 
L 154.02578 165.456464 
L 154.104787 194.134518 
L 154.110054 181.936739 
L 154.223297 194.791175 
L 155.015999 179.680016 
L 155.108174 185.028934 
L 155.245119 184.75856 
L 155.503208 186.318766 
L 156.151064 188.768314 
L 155.653321 175.640032 
L 156.195835 185.823837 
L 156.696212 171.9561 
L 156.846325 194.663979 
L 157.193955 187.833746 
L 157.296664 187.318649 
L 158.012993 176.485094 
L 158.29215 192.821441 
L 158.294784 192.820967 
L 158.450164 193.472888 
L 158.666116 192.724041 
L 158.726688 191.59566 
L 159.577328 197.613919 
L 159.653701 196.712919 
L 159.869654 200.42626 
L 160.227818 195.215817 
L 160.809835 199.992276 
L 161.104794 199.159389 
L 161.123229 199.197488 
L 161.125862 194.204686 
L 161.602537 205.252102 
L 162.121349 200.007072 
L 162.131883 199.379051 
L 162.545352 202.680481 
L 163.137904 212.222634 
L 163.148438 200.930844 
L 163.456564 200.929667 
L 185.359897 200.929074 
L 186.015654 53.852189 
L 186.36065 144.117149 
L 186.534465 66.244175 
L 187.177054 193.1711 
L 187.356136 162.999812 
L 188.098801 177.814431 
L 187.577356 127.900223 
L 188.359523 173.598038 
L 189.16276 138.07428 
L 188.607078 186.736621 
L 189.357643 162.912279 
L 189.476154 187.702485 
L 189.407681 154.176363 
L 190.358397 169.270709 
L 191.311746 188.232183 
L 190.953582 164.315059 
L 191.364417 184.20763 
L 191.912198 159.117766 
L 191.633041 187.348524 
L 192.367804 168.053177 
L 192.894517 186.071242 
L 192.373071 155.151936 
L 193.368558 174.511809 
L 194.203397 142.280451 
L 193.868934 184.471334 
L 194.358777 164.98987 
L 194.96713 185.555199 
L 194.785414 134.216189 
L 195.35953 180.903074 
L 196.244407 124.190915 
L 195.377965 181.300328 
L 196.360284 140.717246 
L 196.726349 178.637669 
L 197.158253 132.258729 
L 197.361037 170.136885 
L 198.256448 182.962748 
L 198.103702 117.719851 
L 198.335455 159.144602 
L 198.39076 128.009935 
L 198.430263 180.941513 
L 199.330941 159.169859 
L 199.970897 182.216782 
L 200.213184 119.55576 
L 200.329061 164.83426 
L 201.029589 118.86315 
L 200.413335 181.292198 
L 201.327181 153.675553 
L 201.337715 133.737479 
L 202.330568 183.093022 
L 202.414842 153.683841 
L 202.470147 185.34789 
L 203.328688 172.158042 
L 203.944941 179.283591 
L 203.963376 163.320583 
L 204.329441 178.477678 
L 205.203784 140.8755 
L 204.482188 179.864554 
L 205.330195 154.719795 
L 205.788434 182.936346 
L 205.3855 147.225801 
L 206.330948 166.839394 
L 206.949835 136.098666 
L 206.73915 183.020722 
L 207.060445 145.030367 
L 207.063078 182.345635 
L 207.58189 114.139988 
L 208.061198 176.66316 
L 208.4694 112.801338 
L 208.674818 185.45188 
L 209.064585 149.272452 
L 209.786181 183.916418 
L 209.406948 126.461726 
L 210.065339 162.323462 
L 210.19965 185.071438 
L 210.362931 118.856047 
L 211.063458 162.084304 
L 211.455859 141.223581 
L 211.339982 185.707731 
L 212.064212 155.9069 
L 212.962256 186.393039 
L 212.912219 143.005422 
L 213.067599 176.751324 
L 213.417863 144.61638 
L 213.31252 185.883981 
L 214.065719 166.743928 
L 214.342243 182.764437 
L 214.300106 147.882497 
L 215.066472 175.003541 
L 215.917113 144.355912 
L 216.032989 184.605436 
L 216.067226 172.599378 
L 216.069859 182.824345 
L 216.1515 155.147989 
L 217.062712 176.328734 
L 217.252328 153.561499 
L 217.405075 187.662389 
L 218.060832 176.45518 
L 218.511171 164.703552 
L 218.587544 184.637718 
L 219.011547 169.579996 
L 219.872722 187.103447 
L 219.585664 145.417123 
L 220.012301 179.047236 
L 220.467907 175.35549 
L 220.317794 183.998189 
L 220.899811 181.471645 
L 221.178969 184.411111 
L 221.213205 183.746048 
L 221.215839 165.658603 
L 221.452859 190.85814 
L 222.211325 184.66195 
L 224.505157 200.983946 
L 224.539393 197.879088 
L 224.542027 196.086492 
L 224.808017 204.07819 
L 225.532246 201.658478 
L 226.251208 203.071464 
L 226.290712 203.331842 
L 226.293345 200.907649 
L 226.904332 200.929667 
L 249.289606 200.929667 
L 249.292239 170.519576 
L 249.376513 204.334049 
L 250.287726 200.929667 
L 250.469441 200.929667 
L 250.754952 -1 
M 250.806797 -1 
L 251.038291 184.18474 
L 251.812558 169.434528 
L 251.894198 66.720516 
L 252.744839 181.74932 
L 252.750106 165.516845 
L 253.64815 184.539174 
L 253.458534 131.420099 
L 253.750859 173.73064 
L 254.677873 140.553466 
L 254.546195 189.550904 
L 254.680506 180.452779 
L 254.785849 183.706504 
L 254.696308 148.140203 
L 255.64439 181.547773 
L 256.618808 140.964296 
L 255.934082 185.455629 
L 256.64251 162.011847 
L 257.366739 187.121996 
L 257.609027 138.013109 
L 257.643263 176.898489 
L 258.233181 187.372559 
L 257.740705 139.307559 
L 258.60188 166.890737 
L 259.373513 140.435466 
L 258.696688 182.219111 
L 259.592099 171.89485 
L 260.200452 181.757726 
L 259.871256 130.826941 
L 260.584952 173.278885 
L 260.966818 129.474084 
L 261.580438 185.343943 
L 261.585705 158.118514 
L 261.590972 186.927592 
L 261.993907 128.647688 
L 262.575924 161.874154 
L 262.83138 117.359537 
L 263.537174 182.656737 
L 263.574044 150.858941 
L 263.650417 184.418846 
L 263.666219 106.039813 
L 264.574798 158.103123 
L 265.127846 178.411614 
L 265.164715 83.272499 
L 265.575551 166.396281 
L 266.149667 61.183588 
L 265.725664 175.35178 
L 266.573671 141.290276 
L 267.571791 178.811591 
L 267.382174 111.20735 
L 267.574424 177.243689 
L 268.322356 119.246355 
L 267.908887 181.916099 
L 268.575178 161.04247 
L 268.63575 138.532073 
L 268.793763 182.808598 
L 269.570664 172.036213 
L 270.231688 185.382934 
L 270.552983 136.790881 
L 270.56615 178.931248 
L 271.06126 132.491572 
L 271.306181 185.577694 
L 271.56427 166.182184 
L 271.603774 184.581283 
L 272.341171 130.841543 
L 272.559757 178.283116 
L 272.64403 141.87633 
L 272.825746 184.796644 
L 273.56051 166.457255 
L 273.594746 151.644688 
L 273.686921 175.867902 
L 273.694822 170.204449 
L 273.760661 125.507465 
L 274.463822 183.455783 
L 274.692941 164.483969 
L 275.533048 185.363478 
L 275.032671 137.852882 
L 275.688428 162.117692 
L 275.738465 137.163035 
L 276.249376 187.066153 
L 276.686548 163.173931 
L 277.59776 186.337117 
L 277.326503 154.001533 
L 277.687301 174.242184 
L 277.774209 161.151788 
L 277.874284 186.349588 
L 278.688054 169.735408 
L 279.628236 157.919216 
L 279.533428 186.419125 
L 279.633503 165.547904 
L 280.355099 188.010312 
L 280.260291 154.780571 
L 280.634257 171.938104 
L 280.884445 188.490639 
L 280.644791 159.432301 
L 281.642911 175.718685 
L 282.612061 156.931409 
L 282.63313 185.181742 
L 283.007096 155.554083 
L 283.144041 187.035804 
L 283.678654 177.31149 
L 284.626736 189.310799 
L 284.192198 149.848639 
L 284.679407 187.664757 
L 285.656459 171.952627 
L 284.763681 189.284437 
L 285.680161 178.858436 
L 286.33065 190.393519 
L 285.717031 170.059455 
L 286.683548 185.623236 
L 287.971359 192.371817 
L 288.076702 192.063675 
L 288.081969 190.714014 
L 289.05902 198.37738 
L 289.061654 198.365118 
L 290.104544 200.260303 
L 289.153828 197.846762 
L 290.228322 199.875792 
L 290.230955 197.075128 
L 290.628623 203.341432 
L 291.226441 200.554683 
L 292.024411 203.800042 
L 292.298301 200.929667 
L 315.025938 200.764442 
L 315.852876 82.597254 
L 316.029325 167.397309 
L 316.042493 172.810673 
L 316.105698 145.382394 
L 316.171537 160.025459 
L 316.176805 86.951814 
L 316.616609 180.707209 
L 317.169657 166.297145 
L 317.232863 182.411818 
L 317.369808 147.680437 
L 318.178311 172.415156 
L 318.425866 153.409165 
L 318.62865 183.207431 
L 318.939411 166.536974 
L 319.371315 185.030671 
L 319.574099 146.128676 
L 319.940164 180.973834 
L 320.872445 136.700901 
L 320.366801 184.87064 
L 320.940918 179.047788 
L 321.130534 151.751638 
L 321.628277 189.44569 
L 321.939037 175.775673 
L 322.937157 182.079444 
L 322.291935 161.214537 
L 322.939791 179.999643 
L 323.258452 145.764415 
L 323.350627 184.744747 
L 323.943178 162.302545 
L 324.696377 184.699757 
L 324.693743 142.758766 
L 324.941298 179.020202 
L 325.834075 140.50374 
L 325.776137 181.473579 
L 325.944685 141.904351 
L 326.666281 183.702281 
L 326.663647 125.234762 
L 326.945438 167.380537 
L 327.211428 181.674455 
L 327.135055 117.520159 
L 327.943558 171.737622 
L 328.775764 85.121036 
L 328.49924 181.435258 
L 328.941678 140.431125 
L 329.139195 180.118669 
L 328.991716 110.290185 
L 329.942431 153.428897 
L 330.664027 183.576901 
L 330.88788 135.149929 
L 330.943185 159.929165 
L 331.156503 180.240497 
L 331.035359 149.631977 
L 331.949205 170.786833 
L 332.673435 179.781481 
L 332.789311 163.831732 
L 332.894654 176.707084 
L 333.674188 132.172301 
L 333.123774 183.036942 
L 333.892774 162.499397 
L 334.185099 185.194529 
L 334.182466 154.12861 
L 334.893527 175.46982 
L 335.296462 129.533281 
L 335.378103 184.723791 
L 335.894281 166.631019 
L 336.139202 181.263783 
L 336.149736 147.15358 
L 336.35252 168.091971 
L 337.284801 99.23685 
L 336.552671 184.237544 
L 337.353274 137.461784 
L 338.277654 184.88465 
L 337.469151 116.258071 
L 338.354027 166.64053 
L 338.975548 122.040866 
L 338.762229 184.469321 
L 339.349514 146.217867 
L 339.460123 180.170171 
L 340.057942 139.927553 
L 340.350267 157.599945 
L 341.079764 184.5889 
L 340.761103 117.456226 
L 341.348387 181.867399 
L 341.906702 133.181419 
L 342.322805 185.65177 
L 342.346507 144.938414 
L 343.178712 186.987618 
L 342.388644 142.228752 
L 343.34726 172.022756 
L 343.910842 186.57075 
L 344.026719 142.110357 
L 344.326945 172.654787 
L 344.719346 142.247695 
L 344.795719 183.740641 
L 345.325065 173.537183 
L 345.588421 133.051974 
L 345.780671 185.55362 
L 346.325818 170.372057 
L 346.942072 182.820674 
L 347.221229 148.39633 
L 347.321305 169.169087 
L 347.337106 145.467244 
L 348.129808 185.845976 
L 348.319425 166.249275 
L 348.490606 186.706154 
L 349.217469 141.952103 
L 349.314911 180.079717 
L 349.649373 145.902542 
L 350.155017 188.405592 
L 350.313031 167.307369 
L 350.384137 187.375795 
L 350.974055 162.502988 
L 351.313784 180.719522 
L 351.319051 180.734637 
L 351.653514 169.68659 
L 352.246065 187.192322 
L 352.30927 186.827153 
L 352.622664 188.902535 
L 352.625298 177.992891 
L 353.620784 194.048997 
L 354.861192 201.758127 
L 355.18512 200.838707 
L 355.580154 193.992049 
L 356.122668 206.95087 
L 356.18324 200.502921 
L 356.699418 201.553801 
L 357.020712 203.852668 
L 357.023346 200.929844 
L 357.631699 200.929667 
L 381.75249 200.929693 
L 382.724274 90.612186 
L 382.763777 125.925398 
L 383.627586 177.053192 
L 383.077171 74.536939 
L 383.777699 170.477388 
L 384.320212 112.705438 
L 384.388685 180.96752 
L 384.775818 165.607654 
L 385.423675 185.59273 
L 385.347301 139.63275 
L 385.705466 158.426735 
L 386.44813 120.200616 
L 385.779205 187.085451 
L 386.700952 168.524743 
L 386.885301 190.205232 
L 386.935339 150.960761 
L 387.701705 173.168383 
L 388.689291 186.278551 
L 388.48124 155.482652 
L 388.697192 182.878056 
L 389.505695 128.538765 
L 389.582068 187.347932 
L 389.700579 163.685633 
L 390.156185 183.01204 
L 389.840157 150.437456 
L 390.698699 168.25354 
L 391.570407 115.588746 
L 391.609911 186.330329 
L 391.699452 158.756662 
L 391.702086 184.991127 
L 392.120822 124.234721 
L 392.697572 158.144561 
L 393.569281 101.184049 
L 392.752877 180.382295 
L 393.67989 133.733533 
L 394.146031 182.964445 
L 394.59637 102.352605 
L 394.680644 149.073548 
L 395.286363 58.151498 
L 395.515483 182.096177 
L 395.678764 131.516394 
L 395.984257 183.18904 
L 395.815709 101.023032 
L 396.682151 161.786147 
L 396.845431 119.642188 
L 397.164092 183.383089 
L 397.680271 167.003449 
L 397.682904 184.173571 
L 397.706606 143.909169 
L 398.681024 178.530522 
L 399.131363 146.721439 
L 399.481627 185.323303 
L 399.684411 165.85131 
L 399.960935 185.293823 
L 400.258527 154.745052 
L 400.685164 172.318309 
L 400.782606 184.1508 
L 401.670116 158.066815 
L 401.680651 172.818961 
L 402.254767 185.710217 
L 402.676137 141.984464 
L 403.28449 183.133158 
L 403.255521 126.90768 
L 403.674257 177.793198 
L 404.545966 124.941143 
L 404.427455 182.673983 
L 404.67501 164.074205 
L 404.835658 123.230733 
L 404.880428 181.118513 
L 405.675764 151.882662 
L 406.347322 184.870404 
L 405.899616 135.454598 
L 406.676517 167.767095 
L 406.971476 179.145701 
L 406.710753 158.442916 
L 407.200596 172.712603 
L 407.527158 141.795822 
L 408.061771 182.952132 
L 408.198716 173.782812 
L 409.112562 184.038601 
L 408.875541 140.308784 
L 409.144164 177.637312 
L 409.186301 143.747757 
L 409.225805 185.137265 
L 410.142284 173.383072 
L 410.458312 184.826005 
L 410.605791 151.677444 
L 411.12987 169.489858 
L 412.088486 159.858917 
L 412.080586 184.861406 
L 412.117455 165.320389 
L 412.90489 187.817565 
L 412.673137 130.963095 
L 413.115575 178.398709 
L 413.789767 162.74767 
L 413.86614 184.531518 
L 414.116329 169.770453 
L 414.237473 186.231746 
L 414.166366 157.294881 
L 415.119716 184.275233 
L 415.127616 163.914806 
L 415.760549 188.457568 
L 416.118713 180.981372 
L 418.370409 193.723254 
L 416.524282 176.514969 
L 418.42308 192.262302 
L 418.491553 191.498971 
L 419.318491 197.134239 
L 419.626618 202.630956 
L 420.416686 199.778479 
L 420.824888 201.423977 
L 420.827522 199.172306 
L 420.877559 200.214851 
L 420.880193 178.759655 
L 421.238357 209.831059 
L 421.875679 201.484457 
L 422.162737 202.931813 
L 422.165371 200.910791 
L 422.755289 200.995849 
L 423.758676 200.929667 
L 445.79193 200.923317 
L 445.79193 200.922756 
L 446.661006 168.797248 
L 446.797073 178.533047 
L 447.411571 183.768267 
L 447.187718 147.21554 
L 447.670538 169.419018 
L 448.61862 118.406936 
L 447.999733 180.2639 
L 448.666902 165.618862 
L 449.044379 108.643709 
L 449.255064 181.311259 
L 449.663266 167.489539 
L 450.650852 185.26971 
L 449.895897 135.695334 
L 450.65963 169.561487 
L 451.366303 187.950838 
L 450.813255 133.20786 
L 451.655994 181.127669 
L 452.134425 142.425288 
L 451.708666 184.682116 
L 452.656748 163.416127 
L 453.372199 187.261031 
L 452.981554 149.191548 
L 453.661891 185.649125 
L 454.614362 154.541019 
L 453.916468 188.66539 
L 454.658255 181.245511 
L 454.759208 156.488218 
L 454.710926 184.68334 
L 454.772376 173.131681 
" clip-path="url(#p1616cc188a)" style="fill: none; stroke: #ff0000; stroke-linecap: square"/>
   </g>
   <g id="Kashiwagi.dat">
    <path d="M 49.014704 200.745251 
L 58.934014 201.667345 
L 59.925552 160.72675 
L 60.173545 154.826747 
L 60.421538 172.71422 
L 60.421538 158.512767 
L 62.156615 180.828209 
L 63.148593 181.197206 
L 63.398781 180.275306 
L 64.140565 182.488103 
L 65.878716 183.410004 
L 66.870693 180.275306 
L 68.358657 175.480318 
L 69.596427 175.849314 
L 70.588404 167.734932 
L 73.318527 167.919232 
L 74.060317 171.238626 
L 75.302477 171.791925 
L 77.036238 188.57399 
L 77.286426 191.893384 
L 78.028215 190.417791 
L 78.278403 180.275306 
L 78.278403 152.427277 
L 78.774389 173.267519 
L 79.020187 168.288231 
L 79.020187 174.005119 
L 79.766367 174.189419 
L 81.745926 171.054326 
L 81.996114 172.345224 
L 81.996114 173.45182 
L 83.233889 173.63612 
L 85.713825 178.246413 
L 89.185737 180.828209 
L 90.427903 180.459606 
L 90.427903 179.353011 
L 91.419875 182.672405 
L 93.403824 189.126892 
L 95.387773 199.085511 
L 96.875737 200.745251 
L 123.904848 200.560836 
L 124.651033 154.455775 
L 125.147014 149.108278 
L 126.134601 176.955517 
L 126.880775 180.275306 
L 127.126573 181.750504 
L 128.118556 180.643907 
L 130.1025 183.963302 
L 136.800527 167.550631 
L 137.542316 170.501027 
L 138.534288 171.791925 
L 139.280462 170.68533 
L 139.280462 162.57134 
L 139.280462 178.062112 
L 139.280462 178.062112 
L 140.518243 171.054326 
L 140.518243 175.849314 
L 140.518243 199.823189 
L 140.022252 151.874769 
L 141.264417 190.602486 
L 141.760398 158.883738 
L 142.256389 176.402218 
L 143.248361 181.934805 
L 143.744352 179.722007 
L 143.99015 174.742718 
L 144.240344 165.521738 
L 145.974105 170.501027 
L 148.45404 171.791925 
L 150.192186 178.062112 
L 152.672122 180.643907 
L 154.160085 183.041402 
L 156.885829 185.992194 
L 159.365764 191.893384 
L 161.10391 199.085511 
L 162.837672 200.745251 
L 189.12501 200.745251 
L 188.629019 192.261986 
L 190.116982 151.689285 
L 190.858771 165.890737 
L 192.100936 182.488103 
L 193.338707 179.906307 
L 193.58891 181.381508 
L 194.330679 183.041402 
L 195.818652 182.119106 
L 197.060807 178.062112 
L 198.54876 174.558418 
L 200.282532 169.210131 
L 202.266476 168.841527 
L 204.004622 171.791925 
L 204.500613 169.579127 
L 204.25042 174.005119 
L 204.25042 174.927019 
L 206.234385 171.976621 
L 205.988587 154.274238 
L 205.988587 150.398779 
L 205.738394 201.114083 
L 206.730376 185.254199 
L 209.956475 171.423324 
L 210.698265 170.132426 
L 211.194256 171.238626 
L 212.186238 172.345224 
L 214.666174 177.140212 
L 219.130053 182.303803 
L 222.10598 186.360796 
L 226.815657 200.745251 
L 252.857208 200.929667 
L 253.598976 199.45435 
L 254.590959 176.033614 
L 255.582941 166.259733 
L 255.582941 174.927019 
L 256.078933 178.984407 
L 257.566885 181.566203 
L 258.558868 179.906307 
L 258.558868 179.722007 
L 259.054838 183.225703 
L 259.55083 183.041402 
L 261.284601 181.012904 
L 266.494665 167.550631 
L 268.47861 173.63612 
L 270.958545 176.217917 
L 271.950527 178.984407 
L 272.196325 179.353011 
L 272.942489 178.799712 
L 273.684278 174.189419 
L 274.676261 172.71422 
L 276.164214 170.870025 
L 276.414407 172.160924 
L 277.652187 173.082824 
L 278.148179 173.082824 
L 279.14014 175.849314 
L 280.382316 178.246413 
L 287.075938 186.914094 
L 288.814105 192.630983 
L 292.035808 200.745251 
L 319.064946 200.560836 
L 320.056908 156.85524 
L 321.299084 179.906307 
L 322.291045 182.303803 
L 323.283028 180.643907 
L 323.528826 182.119106 
L 324.520808 185.254199 
L 330.472641 169.210131 
L 331.714816 169.02583 
L 333.944559 172.71422 
L 335.682705 177.324513 
L 337.170678 182.488103 
L 338.904429 172.898521 
L 339.400421 170.68533 
L 340.642596 170.132426 
L 342.376347 174.558418 
L 345.848265 179.906307 
L 346.344256 181.012904 
L 349.320183 182.119106 
L 351.549925 187.467393 
L 353.784062 192.99998 
L 354.776045 196.687977 
L 356.013805 200.745251 
L 362.215851 201.114083 
L 366.679731 200.007609 
L 366.679731 196.319375 
L 367.175722 199.638769 
L 372.135593 200.007609 
L 383.047359 200.007609 
L 383.047359 199.638769 
L 384.039299 178.799712 
L 384.039299 164.046539 
L 383.789148 160.72675 
L 384.781088 160.359727 
L 384.781088 152.24574 
L 385.773071 175.664618 
L 386.023264 178.615411 
L 386.519256 180.828209 
L 389.986757 183.410004 
L 390.236951 183.041402 
L 390.97874 179.722007 
L 394.204881 170.68533 
L 394.94667 168.472531 
L 395.196821 168.656832 
L 397.426584 170.870025 
L 400.156734 179.906307 
L 402.386455 181.012904 
L 402.636648 180.275306 
L 403.628631 176.217917 
L 404.620613 171.791925 
L 406.108545 171.607625 
L 406.604537 173.820423 
L 408.338308 174.558418 
L 410.572467 178.984407 
L 414.786153 181.934805 
L 419.500226 196.687977 
L 419.996217 199.823189 
L 421.484191 201.298498 
L 432.641713 201.667345 
L 448.017316 201.298498 
L 449.009299 199.45435 
L 448.513308 196.319375 
L 448.513308 190.049187 
L 449.505248 154.641259 
L 450.993222 179.722007 
L 454.96111 184.147998 
L 458.187251 176.217917 
L 458.933436 169.579127 
L 460.162426 167.734932 
L 462.400937 167.550631 
L 463.629928 169.76343 
L 465.122296 176.033614 
L 466.351286 186.545098 
L 467.097471 190.049187 
L 468.106992 185.807498 
L 468.37033 169.210131 
L 469.335983 171.607625 
L 469.818788 170.316726 
L 471.091689 168.656832 
L 471.574536 172.529525 
L 472.584058 173.45182 
L 473.549669 177.508813 
L 475.524844 181.012904 
L 476.534407 181.934805 
L 477.017212 179.537311 
L 477.28055 177.324513 
L 477.763397 182.488103 
L 478.026734 183.5947 
L 479.519103 181.566203 
L 484.698442 197.425774 
L 485.444627 200.376408 
L 486.454149 197.425774 
L 486.717486 200.745251 
L 493.169725 201.114083 
L 505.064641 200.929667 
L 505.064641 200.929667 
" clip-path="url(#p1616cc188a)" style="fill: none; stroke-dasharray: 5.55,2.4; stroke-dashoffset: 0; stroke: #000000; stroke-width: 1.5"/>
   </g>
   <g id="patch_3">
    <path d="M 50.77524 216.715636 
L 50.77524 66.748931 
" style="fill: none; stroke: #000000; stroke-width: 1.7; stroke-linejoin: miter; stroke-linecap: square"/>
   </g>
   <g id="patch_4">
    <path d="M 50.77524 216.715636 
L 500.675355 216.715636 
" style="fill: none; stroke: #000000; stroke-width: 1.7; stroke-linejoin: miter; stroke-linecap: square"/>
   </g>
   <g id="x_title_text">
    <!-- $t \, \mathrm{[s]}$ -->
    <g transform="translate(485.336086 240.58792)">
     <text>
      <tspan style="font: italic 15px 'Times New Roman'" x="0" y="-0.84375">t</tspan>
      <tspan style="font: 15px 'Times New Roman'" x="5.972936 10.968054 16.805456" y="-0.84375">[s]</tspan>
     </text>
    </g>
   </g>
   <g id="y_title_text">
    <!-- $\mathrm{Pressure \, [N/m^2]}$ -->
    <g transform="translate(3.00024 57.354368)">
     <text>
      <tspan style="font: 15px 'Times New Roman'" x="0 8.342285 13.337402 19.995117 25.83252 31.669922 39.169922 44.165039 52.62821 57.623327 68.455847 72.623327 90.410292" y="-0.8846875000000018">Pressure[N/m]</tspan>
      <tspan style="font: 10.5px 'Times New Roman'" x="84.516229" y="-9.9015625">2</tspan>
     </text>
    </g>
   </g>
   <g id="legend_1">
    <g id="patch_5">
     <path d="M 384.965355 59.250596 
L 500.675355 59.250596 
L 500.675355 15.461221 
L 384.965355 15.461221 
z
" style="fill: #ffffff; stroke: #000000; stroke-linejoin: miter"/>
    </g>
    <g id="line2d_42">
     <path d="M 390.565355 25.961221 
L 404.565355 25.961221 
L 418.565355 25.961221 
" style="fill: none; stroke: #ff0000; stroke-linecap: square"/>
    </g>
    <g id="text_10">
     <text style="font: 14px 'Times New Roman'; text-anchor: start" x="429.765355" y="30.861221" transform="rotate(-0 429.765355 30.861221)">Numerical</text>
    </g>
    <g id="line2d_43">
     <path d="M 390.565355 45.755908 
L 404.565355 45.755908 
L 418.565355 45.755908 
" style="fill: none; stroke-dasharray: 5.55,2.4; stroke-dashoffset: 0; stroke: #000000; stroke-width: 1.5"/>
    </g>
    <g id="text_11">
     <text style="font: 14px 'Times New Roman'; text-anchor: start" x="429.765355" y="50.655908" transform="rotate(-0 429.765355 50.655908)">Experiment</text>
    </g>
   </g>
  </g>
 </g>
 <defs>
  <clipPath id="p1616cc188a">
   <rect x="50.77524" y="66.748931" width="449.900115" height="149.966705"/>
  </clipPath>
 </defs>
</svg>
