<?xml version="1.0" encoding="utf-8" standalone="no"?>
<!DOCTYPE svg PUBLIC "-//W3C//DTD SVG 1.1//EN"
  "http://www.w3.org/Graphics/SVG/1.1/DTD/svg11.dtd">
<svg xmlns:xlink="http://www.w3.org/1999/xlink" width="510.23622pt" height="226.771654pt" viewBox="0 0 510.23622 226.771654" xmlns="http://www.w3.org/2000/svg" version="1.1">
 <metadata>
  <rdf:RDF xmlns:dc="http://purl.org/dc/elements/1.1/" xmlns:cc="http://creativecommons.org/ns#" xmlns:rdf="http://www.w3.org/1999/02/22-rdf-syntax-ns#">
   <cc:Work>
    <dc:type rdf:resource="http://purl.org/dc/dcmitype/StillImage"/>
    <dc:date>2024-12-08T14:09:51.949767</dc:date>
    <dc:format>image/svg+xml</dc:format>
    <dc:creator>
     <cc:Agent>
      <dc:title>Matplotlib v3.9.2, https://matplotlib.org/</dc:title>
     </cc:Agent>
    </dc:creator>
   </cc:Work>
  </rdf:RDF>
 </metadata>
 <defs>
  <style type="text/css">*{stroke-linejoin: round; stroke-linecap: butt}</style>
 </defs>
 <g id="figure_1">
  <g id="patch_1">
   <path d="M 0 226.771654 
L 510.23622 226.771654 
L 510.23622 0 
L 0 0 
z
" style="fill: #ffffff"/>
  </g>
  <g id="axes_1">
   <g id="patch_2">
    <path d="M 50.77524 196.147195 
L 500.675355 196.147195 
L 500.675355 53.901379 
L 50.77524 53.901379 
z
" style="fill: #ffffff"/>
   </g>
   <g id="matplotlib.axis_1">
    <g id="xtick_1">
     <g id="line2d_1">
      <defs>
       <path id="mf25291a291" d="M 0 0 
L 0 10 
" style="stroke: #000000; stroke-width: 1.7"/>
      </defs>
      <g>
       <use xlink:href="#mf25291a291" x="105.641108" y="196.147195" style="stroke: #000000; stroke-width: 1.7"/>
      </g>
     </g>
     <g id="text_1">
      <text style="font: 15px 'Times New Roman'; text-anchor: middle" x="105.641108" y="220.56282" transform="rotate(-0 105.641108 220.56282)">2.0</text>
     </g>
    </g>
    <g id="xtick_2">
     <g id="line2d_2">
      <g>
       <use xlink:href="#mf25291a291" x="193.426496" y="196.147195" style="stroke: #000000; stroke-width: 1.7"/>
      </g>
     </g>
     <g id="text_2">
      <text style="font: 15px 'Times New Roman'; text-anchor: middle" x="193.426496" y="220.56282" transform="rotate(-0 193.426496 220.56282)">4.0</text>
     </g>
    </g>
    <g id="xtick_3">
     <g id="line2d_3">
      <g>
       <use xlink:href="#mf25291a291" x="281.211884" y="196.147195" style="stroke: #000000; stroke-width: 1.7"/>
      </g>
     </g>
     <g id="text_3">
      <text style="font: 15px 'Times New Roman'; text-anchor: middle" x="281.211884" y="220.56282" transform="rotate(-0 281.211884 220.56282)">6.0</text>
     </g>
    </g>
    <g id="xtick_4">
     <g id="line2d_4">
      <g>
       <use xlink:href="#mf25291a291" x="368.997273" y="196.147195" style="stroke: #000000; stroke-width: 1.7"/>
      </g>
     </g>
     <g id="text_4">
      <text style="font: 15px 'Times New Roman'; text-anchor: middle" x="368.997273" y="220.56282" transform="rotate(-0 368.997273 220.56282)">8.0</text>
     </g>
    </g>
    <g id="xtick_5">
     <g id="line2d_5">
      <g>
       <use xlink:href="#mf25291a291" x="456.782661" y="196.147195" style="stroke: #000000; stroke-width: 1.7"/>
      </g>
     </g>
     <g id="text_5">
      <text style="font: 15px 'Times New Roman'; text-anchor: middle" x="456.782661" y="220.56282" transform="rotate(-0 456.782661 220.56282)">10.0</text>
     </g>
    </g>
    <g id="xtick_6">
     <g id="line2d_6">
      <defs>
       <path id="m8d044617b1" d="M 0 0 
L 0 5 
" style="stroke: #000000; stroke-width: 0.75"/>
      </defs>
      <g>
       <use xlink:href="#m8d044617b1" x="61.748414" y="196.147195" style="stroke: #000000; stroke-width: 0.75"/>
      </g>
     </g>
    </g>
    <g id="xtick_7">
     <g id="line2d_7">
      <g>
       <use xlink:href="#m8d044617b1" x="83.694761" y="196.147195" style="stroke: #000000; stroke-width: 0.75"/>
      </g>
     </g>
    </g>
    <g id="xtick_8">
     <g id="line2d_8">
      <g>
       <use xlink:href="#m8d044617b1" x="127.587455" y="196.147195" style="stroke: #000000; stroke-width: 0.75"/>
      </g>
     </g>
    </g>
    <g id="xtick_9">
     <g id="line2d_9">
      <g>
       <use xlink:href="#m8d044617b1" x="149.533802" y="196.147195" style="stroke: #000000; stroke-width: 0.75"/>
      </g>
     </g>
    </g>
    <g id="xtick_10">
     <g id="line2d_10">
      <g>
       <use xlink:href="#m8d044617b1" x="171.480149" y="196.147195" style="stroke: #000000; stroke-width: 0.75"/>
      </g>
     </g>
    </g>
    <g id="xtick_11">
     <g id="line2d_11">
      <g>
       <use xlink:href="#m8d044617b1" x="215.372843" y="196.147195" style="stroke: #000000; stroke-width: 0.75"/>
      </g>
     </g>
    </g>
    <g id="xtick_12">
     <g id="line2d_12">
      <g>
       <use xlink:href="#m8d044617b1" x="237.31919" y="196.147195" style="stroke: #000000; stroke-width: 0.75"/>
      </g>
     </g>
    </g>
    <g id="xtick_13">
     <g id="line2d_13">
      <g>
       <use xlink:href="#m8d044617b1" x="259.265537" y="196.147195" style="stroke: #000000; stroke-width: 0.75"/>
      </g>
     </g>
    </g>
    <g id="xtick_14">
     <g id="line2d_14">
      <g>
       <use xlink:href="#m8d044617b1" x="303.158231" y="196.147195" style="stroke: #000000; stroke-width: 0.75"/>
      </g>
     </g>
    </g>
    <g id="xtick_15">
     <g id="line2d_15">
      <g>
       <use xlink:href="#m8d044617b1" x="325.104579" y="196.147195" style="stroke: #000000; stroke-width: 0.75"/>
      </g>
     </g>
    </g>
    <g id="xtick_16">
     <g id="line2d_16">
      <g>
       <use xlink:href="#m8d044617b1" x="347.050926" y="196.147195" style="stroke: #000000; stroke-width: 0.75"/>
      </g>
     </g>
    </g>
    <g id="xtick_17">
     <g id="line2d_17">
      <g>
       <use xlink:href="#m8d044617b1" x="390.94362" y="196.147195" style="stroke: #000000; stroke-width: 0.75"/>
      </g>
     </g>
    </g>
    <g id="xtick_18">
     <g id="line2d_18">
      <g>
       <use xlink:href="#m8d044617b1" x="412.889967" y="196.147195" style="stroke: #000000; stroke-width: 0.75"/>
      </g>
     </g>
    </g>
    <g id="xtick_19">
     <g id="line2d_19">
      <g>
       <use xlink:href="#m8d044617b1" x="434.836314" y="196.147195" style="stroke: #000000; stroke-width: 0.75"/>
      </g>
     </g>
    </g>
    <g id="xtick_20">
     <g id="line2d_20">
      <g>
       <use xlink:href="#m8d044617b1" x="478.729008" y="196.147195" style="stroke: #000000; stroke-width: 0.75"/>
      </g>
     </g>
    </g>
    <g id="xtick_21">
     <g id="line2d_21">
      <g>
       <use xlink:href="#m8d044617b1" x="500.675355" y="196.147195" style="stroke: #000000; stroke-width: 0.75"/>
      </g>
     </g>
    </g>
   </g>
   <g id="matplotlib.axis_2">
    <g id="ytick_1">
     <g id="line2d_22">
      <defs>
       <path id="m7b4cb117af" d="M 0 0 
L -10 0 
" style="stroke: #000000; stroke-width: 1.7"/>
      </defs>
      <g>
       <use xlink:href="#m7b4cb117af" x="50.77524" y="181.173951" style="stroke: #000000; stroke-width: 1.7"/>
      </g>
     </g>
     <g id="text_6">
      <text style="font: 15px 'Times New Roman'; text-anchor: end" x="36.77524" y="186.381763" transform="rotate(-0 36.77524 186.381763)">0</text>
     </g>
    </g>
    <g id="ytick_2">
     <g id="line2d_23">
      <g>
       <use xlink:href="#m7b4cb117af" x="50.77524" y="143.740841" style="stroke: #000000; stroke-width: 1.7"/>
      </g>
     </g>
     <g id="text_7">
      <text style="font: 15px 'Times New Roman'; text-anchor: end" x="36.77524" y="148.948654" transform="rotate(-0 36.77524 148.948654)">1000</text>
     </g>
    </g>
    <g id="ytick_3">
     <g id="line2d_24">
      <g>
       <use xlink:href="#m7b4cb117af" x="50.77524" y="106.307732" style="stroke: #000000; stroke-width: 1.7"/>
      </g>
     </g>
     <g id="text_8">
      <text style="font: 15px 'Times New Roman'; text-anchor: end" x="36.77524" y="111.515544" transform="rotate(-0 36.77524 111.515544)">2000</text>
     </g>
    </g>
    <g id="ytick_4">
     <g id="line2d_25">
      <g>
       <use xlink:href="#m7b4cb117af" x="50.77524" y="68.874622" style="stroke: #000000; stroke-width: 1.7"/>
      </g>
     </g>
     <g id="text_9">
      <text style="font: 15px 'Times New Roman'; text-anchor: end" x="36.77524" y="74.082435" transform="rotate(-0 36.77524 74.082435)">3000</text>
     </g>
    </g>
    <g id="ytick_5">
     <g id="line2d_26">
      <defs>
       <path id="m09607a94e4" d="M 0 0 
L -5 0 
" style="stroke: #000000; stroke-width: 0.75"/>
      </defs>
      <g>
       <use xlink:href="#m09607a94e4" x="50.77524" y="196.147195" style="stroke: #000000; stroke-width: 0.75"/>
      </g>
     </g>
    </g>
    <g id="ytick_6">
     <g id="line2d_27">
      <g>
       <use xlink:href="#m09607a94e4" x="50.77524" y="188.660573" style="stroke: #000000; stroke-width: 0.75"/>
      </g>
     </g>
    </g>
    <g id="ytick_7">
     <g id="line2d_28">
      <g>
       <use xlink:href="#m09607a94e4" x="50.77524" y="173.687329" style="stroke: #000000; stroke-width: 0.75"/>
      </g>
     </g>
    </g>
    <g id="ytick_8">
     <g id="line2d_29">
      <g>
       <use xlink:href="#m09607a94e4" x="50.77524" y="166.200707" style="stroke: #000000; stroke-width: 0.75"/>
      </g>
     </g>
    </g>
    <g id="ytick_9">
     <g id="line2d_30">
      <g>
       <use xlink:href="#m09607a94e4" x="50.77524" y="158.714085" style="stroke: #000000; stroke-width: 0.75"/>
      </g>
     </g>
    </g>
    <g id="ytick_10">
     <g id="line2d_31">
      <g>
       <use xlink:href="#m09607a94e4" x="50.77524" y="151.227463" style="stroke: #000000; stroke-width: 0.75"/>
      </g>
     </g>
    </g>
    <g id="ytick_11">
     <g id="line2d_32">
      <g>
       <use xlink:href="#m09607a94e4" x="50.77524" y="136.25422" style="stroke: #000000; stroke-width: 0.75"/>
      </g>
     </g>
    </g>
    <g id="ytick_12">
     <g id="line2d_33">
      <g>
       <use xlink:href="#m09607a94e4" x="50.77524" y="128.767598" style="stroke: #000000; stroke-width: 0.75"/>
      </g>
     </g>
    </g>
    <g id="ytick_13">
     <g id="line2d_34">
      <g>
       <use xlink:href="#m09607a94e4" x="50.77524" y="121.280976" style="stroke: #000000; stroke-width: 0.75"/>
      </g>
     </g>
    </g>
    <g id="ytick_14">
     <g id="line2d_35">
      <g>
       <use xlink:href="#m09607a94e4" x="50.77524" y="113.794354" style="stroke: #000000; stroke-width: 0.75"/>
      </g>
     </g>
    </g>
    <g id="ytick_15">
     <g id="line2d_36">
      <g>
       <use xlink:href="#m09607a94e4" x="50.77524" y="98.82111" style="stroke: #000000; stroke-width: 0.75"/>
      </g>
     </g>
    </g>
    <g id="ytick_16">
     <g id="line2d_37">
      <g>
       <use xlink:href="#m09607a94e4" x="50.77524" y="91.334488" style="stroke: #000000; stroke-width: 0.75"/>
      </g>
     </g>
    </g>
    <g id="ytick_17">
     <g id="line2d_38">
      <g>
       <use xlink:href="#m09607a94e4" x="50.77524" y="83.847866" style="stroke: #000000; stroke-width: 0.75"/>
      </g>
     </g>
    </g>
    <g id="ytick_18">
     <g id="line2d_39">
      <g>
       <use xlink:href="#m09607a94e4" x="50.77524" y="76.361244" style="stroke: #000000; stroke-width: 0.75"/>
      </g>
     </g>
    </g>
    <g id="ytick_19">
     <g id="line2d_40">
      <g>
       <use xlink:href="#m09607a94e4" x="50.77524" y="61.388001" style="stroke: #000000; stroke-width: 0.75"/>
      </g>
     </g>
    </g>
    <g id="ytick_20">
     <g id="line2d_41">
      <g>
       <use xlink:href="#m09607a94e4" x="50.77524" y="53.901379" style="stroke: #000000; stroke-width: 0.75"/>
      </g>
     </g>
    </g>
   </g>
   <g id="output_sample.dat">
    <path d="M 50.773484 181.173951 
L 59.142943 181.140389 
L 59.145577 148.623841 
L 60.141063 173.264223 
L 60.730981 175.797845 
L 60.22007 156.078083 
L 61.036474 168.410608 
L 61.039108 111.551362 
L 61.152351 172.9204 
L 62.037227 138.830366 
L 63.011645 164.502704 
L 62.658748 122.147552 
L 63.037981 161.828221 
L 63.246032 79.753433 
L 63.512022 172.269251 
L 64.038734 149.147418 
L 64.784032 160.163346 
L 64.528577 131.171178 
L 65.036854 150.120117 
L 65.542498 129.716153 
L 65.184334 170.49829 
L 66.034974 138.125875 
L 66.237758 173.003988 
L 66.353635 107.69388 
L 67.035727 154.124749 
L 67.372823 108.503932 
L 67.820529 162.324771 
L 68.031214 148.388424 
L 68.202395 161.588649 
L 68.241899 117.332906 
L 69.031967 154.49324 
L 69.537611 132.343208 
L 69.972149 160.795142 
L 70.032721 148.925739 
L 71.001871 162.468926 
L 71.012406 129.579896 
L 71.030841 153.465851 
L 71.262594 130.046313 
L 71.25206 161.803889 
L 72.026327 156.414569 
L 72.05793 159.54102 
L 72.165906 118.465632 
L 72.984943 151.963398 
L 73.527457 106.968801 
L 73.56696 157.955466 
L 73.983063 139.029136 
L 74.156878 157.710279 
L 74.541378 105.486824 
L 74.98645 152.720932 
L 75.025954 111.576068 
L 75.51843 159.055101 
L 75.989837 139.790151 
L 76.669296 157.457493 
L 76.345368 109.238744 
L 76.990591 148.284248 
L 77.253947 88.521016 
L 77.556806 156.563329 
L 77.901803 154.667229 
L 77.930772 159.423929 
L 77.928138 123.107711 
L 78.892022 149.806877 
L 78.918358 130.777007 
L 79.342361 159.280186 
L 79.890142 156.278725 
L 80.179834 138.907853 
L 80.856659 161.10535 
L 80.888262 155.517373 
L 81.393906 161.500831 
L 80.959368 151.36095 
L 81.891649 158.982256 
L 81.896916 153.706808 
L 82.8687 162.365348 
L 82.889769 161.955268 
L 82.892402 159.545325 
L 83.885255 164.549832 
L 84.643721 163.707138 
L 84.870207 165.870622 
L 86.36607 169.29081 
L 85.178334 163.647058 
L 86.389772 168.819752 
L 86.539885 166.499873 
L 87.06133 170.25374 
L 87.385258 169.621532 
L 87.406327 169.55273 
L 89.947714 174.708879 
L 89.950347 170.671231 
L 90.794404 176.817561 
L 90.946273 173.904104 
L 91.366326 175.309193 
L 91.163541 173.00103 
L 91.579644 174.511419 
L 91.5814 170.363868 
L 91.630121 177.683609 
L 92.576886 176.368326 
L 92.77967 178.020219 
L 93.00879 174.967579 
L 94.020078 177.264774 
L 94.067482 177.235576 
L 94.462516 178.404197 
L 95.015564 180.185807 
L 94.617896 177.294309 
L 95.629184 179.45841 
L 95.900441 176.580235 
L 96.485092 181.283045 
L 96.62467 181.132987 
L 97.035506 180.714168 
L 97.219855 178.995666 
L 97.820307 185.857394 
L 98.025725 183.659936 
L 98.515568 192.234611 
L 98.518201 181.172389 
L 98.92377 181.17397 
L 119.067883 181.173951 
L 119.069171 -1 
M 119.080854 -1 
L 119.223263 220.70032 
L 119.447004 -1 
M 119.451094 -1 
L 119.53929 166.707364 
L 119.89271 -1 
M 119.899471 -1 
L 120.463671 171.428241 
L 120.906109 168.595266 
L 120.908742 168.59972 
L 120.91401 168.58194 
L 121.019352 92.970689 
L 121.925297 158.040102 
L 122.502047 164.875575 
L 122.178119 138.940794 
L 122.789105 155.057919 
L 123.505434 129.890591 
L 123.734554 164.332159 
L 123.787225 158.171605 
L 124.2639 165.521371 
L 124.140123 141.76063 
L 124.313938 159.665448 
L 124.616797 135.891118 
L 124.743208 171.035268 
L 125.312058 160.422383 
L 125.76503 150.935448 
L 126.07579 162.480081 
L 126.310177 160.312329 
L 126.678876 165.48259 
L 126.502427 134.09096 
L 127.255626 160.528393 
L 127.748102 145.59524 
L 127.790239 165.248596 
L 128.253746 160.773842 
L 128.904236 137.229352 
L 128.438095 165.241072 
L 129.286102 158.24954 
L 129.317705 158.556604 
L 129.34404 158.527069 
L 129.615297 143.897574 
L 130.147277 173.032137 
L 130.34216 158.409904 
L 131.229671 128.895619 
L 131.234938 166.330862 
L 131.311311 152.025575 
L 131.519362 173.685158 
L 132.148784 114.8597 
L 132.312064 171.124134 
L 132.725534 134.793954 
L 132.435842 171.210043 
L 133.312818 153.518594 
L 133.515602 172.100315 
L 133.4919 147.881879 
L 133.731554 152.120018 
L 134.582195 125.567815 
L 134.060749 162.512423 
L 134.729674 149.862877 
L 134.737575 149.898251 
L 134.745475 149.868716 
L 135.053602 83.183054 
L 135.385431 157.472654 
L 135.746229 143.204799 
L 136.565266 168.760308 
L 136.225537 103.610676 
L 136.746982 147.011522 
L 136.849691 167.663144 
L 136.770684 129.300271 
L 137.745102 152.069109 
L 137.75827 133.408555 
L 138.603643 166.051798 
L 138.740588 158.970203 
L 139.046082 162.190985 
L 139.343674 149.945641 
L 139.472719 155.094828 
L 139.475352 148.876627 
L 140.452403 167.01061 
L 140.468205 163.920731 
L 140.48664 167.37023 
L 141.116061 153.168295 
L 141.466325 163.808357 
L 142.385438 170.977883 
L 141.550599 143.133302 
L 142.496047 169.551345 
L 142.693564 139.865017 
L 143.496801 167.22031 
L 143.502068 167.223118 
L 143.504701 167.192834 
L 143.509969 167.20515 
L 144.284236 133.629036 
L 144.381677 173.387789 
L 144.513356 163.135647 
L 144.776712 157.437541 
L 144.997931 163.971229 
L 145.52201 160.100608 
L 145.701092 157.915001 
L 145.743229 161.546649 
L 145.748496 160.216426 
L 146.040821 166.188878 
L 146.201469 148.925589 
L 146.746616 161.564691 
L 147.233825 154.793454 
L 147.170619 165.291008 
L 147.736835 156.804772 
L 148.36889 164.032432 
L 147.784239 156.747312 
L 148.737588 162.649353 
L 148.99041 167.096369 
L 148.919304 160.819623 
L 149.111554 163.871132 
L 149.277469 156.702205 
L 149.846318 168.115411 
L 150.109674 161.641841 
L 150.157078 165.220746 
L 150.641653 158.717305 
L 151.107794 164.347881 
L 152.105914 157.116178 
L 152.061143 167.657042 
L 152.111181 161.142708 
L 153.072431 170.227274 
L 152.182287 155.625442 
L 153.114568 166.067595 
L 154.02578 147.527051 
L 154.104787 174.728643 
L 154.110054 163.158855 
L 154.223297 175.351493 
L 155.015999 161.018318 
L 155.108174 166.091852 
L 155.245119 165.835397 
L 155.505842 167.356941 
L 155.582215 168.976485 
L 155.521643 161.700274 
L 155.650688 164.690019 
L 156.198469 154.739101 
L 156.222171 170.949696 
L 156.648808 167.310262 
L 156.693578 167.78308 
L 156.696212 153.692059 
L 156.846325 175.230846 
L 157.691698 167.60924 
L 158.012993 157.987883 
L 158.450164 174.101077 
L 158.518636 173.860719 
L 158.726688 172.320497 
L 159.577328 178.028911 
L 159.579962 173.561928 
L 159.869654 180.696462 
L 160.575448 179.807242 
L 161.123229 179.530952 
L 161.125862 174.795199 
L 161.602537 185.27385 
L 162.121349 180.298855 
L 162.131883 179.703167 
L 162.545352 182.834626 
L 163.137904 191.88551 
L 163.148438 181.175067 
L 163.456564 181.173951 
L 185.359897 181.173389 
L 186.015654 41.668613 
L 186.36065 127.28637 
L 186.534465 53.422609 
L 187.177054 173.814826 
L 187.356136 145.196877 
L 188.098801 159.24878 
L 187.577356 111.904356 
L 188.359523 155.249464 
L 189.16276 121.554612 
L 188.607078 167.71162 
L 189.357643 145.11385 
L 189.476154 168.627758 
L 189.407681 136.827695 
L 190.358397 151.144923 
L 191.311746 169.130185 
L 190.953582 146.44441 
L 191.364417 165.312831 
L 191.912198 141.514694 
L 191.633041 168.29202 
L 192.367804 149.990074 
L 192.894517 167.080498 
L 192.373071 137.753041 
L 193.368558 156.11619 
L 194.203397 125.544233 
L 193.868934 165.562959 
L 194.358777 147.084479 
L 194.96713 166.591022 
L 194.785414 117.895151 
L 195.35953 162.178407 
L 196.244407 108.386018 
L 195.377965 162.555209 
L 196.360284 124.061507 
L 196.726349 160.029634 
L 197.158253 116.038469 
L 197.361037 151.966505 
L 198.256448 164.132041 
L 198.103702 102.248111 
L 198.335455 141.540149 
L 198.39076 112.00842 
L 198.430263 162.214867 
L 199.330941 141.564106 
L 199.970897 163.424481 
L 200.213184 103.989499 
L 200.329061 146.93688 
L 201.029589 103.332548 
L 200.413335 162.547498 
L 201.327181 136.352669 
L 201.337715 117.441087 
L 202.330568 164.255608 
L 202.414842 136.36053 
L 202.470147 166.394386 
L 203.328688 153.883605 
L 203.944941 160.642302 
L 203.963376 145.501133 
L 204.329441 159.877881 
L 205.203784 124.211614 
L 204.482188 161.193355 
L 205.330195 137.343149 
L 205.788434 164.106998 
L 205.3855 130.234976 
L 206.330948 148.838782 
L 206.949835 119.68071 
L 206.73915 164.18703 
L 207.060445 128.152572 
L 207.063078 163.5467 
L 207.58189 98.852554 
L 208.061198 158.156781 
L 208.4694 97.582823 
L 208.674818 166.493022 
L 209.064585 132.176257 
L 209.786181 165.036612 
L 209.406948 110.539919 
L 210.065339 144.555348 
L 210.19965 166.132167 
L 210.362931 103.32581 
L 211.063458 144.328504 
L 211.455859 124.541774 
L 211.339982 166.735701 
L 212.064212 138.469137 
L 212.962256 167.385727 
L 212.912219 126.231879 
L 213.067599 158.240407 
L 213.417863 127.759898 
L 213.31252 166.902877 
L 214.065719 148.748231 
L 214.342243 163.94394 
L 214.300106 130.857862 
L 215.066472 156.582607 
L 215.917113 127.51284 
L 216.032989 165.690157 
L 216.067226 154.302219 
L 216.069859 164.000763 
L 216.1515 137.749298 
L 217.062712 157.839573 
L 217.252328 136.244487 
L 217.405075 168.589726 
L 218.060832 157.959509 
L 218.511171 146.812902 
L 218.587544 165.720777 
L 219.011547 151.438287 
L 219.872722 168.059561 
L 219.585664 128.519416 
L 220.012301 160.418115 
L 220.467907 156.916435 
L 220.317794 165.114174 
L 220.899811 162.717706 
L 221.178969 165.505836 
L 221.213205 164.875014 
L 221.215839 147.718783 
L 221.452859 171.620947 
L 222.211325 165.743761 
L 224.505157 181.225435 
L 224.539393 178.280428 
L 224.542027 176.580122 
L 224.808017 184.160376 
L 225.532246 181.865239 
L 226.261743 183.266638 
L 226.290712 183.452452 
L 226.293345 181.153067 
L 226.922767 181.173951 
L 249.289606 181.173951 
L 249.292239 152.329494 
L 249.376513 184.403062 
L 250.287726 181.173951 
L 250.469441 181.173951 
L 250.754896 -1 
M 250.807268 -1 
L 251.038291 165.29112 
L 251.812558 151.300308 
L 251.894198 53.874427 
L 252.744839 162.981085 
L 252.750106 147.584323 
L 253.64815 165.627307 
L 253.458534 115.243015 
L 253.750859 155.375239 
L 254.677873 123.90616 
L 254.546195 170.381012 
L 254.680506 161.751295 
L 254.785849 164.837506 
L 254.696308 131.102301 
L 255.64439 162.789915 
L 256.618808 124.295838 
L 255.934082 166.496578 
L 256.64251 144.259777 
L 257.366739 168.077154 
L 257.609027 121.49659 
L 257.643263 158.379995 
L 258.233181 168.314817 
L 257.740705 122.724396 
L 258.60188 148.887482 
L 259.373513 123.794235 
L 258.696688 163.426689 
L 259.592099 153.633963 
L 260.200452 162.989059 
L 259.871256 114.680396 
L 260.584952 154.946742 
L 260.966818 113.397189 
L 261.580438 166.390643 
L 261.585705 140.566888 
L 261.590972 167.892759 
L 261.993907 112.613339 
L 262.575924 144.129173 
L 262.83138 101.906347 
L 263.537174 163.841785 
L 263.574044 133.681068 
L 263.650417 165.513173 
L 263.666219 91.169408 
L 264.574798 140.552289 
L 265.127846 159.815218 
L 265.164715 69.574247 
L 265.575551 148.418483 
L 266.149667 48.622562 
L 265.725664 156.912916 
L 266.573671 124.605036 
L 267.571791 160.194602 
L 267.382174 96.070899 
L 267.574424 158.707422 
L 268.322356 103.696024 
L 267.908887 163.139278 
L 268.575178 143.340307 
L 268.63575 121.988836 
L 268.793763 163.985828 
L 269.570664 153.768049 
L 270.231688 166.427627 
L 270.552983 120.337287 
L 270.56615 160.308099 
L 271.06126 116.259324 
L 271.306181 166.612359 
L 271.56427 148.215408 
L 271.603774 165.667248 
L 272.341171 114.694246 
L 272.559757 159.693335 
L 272.64403 125.160918 
L 272.825746 165.87152 
L 273.56051 148.476317 
L 273.594746 134.426361 
L 273.686921 157.402467 
L 273.694822 152.030591 
L 273.760661 109.634787 
L 274.463822 164.599693 
L 274.692941 146.604624 
L 275.533048 166.409172 
L 275.032671 121.344612 
L 275.688428 144.360172 
L 275.738465 120.690281 
L 276.249376 168.024186 
L 276.686548 145.362032 
L 277.59776 167.332684 
L 277.326503 136.661866 
L 277.687301 155.860447 
L 277.774209 143.443997 
L 277.874284 167.344513 
L 278.688054 151.585698 
L 279.628236 140.377851 
L 279.533428 167.41047 
L 279.633503 147.613783 
L 280.355099 168.919736 
L 280.260291 137.400796 
L 280.634257 153.67499 
L 280.884445 169.375334 
L 280.644791 141.813036 
L 281.642911 157.260932 
L 282.612061 139.4409 
L 282.63313 166.236793 
L 283.007096 138.134485 
L 283.144041 167.9954 
L 283.678654 158.771732 
L 284.626736 170.153269 
L 284.192198 132.72278 
L 284.679407 168.591972 
L 285.656459 153.688765 
L 284.763681 170.128264 
L 285.680161 160.239035 
L 286.33065 171.180247 
L 285.717031 151.893061 
L 286.683548 166.655557 
L 287.971359 173.056693 
L 288.076702 172.764416 
L 288.081969 171.484241 
L 289.05902 178.753066 
L 289.061654 178.741435 
L 290.104544 180.539048 
L 289.153828 178.249766 
L 290.228322 180.174333 
L 290.230955 177.517859 
L 290.628623 183.461548 
L 291.226441 180.818273 
L 292.024411 183.896547 
L 292.300935 181.173951 
L 315.025938 181.017232 
L 315.852876 68.933767 
L 316.029325 149.367974 
L 316.042493 154.502636 
L 316.105698 128.486475 
L 316.171537 142.375656 
L 316.176805 73.064136 
L 316.616609 161.992627 
L 317.169657 148.324451 
L 317.232863 163.609475 
L 317.369808 130.666205 
L 318.178311 154.127481 
L 318.425866 136.099995 
L 318.62865 164.364127 
L 318.939411 148.551932 
L 319.371315 166.093499 
L 319.574099 129.194335 
L 319.940164 162.245525 
L 320.872445 120.25194 
L 320.366801 165.941707 
L 320.940918 160.418639 
L 321.130534 134.527805 
L 321.628277 170.281216 
L 321.939037 157.314985 
L 322.937157 163.294213 
L 322.291935 143.503516 
L 322.939791 161.321489 
L 323.258452 128.848828 
L 323.350627 165.822296 
L 323.943178 144.535509 
L 324.696377 165.779622 
L 324.693743 125.997922 
L 324.941298 160.392474 
L 325.834075 123.858994 
L 325.776137 162.71954 
L 325.944685 125.187495 
L 326.666281 164.8335 
L 326.663647 109.376124 
L 326.945438 149.352065 
L 327.211428 162.910075 
L 327.135055 102.0587 
L 327.943558 153.48483 
L 328.775764 71.327614 
L 328.49924 162.683193 
L 328.941678 123.790117 
L 329.139195 161.434387 
L 328.991716 95.200954 
L 329.942431 136.118712 
L 330.664027 164.714575 
L 330.88788 118.780818 
L 330.943185 142.284319 
L 331.156503 161.549943 
L 331.035359 132.517272 
L 331.949205 152.582991 
L 332.673435 161.114558 
L 332.789311 145.985967 
L 332.894654 158.198444 
L 333.674188 115.95649 
L 333.123774 164.202415 
L 333.892774 144.722225 
L 334.185099 166.248921 
L 334.182466 136.782401 
L 334.893527 157.024879 
L 335.296462 113.453338 
L 335.378103 165.802419 
L 335.894281 148.641135 
L 336.139202 162.520546 
L 336.149736 130.166473 
L 336.35252 150.026871 
L 337.284801 84.716689 
L 336.552671 165.341206 
L 337.353274 120.97365 
L 338.277654 165.954996 
L 337.469151 100.861589 
L 338.354027 148.650156 
L 338.975548 106.346662 
L 338.762229 165.56105 
L 339.349514 129.278934 
L 339.460123 161.483237 
L 340.057942 123.312471 
L 340.350267 140.075017 
L 341.079764 165.674473 
L 340.761103 101.998058 
L 341.348387 163.093085 
L 341.906702 116.913655 
L 342.322805 166.682621 
L 342.346507 128.065353 
L 343.178712 167.949694 
L 342.388644 125.495195 
L 343.34726 153.755284 
L 343.910842 167.554288 
L 344.026719 125.382896 
L 344.326945 154.354775 
L 344.719346 125.513163 
L 344.795719 164.869885 
L 345.325065 155.191742 
L 345.588421 116.790874 
L 345.780671 166.589525 
L 346.325818 152.189569 
L 346.942072 163.997282 
L 347.221229 131.345242 
L 347.321305 151.048533 
L 347.337106 128.566956 
L 348.129808 166.866829 
L 348.319425 148.279044 
L 348.490606 167.682721 
L 349.217469 125.232789 
L 349.314911 161.39744 
L 349.649373 128.979843 
L 350.155017 169.294666 
L 350.313031 149.282664 
L 350.384137 168.317886 
L 350.974055 144.725632 
L 351.313784 162.004306 
L 351.319051 162.018643 
L 351.653514 151.539393 
L 352.246065 168.14386 
L 352.30927 167.797491 
L 352.622664 169.766024 
L 352.625298 159.418052 
L 353.620784 174.647526 
L 354.861192 181.959758 
L 355.18512 181.087674 
L 355.580154 174.59351 
L 356.122668 186.885158 
L 356.18324 180.769176 
L 356.704685 181.808921 
L 357.020712 183.946464 
L 357.023346 181.174119 
L 357.631699 181.173951 
L 381.75249 181.173976 
L 382.724274 76.536057 
L 382.763777 110.031203 
L 383.627586 158.526733 
L 383.077171 61.288428 
L 383.777699 152.289478 
L 384.320212 97.49186 
L 384.388685 162.239536 
L 384.775818 147.670457 
L 385.423675 166.626621 
L 385.347301 123.032845 
L 385.705466 140.859241 
L 386.44813 104.601156 
L 385.779205 168.042491 
L 386.700952 150.437363 
L 386.885301 171.001653 
L 386.935339 133.777645 
L 387.701705 154.84193 
L 388.689291 167.277134 
L 388.48124 138.066731 
L 388.697192 164.05171 
L 389.505695 112.510024 
L 389.582068 168.291459 
L 389.700579 145.84739 
L 390.156185 164.178795 
L 389.840157 133.281282 
L 390.698699 150.180122 
L 391.570407 100.226723 
L 391.609911 167.326246 
L 391.699452 141.172181 
L 391.702086 166.055991 
L 392.120822 108.427569 
L 392.697572 140.591594 
L 393.569281 86.563638 
L 392.752877 161.68444 
L 393.67989 117.437344 
L 394.146031 164.133651 
L 394.59637 87.672033 
L 394.680644 131.987594 
L 395.286363 45.746576 
L 395.515483 163.310085 
L 395.678764 115.334352 
L 395.984257 164.346683 
L 395.815709 86.410911 
L 396.682151 144.045697 
L 396.845431 104.071478 
L 397.164092 164.530741 
L 397.680271 148.994391 
L 397.682904 165.280526 
L 397.706606 127.089097 
L 398.681024 159.928004 
L 399.131363 129.75658 
L 399.481627 166.371065 
L 399.684411 147.901569 
L 399.960935 166.343103 
L 400.258527 137.367106 
L 400.685164 154.03562 
L 400.782606 165.258928 
L 401.670116 140.517851 
L 401.680651 154.510497 
L 402.254767 166.738059 
L 402.676137 125.263484 
L 403.28449 164.293677 
L 403.255521 110.962913 
L 403.674257 159.228641 
L 404.545966 109.097622 
L 404.427455 163.858143 
L 404.67501 146.215956 
L 404.835658 107.475271 
L 404.880428 162.382755 
L 405.675764 134.652082 
L 406.347322 165.941483 
L 405.899616 119.069802 
L 406.676517 149.718722 
L 406.971476 160.511511 
L 406.710753 140.874588 
L 407.200596 154.409615 
L 407.527158 125.084554 
L 408.061771 164.121972 
L 408.198716 155.424726 
L 409.112562 165.152505 
L 408.875541 123.674074 
L 409.144164 159.08078 
L 409.186301 126.935996 
L 409.225805 166.194606 
L 410.142284 155.045566 
L 410.458312 165.899371 
L 410.605791 134.45743 
L 411.12987 151.352789 
L 412.088486 142.217688 
L 412.080586 165.932948 
L 412.117455 147.397981 
L 412.90489 168.736913 
L 412.673137 114.80954 
L 413.115575 159.802977 
L 413.789767 144.957717 
L 413.86614 165.620045 
L 414.116329 151.618939 
L 414.237473 167.232738 
L 414.166366 139.785659 
L 415.119716 165.376954 
L 415.127616 146.064764 
L 415.760549 169.343965 
L 416.118713 162.252675 
L 418.370409 174.338553 
L 416.524282 158.01622 
L 418.42308 172.952817 
L 418.491553 172.228785 
L 419.318491 177.573926 
L 419.626618 182.787651 
L 420.416686 180.082031 
L 420.824888 181.642812 
L 420.827522 179.507066 
L 420.877559 180.495936 
L 420.880193 160.14534 
L 421.238357 189.617064 
L 421.875679 181.700178 
L 422.162737 183.073019 
L 422.165371 181.156047 
L 422.797426 181.173951 
L 445.79193 181.167928 
L 445.79193 181.167395 
L 446.661006 150.695838 
L 446.797073 159.930399 
L 447.411571 164.896088 
L 447.187718 130.225243 
L 447.670538 151.285597 
L 448.61862 102.899822 
L 447.999733 161.572141 
L 448.666902 147.681088 
L 449.044379 93.639245 
L 449.255064 162.565578 
L 449.663266 149.455455 
L 450.650852 166.320231 
L 449.895897 119.298144 
L 450.65963 151.420731 
L 451.366303 168.863324 
L 450.813255 116.938735 
L 451.655994 162.391439 
L 452.134425 125.681612 
L 451.708666 165.76289 
L 452.656748 145.591759 
L 453.372199 168.209031 
L 452.981554 132.099519 
L 453.661891 166.680113 
L 454.614362 137.173577 
L 453.916468 169.541088 
L 454.658255 162.503214 
L 454.759208 139.020526 
L 454.710926 165.76405 
L 454.772376 154.807117 
" clip-path="url(#p1ea42ca8e9)" style="fill: none; stroke: #ff0000; stroke-linecap: square"/>
   </g>
   <g id="Kashiwagi.dat">
    <path d="M 49.014704 180.99903 
L 58.934014 181.873651 
L 59.925552 143.040842 
L 60.173545 137.444594 
L 60.421538 154.411149 
L 60.421538 140.940843 
L 62.156615 162.107396 
L 63.148593 162.457396 
L 63.398781 161.582959 
L 64.140565 163.681833 
L 65.878716 164.556271 
L 66.870693 161.582959 
L 68.358657 157.034837 
L 69.596427 157.384835 
L 70.588404 149.688214 
L 73.318527 149.863026 
L 74.060317 153.011524 
L 75.302477 153.536337 
L 77.036238 169.454394 
L 77.286426 172.602892 
L 78.028215 171.203268 
L 78.278403 161.582959 
L 78.278403 135.168659 
L 78.774389 154.935962 
L 79.020187 150.213027 
L 79.020187 155.635587 
L 79.766367 155.810399 
L 81.745926 152.836712 
L 81.996114 154.06115 
L 81.996114 155.110774 
L 83.233889 155.285586 
L 85.713825 159.658522 
L 89.185737 162.107396 
L 90.427903 161.757771 
L 90.427903 160.708148 
L 91.419875 163.856646 
L 93.403824 169.978831 
L 95.387773 179.424739 
L 96.875737 180.99903 
L 123.904848 180.824109 
L 124.651033 137.092722 
L 125.147014 132.020536 
L 126.134601 158.434086 
L 126.880775 161.582959 
L 127.126573 162.982208 
L 128.118556 161.932583 
L 130.1025 165.081083 
L 136.800527 149.513402 
L 137.542316 152.311899 
L 138.534288 153.536337 
L 139.280462 152.486714 
L 139.280462 144.790465 
L 139.280462 159.48371 
L 139.280462 159.48371 
L 140.518243 152.836712 
L 140.518243 157.384835 
L 140.518243 180.124439 
L 140.022252 134.644596 
L 141.264417 171.378455 
L 141.760398 141.292715 
L 142.256389 157.909273 
L 143.248361 163.157021 
L 143.744352 161.058146 
L 143.99015 156.335212 
L 144.240344 147.588965 
L 145.974105 152.311899 
L 148.704223 154.760775 
L 150.192186 159.48371 
L 152.672122 161.932583 
L 154.160085 164.206646 
L 156.885829 167.005519 
L 159.365764 172.602892 
L 161.10391 179.424739 
L 162.837672 180.99903 
L 189.12501 180.99903 
L 188.629019 172.952517 
L 190.116982 134.468662 
L 190.858771 147.938966 
L 192.100936 163.681833 
L 193.338707 161.232958 
L 193.58891 162.632209 
L 194.330679 164.206646 
L 195.818652 163.331833 
L 197.060807 159.48371 
L 198.54876 156.1604 
L 200.282532 151.087464 
L 202.266476 150.737838 
L 204.004622 153.536337 
L 204.500613 151.437463 
L 204.25042 155.635587 
L 204.25042 156.510024 
L 206.234385 153.711524 
L 205.988587 136.920531 
L 205.988587 133.244597 
L 205.738394 181.348872 
L 206.730376 166.305519 
L 209.956475 153.186713 
L 210.698265 151.962275 
L 211.194256 153.011524 
L 212.436411 154.760775 
L 213.1782 156.684836 
L 217.146109 161.232958 
L 218.383869 162.457396 
L 223.593933 171.203268 
L 226.815657 180.99903 
L 252.857208 181.173951 
L 253.598976 179.774589 
L 254.590959 157.559647 
L 255.582941 148.288964 
L 255.582941 156.510024 
L 256.078933 160.358522 
L 257.566885 162.807396 
L 258.558868 161.232958 
L 258.558868 161.058146 
L 259.054838 164.381458 
L 259.55083 164.206646 
L 261.284601 162.282583 
L 266.494665 149.513402 
L 268.47861 155.285586 
L 270.958545 157.734461 
L 271.950527 160.358522 
L 272.196325 160.708148 
L 272.942489 160.183335 
L 273.684278 155.810399 
L 274.676261 154.411149 
L 276.164214 152.6619 
L 276.414407 153.886338 
L 277.652187 154.760775 
L 278.148179 154.760775 
L 279.14014 157.384835 
L 280.382316 159.658522 
L 287.075938 167.879956 
L 288.814105 173.302517 
L 292.035808 180.99903 
L 319.064946 180.824109 
L 320.056908 139.368652 
L 321.299084 161.232958 
L 322.291045 163.507021 
L 323.283028 161.932583 
L 323.528826 163.331833 
L 324.520808 166.305519 
L 330.472641 151.087464 
L 331.714816 150.912652 
L 333.944559 154.411149 
L 335.682705 158.784085 
L 337.170678 163.681833 
L 338.904429 154.585961 
L 339.400421 152.486714 
L 340.642596 151.962275 
L 342.376347 156.1604 
L 345.848265 161.232958 
L 346.344256 162.282583 
L 349.320183 163.331833 
L 351.549925 168.404769 
L 353.784062 173.652517 
L 354.776045 177.15064 
L 356.013805 180.99903 
L 362.215851 181.348872 
L 366.679731 180.299364 
L 366.679731 176.801015 
L 367.175722 179.949514 
L 374.861347 180.299364 
L 383.047359 180.299364 
L 383.047359 179.949514 
L 384.039299 160.183335 
L 384.039299 146.189715 
L 383.789148 143.040842 
L 384.781088 142.692714 
L 384.781088 134.996468 
L 385.773071 157.209649 
L 386.023264 160.008523 
L 386.519256 162.107396 
L 390.236951 164.206646 
L 390.97874 161.058146 
L 394.204881 152.486714 
L 394.94667 150.387839 
L 395.196821 150.562651 
L 397.426584 152.6619 
L 400.156734 161.232958 
L 402.386455 162.282583 
L 402.636648 161.582959 
L 403.628631 157.734461 
L 404.620613 153.536337 
L 406.108545 153.361525 
L 406.604537 155.4604 
L 408.338308 156.1604 
L 410.572467 160.358522 
L 414.786153 163.157021 
L 419.500226 177.15064 
L 419.996217 180.124439 
L 421.484191 181.523793 
L 434.871434 181.873651 
L 448.017316 181.523793 
L 449.009299 179.774589 
L 448.513308 176.801015 
L 448.513308 170.853642 
L 449.505248 137.268656 
L 450.993222 161.058146 
L 454.96111 165.256269 
L 458.187251 157.734461 
L 458.933436 151.437463 
L 460.162426 149.688214 
L 462.400937 149.513402 
L 463.629928 151.612277 
L 465.122296 157.559647 
L 466.351286 167.529957 
L 467.097471 170.853642 
L 468.106992 166.830332 
L 468.37033 151.087464 
L 469.335983 153.361525 
L 469.818788 152.137087 
L 471.091689 150.562651 
L 471.574536 154.235962 
L 472.584058 155.110774 
L 473.549669 158.958897 
L 475.524844 162.282583 
L 476.534407 163.157021 
L 477.017212 160.88296 
L 477.28055 158.784085 
L 477.763397 163.681833 
L 478.026734 164.731458 
L 479.519103 162.807396 
L 484.698442 177.850452 
L 485.444627 180.649176 
L 486.454149 177.850452 
L 486.717486 180.99903 
L 494.398715 181.348872 
L 505.064641 181.173951 
L 505.064641 181.173951 
" clip-path="url(#p1ea42ca8e9)" style="fill: none; stroke-dasharray: 5.55,2.4; stroke-dashoffset: 0; stroke: #000000; stroke-width: 1.5"/>
   </g>
   <g id="patch_3">
    <path d="M 50.77524 196.147195 
L 50.77524 53.901379 
" style="fill: none; stroke: #000000; stroke-width: 1.7; stroke-linejoin: miter; stroke-linecap: square"/>
   </g>
   <g id="patch_4">
    <path d="M 50.77524 196.147195 
L 500.675355 196.147195 
" style="fill: none; stroke: #000000; stroke-width: 1.7; stroke-linejoin: miter; stroke-linecap: square"/>
   </g>
   <g id="x_title_text">
    <!-- $t \, \mathrm{[s]}$ -->
    <g transform="translate(485.336086 219.709127)">
     <text>
      <tspan style="font: italic 15px 'Times New Roman'" x="0" y="-0.84375">t</tspan>
      <tspan style="font: 15px 'Times New Roman'" x="5.972936 10.968054 16.805456" y="-0.84375">[s]</tspan>
     </text>
    </g>
   </g>
   <g id="y_title_text">
    <!-- $\mathrm{Pressure \, [N/m^2]}$ -->
    <g transform="translate(3.00024 45.319541)">
     <text>
      <tspan style="font: 15px 'Times New Roman'" x="0 8.342285 13.337402 19.995117 25.83252 31.669922 39.169922 44.165039 52.62821 57.623327 68.455847 72.623327 90.410292" y="-0.8846875000000018">Pressure[N/m]</tspan>
      <tspan style="font: 10.5px 'Times New Roman'" x="84.516229" y="-9.9015625">2</tspan>
     </text>
    </g>
   </g>
   <g id="legend_1">
    <g id="patch_5">
     <path d="M 384.965355 46.789088 
L 500.675355 46.789088 
L 500.675355 2.999713 
L 384.965355 2.999713 
z
" style="fill: #ffffff; stroke: #000000; stroke-linejoin: miter"/>
    </g>
    <g id="line2d_42">
     <path d="M 390.565355 13.499713 
L 404.565355 13.499713 
L 418.565355 13.499713 
" style="fill: none; stroke: #ff0000; stroke-linecap: square"/>
    </g>
    <g id="text_10">
     <text style="font: 14px 'Times New Roman'; text-anchor: start" x="429.765355" y="18.399713" transform="rotate(-0 429.765355 18.399713)">Numerical</text>
    </g>
    <g id="line2d_43">
     <path d="M 390.565355 33.2944 
L 404.565355 33.2944 
L 418.565355 33.2944 
" style="fill: none; stroke-dasharray: 5.55,2.4; stroke-dashoffset: 0; stroke: #000000; stroke-width: 1.5"/>
    </g>
    <g id="text_11">
     <text style="font: 14px 'Times New Roman'; text-anchor: start" x="429.765355" y="38.1944" transform="rotate(-0 429.765355 38.1944)">Experiment</text>
    </g>
   </g>
  </g>
 </g>
 <defs>
  <clipPath id="p1ea42ca8e9">
   <rect x="50.77524" y="53.901379" width="449.900115" height="142.245816"/>
  </clipPath>
 </defs>
</svg>
