<?xml version="1.0" encoding="utf-8" standalone="no"?>
<!DOCTYPE svg PUBLIC "-//W3C//DTD SVG 1.1//EN"
  "http://www.w3.org/Graphics/SVG/1.1/DTD/svg11.dtd">
<svg xmlns:xlink="http://www.w3.org/1999/xlink" width="510.23622pt" height="283.464567pt" viewBox="0 0 510.23622 283.464567" xmlns="http://www.w3.org/2000/svg" version="1.1">
 <metadata>
  <rdf:RDF xmlns:dc="http://purl.org/dc/elements/1.1/" xmlns:cc="http://creativecommons.org/ns#" xmlns:rdf="http://www.w3.org/1999/02/22-rdf-syntax-ns#">
   <cc:Work>
    <dc:type rdf:resource="http://purl.org/dc/dcmitype/StillImage"/>
    <dc:date>2024-12-07T23:48:45.135988</dc:date>
    <dc:format>image/svg+xml</dc:format>
    <dc:creator>
     <cc:Agent>
      <dc:title>Matplotlib v3.9.2, https://matplotlib.org/</dc:title>
     </cc:Agent>
    </dc:creator>
   </cc:Work>
  </rdf:RDF>
 </metadata>
 <defs>
  <style type="text/css">*{stroke-linejoin: round; stroke-linecap: butt}</style>
 </defs>
 <g id="figure_1">
  <g id="patch_1">
   <path d="M 0 283.464567 
L 510.23622 283.464567 
L 510.23622 0 
L 0 0 
z
" style="fill: #ffffff"/>
  </g>
  <g id="axes_1">
   <g id="patch_2">
    <path d="M 48.356024 252.840108 
L 500.700185 252.840108 
L 500.700185 51.3031 
L 48.356024 51.3031 
z
" style="fill: #ffffff"/>
   </g>
   <g id="matplotlib.axis_1">
    <g id="xtick_1">
     <g id="line2d_1">
      <defs>
       <path id="mdf4735cab3" d="M 0 0 
L 0 10 
" style="stroke: #000000; stroke-width: 1.7"/>
      </defs>
      <g>
       <use xlink:href="#mdf4735cab3" x="103.519946" y="252.840108" style="stroke: #000000; stroke-width: 1.7"/>
      </g>
     </g>
     <g id="text_1">
      <text style="font: 15px 'Times New Roman'; text-anchor: middle" x="103.519946" y="277.255733" transform="rotate(-0 103.519946 277.255733)">2.0</text>
     </g>
    </g>
    <g id="xtick_2">
     <g id="line2d_2">
      <g>
       <use xlink:href="#mdf4735cab3" x="191.782222" y="252.840108" style="stroke: #000000; stroke-width: 1.7"/>
      </g>
     </g>
     <g id="text_2">
      <text style="font: 15px 'Times New Roman'; text-anchor: middle" x="191.782222" y="277.255733" transform="rotate(-0 191.782222 277.255733)">4.0</text>
     </g>
    </g>
    <g id="xtick_3">
     <g id="line2d_3">
      <g>
       <use xlink:href="#mdf4735cab3" x="280.044497" y="252.840108" style="stroke: #000000; stroke-width: 1.7"/>
      </g>
     </g>
     <g id="text_3">
      <text style="font: 15px 'Times New Roman'; text-anchor: middle" x="280.044497" y="277.255733" transform="rotate(-0 280.044497 277.255733)">6.0</text>
     </g>
    </g>
    <g id="xtick_4">
     <g id="line2d_4">
      <g>
       <use xlink:href="#mdf4735cab3" x="368.306772" y="252.840108" style="stroke: #000000; stroke-width: 1.7"/>
      </g>
     </g>
     <g id="text_4">
      <text style="font: 15px 'Times New Roman'; text-anchor: middle" x="368.306772" y="277.255733" transform="rotate(-0 368.306772 277.255733)">8.0</text>
     </g>
    </g>
    <g id="xtick_5">
     <g id="line2d_5">
      <g>
       <use xlink:href="#mdf4735cab3" x="456.569047" y="252.840108" style="stroke: #000000; stroke-width: 1.7"/>
      </g>
     </g>
     <g id="text_5">
      <text style="font: 15px 'Times New Roman'; text-anchor: middle" x="456.569047" y="277.255733" transform="rotate(-0 456.569047 277.255733)">10.0</text>
     </g>
    </g>
    <g id="xtick_6">
     <g id="line2d_6">
      <defs>
       <path id="mde7a710683" d="M 0 0 
L 0 5 
" style="stroke: #000000; stroke-width: 0.75"/>
      </defs>
      <g>
       <use xlink:href="#mde7a710683" x="59.388809" y="252.840108" style="stroke: #000000; stroke-width: 0.75"/>
      </g>
     </g>
    </g>
    <g id="xtick_7">
     <g id="line2d_7">
      <g>
       <use xlink:href="#mde7a710683" x="81.454378" y="252.840108" style="stroke: #000000; stroke-width: 0.75"/>
      </g>
     </g>
    </g>
    <g id="xtick_8">
     <g id="line2d_8">
      <g>
       <use xlink:href="#mde7a710683" x="125.585515" y="252.840108" style="stroke: #000000; stroke-width: 0.75"/>
      </g>
     </g>
    </g>
    <g id="xtick_9">
     <g id="line2d_9">
      <g>
       <use xlink:href="#mde7a710683" x="147.651084" y="252.840108" style="stroke: #000000; stroke-width: 0.75"/>
      </g>
     </g>
    </g>
    <g id="xtick_10">
     <g id="line2d_10">
      <g>
       <use xlink:href="#mde7a710683" x="169.716653" y="252.840108" style="stroke: #000000; stroke-width: 0.75"/>
      </g>
     </g>
    </g>
    <g id="xtick_11">
     <g id="line2d_11">
      <g>
       <use xlink:href="#mde7a710683" x="213.84779" y="252.840108" style="stroke: #000000; stroke-width: 0.75"/>
      </g>
     </g>
    </g>
    <g id="xtick_12">
     <g id="line2d_12">
      <g>
       <use xlink:href="#mde7a710683" x="235.913359" y="252.840108" style="stroke: #000000; stroke-width: 0.75"/>
      </g>
     </g>
    </g>
    <g id="xtick_13">
     <g id="line2d_13">
      <g>
       <use xlink:href="#mde7a710683" x="257.978928" y="252.840108" style="stroke: #000000; stroke-width: 0.75"/>
      </g>
     </g>
    </g>
    <g id="xtick_14">
     <g id="line2d_14">
      <g>
       <use xlink:href="#mde7a710683" x="302.110066" y="252.840108" style="stroke: #000000; stroke-width: 0.75"/>
      </g>
     </g>
    </g>
    <g id="xtick_15">
     <g id="line2d_15">
      <g>
       <use xlink:href="#mde7a710683" x="324.175634" y="252.840108" style="stroke: #000000; stroke-width: 0.75"/>
      </g>
     </g>
    </g>
    <g id="xtick_16">
     <g id="line2d_16">
      <g>
       <use xlink:href="#mde7a710683" x="346.241203" y="252.840108" style="stroke: #000000; stroke-width: 0.75"/>
      </g>
     </g>
    </g>
    <g id="xtick_17">
     <g id="line2d_17">
      <g>
       <use xlink:href="#mde7a710683" x="390.372341" y="252.840108" style="stroke: #000000; stroke-width: 0.75"/>
      </g>
     </g>
    </g>
    <g id="xtick_18">
     <g id="line2d_18">
      <g>
       <use xlink:href="#mde7a710683" x="412.43791" y="252.840108" style="stroke: #000000; stroke-width: 0.75"/>
      </g>
     </g>
    </g>
    <g id="xtick_19">
     <g id="line2d_19">
      <g>
       <use xlink:href="#mde7a710683" x="434.503478" y="252.840108" style="stroke: #000000; stroke-width: 0.75"/>
      </g>
     </g>
    </g>
    <g id="xtick_20">
     <g id="line2d_20">
      <g>
       <use xlink:href="#mde7a710683" x="478.634616" y="252.840108" style="stroke: #000000; stroke-width: 0.75"/>
      </g>
     </g>
    </g>
    <g id="xtick_21">
     <g id="line2d_21">
      <g>
       <use xlink:href="#mde7a710683" x="500.700185" y="252.840108" style="stroke: #000000; stroke-width: 0.75"/>
      </g>
     </g>
    </g>
   </g>
   <g id="matplotlib.axis_2">
    <g id="ytick_1">
     <g id="line2d_22">
      <defs>
       <path id="m4fa55e1d23" d="M 0 0 
L -10 0 
" style="stroke: #000000; stroke-width: 1.7"/>
      </defs>
      <g>
       <use xlink:href="#m4fa55e1d23" x="48.356024" y="231.625686" style="stroke: #000000; stroke-width: 1.7"/>
      </g>
     </g>
     <g id="text_6">
      <text style="font: 15px 'Times New Roman'; text-anchor: end" x="34.356024" y="236.833499" transform="rotate(-0 34.356024 236.833499)">0</text>
     </g>
    </g>
    <g id="ytick_2">
     <g id="line2d_23">
      <g>
       <use xlink:href="#m4fa55e1d23" x="48.356024" y="178.589632" style="stroke: #000000; stroke-width: 1.7"/>
      </g>
     </g>
     <g id="text_7">
      <text style="font: 15px 'Times New Roman'; text-anchor: end" x="34.356024" y="183.797444" transform="rotate(-0 34.356024 183.797444)">1000</text>
     </g>
    </g>
    <g id="ytick_3">
     <g id="line2d_24">
      <g>
       <use xlink:href="#m4fa55e1d23" x="48.356024" y="125.553577" style="stroke: #000000; stroke-width: 1.7"/>
      </g>
     </g>
     <g id="text_8">
      <text style="font: 15px 'Times New Roman'; text-anchor: end" x="34.356024" y="130.761389" transform="rotate(-0 34.356024 130.761389)">2000</text>
     </g>
    </g>
    <g id="ytick_4">
     <g id="line2d_25">
      <g>
       <use xlink:href="#m4fa55e1d23" x="48.356024" y="72.517522" style="stroke: #000000; stroke-width: 1.7"/>
      </g>
     </g>
     <g id="text_9">
      <text style="font: 15px 'Times New Roman'; text-anchor: end" x="34.356024" y="77.725335" transform="rotate(-0 34.356024 77.725335)">3000</text>
     </g>
    </g>
    <g id="ytick_5">
     <g id="line2d_26">
      <defs>
       <path id="m2b13486ca6" d="M 0 0 
L -5 0 
" style="stroke: #000000; stroke-width: 0.75"/>
      </defs>
      <g>
       <use xlink:href="#m2b13486ca6" x="48.356024" y="252.840108" style="stroke: #000000; stroke-width: 0.75"/>
      </g>
     </g>
    </g>
    <g id="ytick_6">
     <g id="line2d_27">
      <g>
       <use xlink:href="#m2b13486ca6" x="48.356024" y="242.232897" style="stroke: #000000; stroke-width: 0.75"/>
      </g>
     </g>
    </g>
    <g id="ytick_7">
     <g id="line2d_28">
      <g>
       <use xlink:href="#m2b13486ca6" x="48.356024" y="221.018475" style="stroke: #000000; stroke-width: 0.75"/>
      </g>
     </g>
    </g>
    <g id="ytick_8">
     <g id="line2d_29">
      <g>
       <use xlink:href="#m2b13486ca6" x="48.356024" y="210.411264" style="stroke: #000000; stroke-width: 0.75"/>
      </g>
     </g>
    </g>
    <g id="ytick_9">
     <g id="line2d_30">
      <g>
       <use xlink:href="#m2b13486ca6" x="48.356024" y="199.804053" style="stroke: #000000; stroke-width: 0.75"/>
      </g>
     </g>
    </g>
    <g id="ytick_10">
     <g id="line2d_31">
      <g>
       <use xlink:href="#m2b13486ca6" x="48.356024" y="189.196843" style="stroke: #000000; stroke-width: 0.75"/>
      </g>
     </g>
    </g>
    <g id="ytick_11">
     <g id="line2d_32">
      <g>
       <use xlink:href="#m2b13486ca6" x="48.356024" y="167.982421" style="stroke: #000000; stroke-width: 0.75"/>
      </g>
     </g>
    </g>
    <g id="ytick_12">
     <g id="line2d_33">
      <g>
       <use xlink:href="#m2b13486ca6" x="48.356024" y="157.37521" style="stroke: #000000; stroke-width: 0.75"/>
      </g>
     </g>
    </g>
    <g id="ytick_13">
     <g id="line2d_34">
      <g>
       <use xlink:href="#m2b13486ca6" x="48.356024" y="146.767999" style="stroke: #000000; stroke-width: 0.75"/>
      </g>
     </g>
    </g>
    <g id="ytick_14">
     <g id="line2d_35">
      <g>
       <use xlink:href="#m2b13486ca6" x="48.356024" y="136.160788" style="stroke: #000000; stroke-width: 0.75"/>
      </g>
     </g>
    </g>
    <g id="ytick_15">
     <g id="line2d_36">
      <g>
       <use xlink:href="#m2b13486ca6" x="48.356024" y="114.946366" style="stroke: #000000; stroke-width: 0.75"/>
      </g>
     </g>
    </g>
    <g id="ytick_16">
     <g id="line2d_37">
      <g>
       <use xlink:href="#m2b13486ca6" x="48.356024" y="104.339155" style="stroke: #000000; stroke-width: 0.75"/>
      </g>
     </g>
    </g>
    <g id="ytick_17">
     <g id="line2d_38">
      <g>
       <use xlink:href="#m2b13486ca6" x="48.356024" y="93.731944" style="stroke: #000000; stroke-width: 0.75"/>
      </g>
     </g>
    </g>
    <g id="ytick_18">
     <g id="line2d_39">
      <g>
       <use xlink:href="#m2b13486ca6" x="48.356024" y="83.124733" style="stroke: #000000; stroke-width: 0.75"/>
      </g>
     </g>
    </g>
    <g id="ytick_19">
     <g id="line2d_40">
      <g>
       <use xlink:href="#m2b13486ca6" x="48.356024" y="61.910311" style="stroke: #000000; stroke-width: 0.75"/>
      </g>
     </g>
    </g>
    <g id="ytick_20">
     <g id="line2d_41">
      <g>
       <use xlink:href="#m2b13486ca6" x="48.356024" y="51.3031" style="stroke: #000000; stroke-width: 0.75"/>
      </g>
     </g>
    </g>
   </g>
   <g id="output_sample.dat">
    <path d="M 48.354259 231.625686 
L 56.769185 231.578134 
L 56.771832 185.507973 
L 57.767431 220.345289 
L 57.801853 221.300097 
L 57.849515 218.641187 
L 58.67565 132.982867 
L 58.365849 224.008701 
L 58.847761 213.113398 
L 59.048999 217.063524 
L 58.988098 202.557951 
L 59.091365 211.041174 
L 59.554742 151.646255 
L 60.092259 174.257647 
L 61.098449 215.500074 
L 60.894563 87.93086 
L 61.109041 208.808515 
L 61.111688 153.160965 
L 61.161998 219.00931 
L 62.109935 188.497297 
L 62.843394 216.500175 
L 62.697762 158.953032 
L 62.93607 198.506208 
L 63.78074 148.692677 
L 63.902542 220.050302 
L 63.934316 194.055529 
L 64.019048 127.517502 
L 64.503608 210.484666 
L 64.932562 175.27806 
L 65.49391 204.919752 
L 65.043773 128.665202 
L 65.928161 185.747802 
L 66.023484 155.163076 
L 66.67486 202.853786 
L 66.929055 174.57162 
L 67.922006 204.590345 
L 67.757838 161.638248 
L 67.929949 183.411033 
L 68.692535 205.123994 
L 68.703127 158.526092 
L 68.925548 181.298819 
L 69.862893 142.779157 
L 68.944083 204.181755 
L 69.923794 180.176789 
L 70.085314 200.806064 
L 70.887618 132.938317 
L 70.919393 179.827016 
L 71.231841 126.490194 
L 71.271559 198.729225 
L 71.912343 190.835126 
L 72.25127 124.390496 
L 72.298932 196.257161 
L 72.910589 178.338771 
L 73.233629 200.287212 
L 73.869118 135.882349 
L 73.908836 182.540287 
L 74.06506 129.7063 
L 74.390748 198.023686 
L 74.907082 182.688417 
L 74.915026 179.261492 
L 74.917674 182.736574 
L 74.965335 182.039362 
L 74.978575 100.352965 
L 75.659077 200.809776 
L 75.963582 192.432731 
L 76.20189 157.746992 
L 76.551408 199.87422 
L 76.95918 172.577995 
L 77.078334 200.606118 
L 77.920356 171.742147 
L 77.960074 197.410855 
L 78.010384 181.059839 
L 78.674999 203.229122 
L 78.960968 192.93021 
L 79.141023 203.752376 
L 79.554091 191.691712 
L 79.961863 201.295268 
L 80.186931 195.226087 
L 80.435831 204.868997 
L 80.547041 200.69559 
L 81.550584 207.835091 
L 81.648555 207.740316 
L 82.405845 209.172501 
L 82.94601 206.793198 
L 82.938067 213.535088 
L 83.401443 212.028811 
L 84.140199 214.789391 
L 84.31231 213.140394 
L 84.314958 210.835129 
L 84.839236 216.15369 
L 85.307909 215.627891 
L 85.474724 214.991617 
L 86.830433 220.284403 
L 86.833081 216.419825 
L 87.7413 222.465829 
L 87.828679 220.538817 
L 88.592589 225.453456 
L 88.307943 218.013877 
L 88.961084 222.623346 
L 89.38386 216.309722 
L 89.432846 226.680493 
L 89.958448 223.566646 
L 90.588641 227.157409 
L 90.819005 222.832361 
L 91.21089 225.443379 
L 91.356522 224.560806 
L 92.36536 228.199775 
L 92.836681 230.225662 
L 92.436853 226.128924 
L 93.453634 229.19507 
L 93.726364 225.117208 
L 94.314191 231.780253 
L 94.449232 231.568363 
L 94.732554 231.266884 
L 94.751089 232.303837 
L 95.052946 228.539444 
L 95.65666 238.261292 
L 95.749336 233.361418 
L 96.355698 247.296674 
L 96.358345 231.623473 
L 96.631076 231.625931 
L 117.019661 231.625686 
L 117.020829 -1 
M 117.034122 -1 
L 117.174755 284.464567 
M 117.175961 284.464567 
L 117.376657 -1 
M 117.38125 -1 
L 117.393011 30.552744 
L 117.399648 -1 
M 117.406594 -1 
L 117.49363 211.129107 
L 117.848686 -1 
M 117.860087 -1 
L 118.423032 217.817749 
L 118.870521 213.810239 
L 118.910239 210.085252 
L 118.981732 106.657361 
L 119.911134 199.545131 
L 120.763747 166.948748 
L 120.472482 208.533788 
L 120.904084 200.14184 
L 120.90938 200.123861 
L 120.962337 200.954087 
L 121.481319 158.966291 
L 121.711684 207.763864 
L 121.960584 199.46929 
L 122.725818 217.260977 
L 122.59872 167.467971 
L 122.953534 193.134557 
L 122.966774 183.679502 
L 123.056801 213.749248 
L 123.949133 201.893886 
L 124.672001 209.393821 
L 124.494594 164.917467 
L 124.950027 203.543042 
L 125.747035 181.216985 
L 125.789401 209.062292 
L 125.950921 199.717552 
L 126.440777 209.051632 
L 126.909449 169.36401 
L 126.949167 200.140514 
L 127.910344 219.056831 
L 127.624374 178.811694 
L 127.931527 218.188843 
L 128.405495 159.279204 
L 128.159243 220.090185 
L 128.932421 183.636861 
L 129.538783 221.015399 
L 129.247517 157.556593 
L 129.933315 195.880605 
L 130.018047 216.475566 
L 130.049821 209.520418 
L 130.171623 137.670194 
L 130.298721 218.384758 
L 131.050715 186.609956 
L 131.545867 218.769959 
L 131.879498 167.888547 
L 132.048962 186.343927 
L 132.093975 205.185622 
L 132.618253 152.841688 
L 133.026025 190.2154 
L 133.092222 92.790024 
L 133.425853 198.045166 
L 134.029567 153.005039 
L 134.612098 214.037764 
L 134.270523 121.732329 
L 135.030461 176.435307 
L 135.658006 211.982033 
L 135.811582 163.95062 
L 136.031356 187.90674 
L 136.661548 210.200287 
L 136.124031 174.561543 
L 137.053433 203.410929 
L 137.10639 204.730201 
L 137.397656 194.995911 
L 137.402951 196.855514 
L 137.537993 185.866125 
L 138.395902 209.028667 
L 138.39855 204.854677 
L 138.554774 212.06827 
L 139.187615 191.946656 
L 139.396796 204.844547 
L 140.463887 217.179673 
L 139.624513 177.728856 
L 140.493014 216.087713 
L 140.773688 173.098278 
L 141.496556 212.848059 
L 141.530978 213.126976 
L 141.782525 204.748923 
L 141.793117 207.073069 
L 142.373 164.263002 
L 142.470971 220.594081 
L 142.794011 203.10576 
L 143.090572 207.25249 
L 142.868151 197.995418 
L 143.699582 201.389354 
L 144.300648 185.935496 
L 144.139128 210.394505 
L 144.644871 202.696693 
L 145.275064 209.122382 
L 144.824926 192.698919 
L 145.645765 205.099226 
L 145.674892 205.253561 
L 145.892017 197.017486 
L 145.754328 207.652276 
L 146.673138 205.081565 
L 146.710208 201.663922 
L 147.038544 206.77612 
L 147.065023 206.227303 
L 147.965298 213.124059 
L 147.393358 196.953578 
L 148.063269 206.25817 
L 148.222141 212.882055 
L 148.764954 199.808615 
L 149.04298 204.188067 
L 149.546075 198.717133 
L 149.556667 211.158967 
L 150.035931 207.659436 
L 150.729672 215.124738 
L 150.313957 195.427996 
L 150.941502 212.582454 
L 151.741158 187.228781 
L 151.868256 219.659851 
L 151.939748 198.259007 
L 152.366055 223.376299 
L 152.167465 183.954016 
L 152.940642 209.576901 
L 152.951234 209.464094 
L 152.996247 210.848865 
L 153.006839 209.920257 
L 153.732355 214.344047 
L 153.803847 197.639493 
L 154.005085 210.505563 
L 154.304294 215.282308 
L 154.285759 209.803736 
L 154.349308 211.325288 
L 154.852403 192.688736 
L 155.003332 223.205364 
L 155.347554 214.02721 
L 155.408455 213.796397 
L 155.456117 213.334134 
L 156.176337 198.775154 
L 156.451716 220.724284 
L 156.819769 220.939823 
L 156.833009 220.598324 
L 156.89391 219.081917 
L 157.749171 227.169724 
L 157.820663 225.737836 
L 158.043084 230.949169 
L 158.403194 223.946967 
L 158.916881 230.414396 
L 158.956599 230.430885 
L 159.186963 229.251994 
L 159.266399 229.248022 
L 159.30347 229.297849 
L 159.306118 222.58813 
L 159.785382 237.434513 
L 160.301716 230.417514 
L 160.317603 229.541847 
L 160.728023 233.837194 
L 161.329089 246.802059 
L 161.33968 231.627267 
L 161.644185 231.625686 
L 183.671801 231.62489 
L 184.33112 33.971448 
L 184.672695 155.883836 
L 184.70447 124.843424 
L 184.74154 148.300741 
L 184.85275 50.624769 
L 185.49883 221.199116 
L 185.739786 187.747579 
L 185.800687 193.976452 
L 185.898658 145.826078 
L 185.901306 133.482997 
L 186.833356 210.035027 
L 186.886313 192.977146 
L 187.810419 213.849963 
L 187.495323 147.155692 
L 187.887207 197.602262 
L 188.091093 213.347181 
L 187.929573 177.870993 
L 188.874862 195.230012 
L 188.885454 195.161595 
L 189.798968 181.5937 
L 189.655983 214.561813 
L 189.881052 193.024455 
L 189.979023 213.374283 
L 190.723074 170.105984 
L 190.881946 196.673388 
L 191.062002 173.057441 
L 191.247352 211.657771 
L 191.856362 197.054505 
L 192.759285 209.519039 
L 192.820186 150.883597 
L 192.846665 190.082969 
L 193.148522 141.970888 
L 193.331225 210.964271 
L 193.844911 189.154838 
L 193.950826 204.399893 
L 194.173247 161.297226 
L 194.509526 194.848205 
L 194.615441 128.498139 
L 195.100001 201.667953 
L 195.507772 183.475578 
L 196.453061 206.074771 
L 196.484836 119.801817 
L 196.503371 193.831716 
L 196.773453 133.630438 
L 196.638412 207.480333 
L 197.504265 174.194534 
L 198.362174 206.477845 
L 198.438962 145.555064 
L 198.489272 165.240457 
L 199.426617 121.338271 
L 198.807016 205.235317 
L 199.48487 132.164521 
L 200.252752 199.254388 
L 200.485765 195.756607 
L 200.649932 156.703243 
L 200.875001 210.685673 
L 201.484011 193.600691 
L 202.357807 202.535994 
L 201.690545 185.946369 
L 202.373695 198.073328 
L 202.376343 181.083652 
L 202.897973 203.316737 
L 203.374589 188.598543 
L 204.211315 207.444852 
L 203.623489 150.920191 
L 204.370187 204.055689 
L 205.243984 144.673075 
L 205.167196 207.558243 
L 205.373729 169.985062 
L 205.492884 206.651008 
L 206.014514 114.990916 
L 206.371976 196.080975 
L 206.906845 113.191933 
L 207.113379 210.825423 
L 207.37287 179.638685 
L 207.849486 131.549833 
L 208.230779 208.761949 
L 208.365821 174.57162 
L 208.646495 210.314155 
L 208.810662 121.328725 
L 209.364067 175.817437 
L 209.793022 211.169256 
L 209.488517 149.573606 
L 210.367609 188.981304 
L 211.132843 155.336504 
L 211.159322 211.695055 
L 211.363207 188.229783 
L 211.424108 212.090227 
L 211.373799 153.782547 
L 212.361454 190.021394 
L 212.811591 207.213827 
L 212.769225 160.336743 
L 213.341165 194.362236 
L 213.386179 166.268826 
L 214.056089 205.749236 
L 214.342059 181.341938 
L 214.511523 209.687906 
L 214.395017 155.597441 
L 215.342953 185.961431 
L 215.891062 213.796078 
L 215.737486 167.968631 
L 216.354439 200.861645 
L 217.003167 182.942195 
L 217.079955 209.731289 
L 217.352685 198.788307 
L 217.956399 212.692133 
L 218.083497 157.023581 
L 218.345636 212.490702 
L 218.350932 195.846768 
L 218.372115 213.044929 
L 219.34653 204.337257 
L 219.685457 209.426756 
L 219.71988 208.532993 
L 219.722528 184.225667 
L 219.960836 218.090779 
L 220.718126 209.704665 
L 223.33422 235.856919 
L 223.704921 231.354619 
L 224.82497 234.853917 
L 224.827618 231.596097 
L 225.825864 231.625686 
L 247.948803 231.625686 
L 247.951451 190.758224 
L 248.036183 236.200762 
L 248.947049 231.625686 
L 249.135048 231.625686 
L 249.421945 -1 
M 249.475621 -1 
L 249.706988 209.122541 
L 250.480165 174.987423 
L 251.43075 206.215847 
L 250.567545 51.264914 
L 251.481059 193.011461 
L 252.331025 209.598858 
L 252.140379 138.213283 
L 252.38663 192.09574 
L 253.366342 150.487417 
L 253.233948 216.334013 
L 253.384877 160.683068 
L 253.474904 208.47985 
L 254.385771 184.423492 
L 254.629375 210.830461 
L 255.31782 151.039523 
L 255.384017 198.088496 
L 256.313419 147.073486 
L 256.069815 213.069856 
L 256.382264 197.012395 
L 256.940964 213.406582 
L 256.445812 148.813069 
L 257.282539 200.883761 
L 258.087491 150.328839 
L 257.406989 206.480975 
L 258.283433 190.034441 
L 258.918921 205.86093 
L 258.587938 137.416151 
L 259.122807 172.903106 
L 259.689451 135.598075 
L 260.065448 209.297295 
L 260.121054 174.416755 
L 260.72212 134.4875 
L 260.316996 212.8086 
L 261.116652 168.70159 
L 261.64093 206.337141 
L 261.564142 119.317598 
L 262.11225 173.035166 
L 262.403516 104.105266 
L 262.387629 209.437151 
L 263.110497 150.439685 
L 263.873083 201.364162 
L 263.910153 73.508766 
L 264.111391 179.097558 
L 264.900456 43.823956 
L 264.222601 200.689172 
L 265.112285 146.510774 
L 266.054926 199.300211 
L 265.138764 94.795847 
L 266.113179 191.713244 
L 266.139658 111.049807 
L 266.669232 206.073764 
L 267.114074 163.429275 
L 267.558915 207.273174 
L 267.278241 130.451457 
L 268.114968 189.978223 
L 269.004652 210.732769 
L 268.663076 174.919537 
L 269.078792 204.21066 
L 269.83873 139.653212 
L 269.738111 210.186445 
L 270.082334 165.562916 
L 270.084982 210.994502 
L 271.046158 148.665629 
L 271.083228 185.91529 
L 271.612802 209.944865 
L 271.125594 137.435775 
L 272.081474 183.629913 
L 272.552795 130.267421 
L 272.743441 206.409164 
L 273.071777 170.134093 
L 273.259776 208.142912 
L 273.831715 146.85816 
L 274.070023 194.614953 
L 274.541344 145.93109 
L 275.05503 212.99481 
L 275.070918 179.525718 
L 275.084157 210.115429 
L 275.351592 168.978968 
L 276.071812 201.252362 
L 276.138009 168.559983 
L 276.688765 212.031834 
L 277.070058 183.576665 
L 278.031234 211.718073 
L 277.708194 173.983981 
L 278.068305 200.223091 
L 278.526386 173.359746 
L 278.870609 213.195233 
L 279.069199 185.928814 
L 279.715279 214.909146 
L 279.087734 169.606915 
L 280.078037 199.587083 
L 280.729412 178.501592 
L 280.099219 209.136172 
L 281.047156 186.359997 
L 281.98715 212.954025 
L 281.84946 170.646422 
L 282.048051 196.391661 
L 282.050698 208.659377 
L 283.001283 182.585739 
L 283.038353 190.076392 
L 283.041001 162.978999 
L 283.477899 216.011341 
L 284.0366 203.656221 
L 284.094853 201.361775 
L 284.179584 205.308294 
L 284.574117 190.139877 
L 285.156648 217.02189 
L 285.175183 210.619484 
L 285.19107 217.466386 
L 285.206957 203.753648 
L 286.178725 215.748972 
L 286.207852 213.067999 
L 287.793925 226.592602 
L 288.757749 230.377727 
L 288.800115 230.376507 
L 289.112563 226.445655 
L 289.512391 234.866804 
L 289.782474 232.43595 
L 289.941346 228.183975 
L 290.915761 235.483121 
L 291.916656 231.625686 
L 314.042243 231.403644 
L 314.873673 72.601319 
L 315.045785 185.737937 
L 315.641555 204.449163 
L 315.199361 78.453317 
L 315.914286 169.661542 
L 315.922229 124.397391 
L 316.261156 206.73995 
L 316.909884 196.851536 
L 317.664526 207.809156 
L 317.460641 167.763912 
L 317.900187 197.085107 
L 318.615111 157.979821 
L 318.411225 210.259369 
L 318.890489 170.724385 
L 319.412119 210.044308 
L 319.817243 164.049797 
L 319.891384 197.509183 
L 320.680448 216.192619 
L 319.92051 145.310038 
L 320.88963 202.103591 
L 321.347711 178.253383 
L 320.937292 205.587211 
L 321.890524 196.780839 
L 322.319479 157.490298 
L 322.412154 209.875123 
L 322.846405 187.890724 
L 323.765215 209.814662 
L 323.762567 153.451072 
L 323.844651 183.862105 
L 324.42983 154.245552 
L 324.022058 205.099916 
L 324.82701 179.247385 
L 325.74582 208.474176 
L 325.743172 129.900942 
L 325.827904 194.436646 
L 326.217141 119.533454 
L 325.981481 207.226874 
L 326.826151 154.082201 
L 327.588737 205.427572 
L 327.776735 82.2088 
L 327.827045 175.923509 
L 327.866763 75.992975 
L 328.232169 203.658237 
L 328.804108 167.202791 
L 329.765284 208.30568 
L 328.8147 138.360723 
L 329.805002 191.271719 
L 329.990353 143.225721 
L 329.815594 207.102981 
L 330.803249 189.017262 
L 331.785608 203.205097 
L 331.351357 182.320559 
L 331.798847 193.40886 
L 332.791798 139.22415 
L 332.238393 207.580041 
L 332.802389 174.828845 
L 333.305484 210.479575 
L 332.921543 151.436763 
L 333.819171 191.184422 
L 334.126323 206.103941 
L 334.147506 179.175733 
L 334.150154 194.318853 
L 334.422885 135.677629 
L 334.504969 209.846961 
L 335.148401 184.604451 
L 335.685918 209.193504 
L 335.561468 122.629169 
L 336.149295 199.87125 
L 336.422025 94.962911 
L 337.017796 204.135826 
L 337.147541 169.865731 
L 337.420272 210.063136 
L 337.163428 122.99936 
L 338.148435 184.18589 
L 338.209336 205.498216 
L 338.286124 146.865055 
L 339.146682 189.193024 
L 339.917211 119.447536 
L 339.925155 206.465435 
L 340.044309 158.81673 
L 340.237603 209.665684 
L 340.195237 139.250138 
L 341.045203 198.952401 
L 341.069034 140.580282 
L 341.94283 212.314888 
L 342.048745 174.078915 
L 342.347954 212.889268 
L 342.469756 155.90505 
L 343.046992 204.126068 
L 343.200568 152.57969 
L 343.084062 212.329048 
L 344.045238 181.925546 
L 344.964048 210.96215 
L 344.770754 140.406324 
L 345.046132 201.532711 
L 345.366524 206.948222 
L 345.467143 173.745318 
L 345.988773 202.763147 
L 346.528938 157.090936 
L 346.783134 207.601096 
L 346.989667 185.766895 
L 347.688705 212.511015 
L 347.746958 158.579659 
L 347.990562 204.220366 
L 348.419516 152.367015 
L 348.930555 211.962887 
L 348.991456 189.965229 
L 349.362157 214.794853 
L 349.028526 175.068568 
L 349.99235 202.058245 
L 350.185644 179.984904 
L 350.964118 211.306354 
L 350.987948 199.63821 
L 351.991491 219.234979 
L 353.744379 230.106394 
L 352.057687 217.312634 
L 353.747027 230.09261 
L 354.660542 222.797994 
L 354.093898 232.739035 
L 354.782344 224.736462 
L 354.816766 222.302372 
L 354.912089 229.518659 
L 355.362227 239.71745 
L 355.965941 232.737136 
L 356.26515 235.553844 
L 356.267798 231.625924 
L 356.871512 231.625686 
L 381.131281 231.625721 
L 382.108344 83.372411 
L 382.140118 134.849206 
L 383.016563 199.538608 
L 382.463158 61.769235 
L 383.146308 187.088712 
L 383.712952 113.063056 
L 383.781797 204.798989 
L 384.086302 178.800238 
L 384.822409 211.014709 
L 384.745621 149.250086 
L 385.087196 191.095321 
L 385.85243 123.135663 
L 385.179871 213.020744 
L 386.08809 153.950672 
L 386.291976 217.213351 
L 387.088984 201.440746 
L 387.896584 170.550426 
L 387.854218 210.283076 
L 388.089878 192.996876 
L 389.003393 213.373487 
L 388.926605 134.341121 
L 389.088125 194.990872 
L 389.262884 163.770297 
L 389.580628 207.546575 
L 390.089019 188.109179 
L 391.042252 212.005953 
L 391.002534 116.93787 
L 391.084617 191.813535 
L 391.555938 128.557009 
L 391.134927 210.206227 
L 392.082864 171.675321 
L 392.191426 204.012517 
L 393.012266 97.57971 
L 393.083758 182.565479 
L 394.044934 99.150107 
L 393.592149 207.482613 
L 394.079356 153.051711 
L 394.96904 206.315767 
L 394.738676 39.749196 
L 395.080251 189.274434 
L 395.270897 97.363323 
L 395.440361 207.784442 
L 396.081145 167.131192 
L 396.626606 208.04522 
L 396.306214 122.385203 
L 397.082039 188.233496 
L 397.172067 154.997073 
L 397.148236 209.107532 
L 398.080285 187.455616 
L 398.604563 158.776422 
L 398.95673 210.652631 
L 399.046757 182.688841 
L 399.438642 210.613014 
L 399.737851 169.559183 
L 400.045004 189.567352 
L 400.264777 209.07693 
L 400.492493 174.854833 
L 401.030011 193.753594 
L 402.025609 158.857037 
L 401.744935 211.172597 
L 402.028257 188.514905 
L 402.780252 207.709343 
L 402.751125 132.149141 
L 403.01856 199.901481 
L 403.243628 134.416432 
L 403.929426 207.092268 
L 404.019454 185.020412 
L 404.38486 205.001905 
L 404.339846 127.207771 
L 405.0177 184.055474 
L 405.025644 184.035692 
L 405.028292 184.043064 
L 405.859722 210.04399 
L 405.409585 143.635159 
L 406.026538 185.245338 
L 406.876504 202.729575 
L 406.887095 159.897604 
L 406.932109 202.502263 
L 407.045967 152.156992 
L 407.583485 207.466066 
L 407.930355 181.539762 
L 408.753842 210.40262 
L 408.401676 150.158594 
L 408.928602 190.702748 
L 409.881834 168.93707 
L 409.858003 209.158818 
L 409.921552 194.659768 
L 409.993045 209.984324 
L 410.141325 165.43669 
L 410.919799 203.467254 
L 411.86244 167.320531 
L 411.624132 210.031898 
L 411.918045 172.253944 
L 412.452914 214.004616 
L 412.219902 137.599126 
L 412.918939 201.282964 
L 413.721243 172.985842 
L 413.792736 211.873468 
L 413.909242 195.291109 
L 414.735377 214.291435 
L 414.653293 175.255785 
L 414.910136 206.884738 
L 415.050032 184.197717 
L 415.324086 214.864702 
L 415.893378 205.681403 
L 416.073433 217.184552 
L 416.091968 198.815302 
L 416.894272 211.248332 
L 417.948124 221.941144 
L 417.961363 221.266896 
L 418.069925 218.951979 
L 418.835159 225.969815 
L 419.211157 233.912012 
L 418.85899 224.155293 
L 420.018757 230.16004 
L 420.415937 232.289979 
L 420.418585 229.264007 
L 420.468894 230.66506 
L 420.471542 201.831887 
L 420.831652 243.588075 
L 421.46714 232.365258 
L 421.734575 234.15662 
L 421.761054 234.316327 
L 421.763702 231.600319 
L 422.383303 231.625686 
L 445.51861 231.617153 
L 445.51861 231.616398 
L 446.392407 188.443624 
L 446.5248 198.446755 
L 447.147049 208.562852 
L 447.407423 148.952554 
L 447.522164 184.356931 
L 447.738407 203.853409 
L 448.360656 120.725174 
L 448.453331 179.89172 
L 448.788728 107.604585 
L 449.000557 205.260933 
L 449.450695 191.601975 
L 450.403927 210.580609 
L 449.644872 143.958679 
L 450.443645 195.148496 
L 450.567213 140.615816 
L 451.123265 214.183719 
L 451.441009 204.150199 
L 451.89556 153.002917 
L 451.467488 209.790955 
L 452.438373 202.732492 
L 453.140058 213.256702 
L 452.747291 162.095949 
L 453.409258 191.961506 
L 453.740241 184.395011 
L 453.687284 215.14399 
L 453.925592 190.656448 
L 453.96531 213.230661 
L 454.388969 169.284986 
L 454.547841 194.268574 
" clip-path="url(#p0a3ae968e3)" style="fill: none; stroke: #ff0000; stroke-linecap: square"/>
   </g>
   <g id="Kashiwagi.dat">
    <path d="M 46.585925 231.377854 
L 53.56703 231.625686 
L 56.559121 232.617036 
L 57.556045 177.597857 
L 57.805385 169.66897 
L 59.052089 201.142152 
L 60.796594 206.34658 
L 61.048141 203.868737 
L 61.793955 206.098903 
L 62.791321 208.577278 
L 63.541549 208.081391 
L 64.538915 203.868737 
L 66.034962 197.424857 
L 67.279456 197.920743 
L 68.276822 187.016 
L 71.021776 187.263678 
L 71.767595 191.724539 
L 73.016503 192.468106 
L 74.759683 215.021159 
L 75.01123 219.482021 
L 75.757049 217.499004 
L 76.008596 203.868737 
L 76.008596 166.444375 
L 76.507277 194.451125 
L 76.75441 187.759567 
L 76.75441 195.442369 
L 77.504643 195.690046 
L 79.494956 191.476862 
L 79.746503 193.211673 
L 79.746503 194.698802 
L 80.991003 194.94648 
L 83.48441 201.142152 
L 85.730684 204.611772 
L 86.476503 203.372848 
L 86.975184 204.611772 
L 88.224097 204.116415 
L 88.224097 202.629285 
L 89.221458 207.090147 
L 91.216185 215.764193 
L 93.210912 229.147364 
L 94.706958 231.377854 
L 121.882903 231.130022 
L 122.633142 169.17043 
L 123.131817 161.984044 
L 124.124769 199.407345 
L 124.874997 203.868737 
L 125.12213 205.851224 
L 126.119501 204.364092 
L 128.114223 208.824956 
L 134.848637 186.768323 
L 135.594456 190.733295 
L 136.591817 192.468106 
L 137.342044 190.980976 
L 137.342044 180.076761 
L 137.342044 200.894475 
L 137.342044 200.894475 
L 138.586549 191.476862 
L 138.586549 197.920743 
L 138.586549 230.138714 
L 138.087863 165.70187 
L 139.336776 217.747212 
L 139.835452 175.121072 
L 140.334137 198.663778 
L 141.331498 206.098903 
L 141.830184 203.125171 
L 142.077317 196.433613 
L 142.32887 184.041737 
L 144.072049 190.733295 
L 146.565457 192.468106 
L 148.313045 200.894475 
L 150.806453 204.364092 
L 152.302499 207.586034 
L 154.297232 209.320843 
L 158.035133 222.208074 
L 159.284046 229.147364 
L 161.027226 231.377854 
L 187.457368 231.377854 
L 186.958682 219.977377 
L 188.454729 165.452603 
L 189.200548 184.537626 
L 190.449461 206.842468 
L 191.693955 203.372848 
L 191.945518 205.355338 
L 192.691316 207.586034 
L 194.187373 206.34658 
L 195.436276 200.894475 
L 196.932312 196.185935 
L 198.675502 188.998488 
L 200.670224 188.50313 
L 202.417813 192.468106 
L 202.916498 189.494374 
L 202.664946 195.442369 
L 202.664946 196.68129 
L 204.659689 192.716314 
L 204.412555 168.926465 
L 204.412555 163.718321 
L 204.161003 231.873518 
L 205.158374 210.559765 
L 208.401999 191.972751 
L 209.147818 190.237941 
L 213.137282 199.655553 
L 215.63069 203.372848 
L 216.875173 205.107659 
L 222.113541 217.499004 
L 225.352767 231.377854 
L 251.535786 231.625686 
L 252.281584 229.643039 
L 253.278955 198.16842 
L 254.276327 185.033512 
L 254.276327 196.68129 
L 254.775012 201.142152 
L 255.772363 205.107659 
L 256.271048 205.603546 
L 257.26842 204.116415 
L 257.26842 203.125171 
L 257.767084 207.833712 
L 258.26577 207.586034 
L 260.008961 204.85998 
L 265.247328 186.768323 
L 267.24205 194.94648 
L 269.735457 198.416101 
L 270.732828 202.133927 
L 270.979962 202.629285 
L 272.228864 200.150908 
L 272.974683 194.202917 
L 274.969405 191.229185 
L 275.220957 192.963995 
L 276.465462 194.202917 
L 276.964148 194.202917 
L 277.961498 197.920743 
L 279.210422 201.142152 
L 285.940406 212.790461 
L 287.688016 220.473265 
L 290.927221 231.377854 
L 318.103192 231.130022 
L 319.100543 172.395018 
L 320.349466 203.372848 
L 321.346817 206.59479 
L 322.344188 204.364092 
L 323.588693 210.559765 
L 329.572858 188.998488 
L 330.821782 188.750811 
L 333.063637 193.707558 
L 334.811225 199.903231 
L 336.307282 206.842468 
L 338.050452 194.698802 
L 338.549137 190.980976 
L 339.798061 190.237941 
L 341.541231 196.185935 
L 345.032009 202.381604 
L 345.530695 204.85998 
L 348.522788 206.34658 
L 350.764643 213.534028 
L 353.010917 220.969152 
L 354.008289 225.925371 
L 355.252772 231.377854 
L 361.488511 231.873518 
L 365.97664 230.386552 
L 365.97664 225.430014 
L 366.475326 229.890877 
L 371.462141 230.386552 
L 382.433184 230.386552 
L 382.433184 229.890877 
L 383.430513 201.885719 
L 383.430513 182.059249 
L 383.179003 177.597857 
L 384.176332 177.104622 
L 384.176332 166.20041 
L 385.173704 197.672534 
L 385.425256 200.398589 
L 385.923942 204.611772 
L 389.41028 208.081391 
L 389.661833 207.586034 
L 390.407652 203.125171 
L 393.651318 190.980976 
L 394.397137 188.007244 
L 394.648648 188.254922 
L 396.144705 189.494374 
L 398.638133 197.424857 
L 399.635504 203.372848 
L 401.877338 204.85998 
L 403.126262 196.68129 
L 404.123634 192.468106 
L 405.619649 192.220429 
L 406.118334 195.19416 
L 407.861525 196.185935 
L 410.10782 202.133927 
L 414.344397 206.098903 
L 419.084078 225.925371 
L 419.582764 230.138714 
L 421.078821 232.121351 
L 429.304841 232.617036 
L 447.756085 232.121351 
L 448.753457 229.643039 
L 448.254771 225.430014 
L 448.254771 217.003645 
L 449.2521 169.419696 
L 450.748158 203.125171 
L 454.737601 209.073164 
L 457.981268 198.416101 
L 458.731506 189.494374 
L 459.967172 187.016 
L 461.202839 186.520114 
L 463.23285 188.007244 
L 466.189653 209.320843 
L 466.939892 217.003645 
L 467.954897 211.303331 
L 468.219665 188.998488 
L 469.190564 192.220429 
L 469.675992 190.485618 
L 470.69104 188.007244 
L 470.955807 188.254922 
L 471.441278 193.45935 
L 472.456284 194.698802 
L 473.427141 200.150908 
L 475.413045 203.620529 
L 475.677855 205.851224 
L 476.428093 206.098903 
L 476.913521 202.876963 
L 477.178289 199.903231 
L 477.663759 206.842468 
L 477.928527 208.329599 
L 479.429003 205.603546 
L 484.636479 226.91688 
L 485.386717 230.882174 
L 486.401723 226.91688 
L 486.66649 231.377854 
L 491.388537 231.873518 
L 505.113315 231.625686 
L 505.113315 231.625686 
" clip-path="url(#p0a3ae968e3)" style="fill: none; stroke-dasharray: 5.55,2.4; stroke-dashoffset: 0; stroke: #000000; stroke-width: 1.5"/>
   </g>
   <g id="patch_3">
    <path d="M 48.356024 252.840108 
L 48.356024 51.3031 
" style="fill: none; stroke: #000000; stroke-width: 1.7; stroke-linejoin: miter; stroke-linecap: square"/>
   </g>
   <g id="patch_4">
    <path d="M 48.356024 252.840108 
L 500.700185 252.840108 
" style="fill: none; stroke: #000000; stroke-width: 1.7; stroke-linejoin: miter; stroke-linecap: square"/>
   </g>
   <g id="x_title_text">
    <!-- $t \, \mathrm{[s]}$ -->
    <g transform="translate(485.337071 276.182602)">
     <text>
      <tspan style="font: italic 15px 'Times New Roman'" x="0" y="-0.84375">t</tspan>
      <tspan style="font: 15px 'Times New Roman'" x="5.972936 10.968054 16.805456" y="-0.84375">[s]</tspan>
     </text>
    </g>
   </g>
   <g id="y_title_text">
    <!-- $\mathrm{Pressure \, [N/m^2]}$ -->
    <g transform="translate(2.987838 36.480085)">
     <text>
      <tspan style="font: 15px 'Times New Roman'" x="0 8.342285 13.337402 19.995117 25.83252 31.669922 39.169922 44.165039 52.62821 57.623327 68.455847 72.623327 90.410292" y="-0.8846875000000018">Pressure[N/m]</tspan>
      <tspan style="font: 10.5px 'Times New Roman'" x="84.516229" y="-9.9015625">2</tspan>
     </text>
    </g>
   </g>
   <g id="legend_1">
    <g id="patch_5">
     <path d="M 384.990185 46.723593 
L 500.700185 46.723593 
L 500.700185 2.934218 
L 384.990185 2.934218 
z
" style="fill: #ffffff; stroke: #000000; stroke-linejoin: miter"/>
    </g>
    <g id="line2d_42">
     <path d="M 390.590185 13.434218 
L 404.590185 13.434218 
L 418.590185 13.434218 
" style="fill: none; stroke: #ff0000; stroke-linecap: square"/>
    </g>
    <g id="text_10">
     <text style="font: 14px 'Times New Roman'; text-anchor: start" x="429.790185" y="18.334218" transform="rotate(-0 429.790185 18.334218)">Numerical</text>
    </g>
    <g id="line2d_43">
     <path d="M 390.590185 33.228906 
L 404.590185 33.228906 
L 418.590185 33.228906 
" style="fill: none; stroke-dasharray: 5.55,2.4; stroke-dashoffset: 0; stroke: #000000; stroke-width: 1.5"/>
    </g>
    <g id="text_11">
     <text style="font: 14px 'Times New Roman'; text-anchor: start" x="429.790185" y="38.128906" transform="rotate(-0 429.790185 38.128906)">Experiment</text>
    </g>
   </g>
  </g>
 </g>
 <defs>
  <clipPath id="p0a3ae968e3">
   <rect x="48.356024" y="51.3031" width="452.34416" height="201.537008"/>
  </clipPath>
 </defs>
</svg>
