<?xml version="1.0" encoding="utf-8" standalone="no"?>
<!DOCTYPE svg PUBLIC "-//W3C//DTD SVG 1.1//EN"
  "http://www.w3.org/Graphics/SVG/1.1/DTD/svg11.dtd">
<svg xmlns:xlink="http://www.w3.org/1999/xlink" width="510.23622pt" height="283.464567pt" viewBox="0 0 510.23622 283.464567" xmlns="http://www.w3.org/2000/svg" version="1.1">
 <metadata>
  <rdf:RDF xmlns:dc="http://purl.org/dc/elements/1.1/" xmlns:cc="http://creativecommons.org/ns#" xmlns:rdf="http://www.w3.org/1999/02/22-rdf-syntax-ns#">
   <cc:Work>
    <dc:type rdf:resource="http://purl.org/dc/dcmitype/StillImage"/>
    <dc:date>2024-12-02T18:21:35.581412</dc:date>
    <dc:format>image/svg+xml</dc:format>
    <dc:creator>
     <cc:Agent>
      <dc:title>Matplotlib v3.9.2, https://matplotlib.org/</dc:title>
     </cc:Agent>
    </dc:creator>
   </cc:Work>
  </rdf:RDF>
 </metadata>
 <defs>
  <style type="text/css">*{stroke-linejoin: round; stroke-linecap: butt}</style>
 </defs>
 <g id="figure_1">
  <g id="patch_1">
   <path d="M 0 283.464567 
L 510.23622 283.464567 
L 510.23622 0 
L 0 0 
z
" style="fill: #ffffff"/>
  </g>
  <g id="axes_1">
   <g id="patch_2">
    <path d="M 82.229626 252.840108 
L 500.366134 252.840108 
L 500.366134 51.298128 
L 82.229626 51.298128 
z
" style="fill: #ffffff"/>
   </g>
   <g id="matplotlib.axis_1">
    <g id="xtick_1">
     <g id="line2d_1">
      <defs>
       <path id="me89928f1f0" d="M 0 0 
L 0 10 
" style="stroke: #000000; stroke-width: 1.7"/>
      </defs>
      <g>
       <use xlink:href="#me89928f1f0" x="133.221883" y="252.840108" style="stroke: #000000; stroke-width: 1.7"/>
      </g>
     </g>
     <g id="text_1">
      <text style="font: 15px 'Times New Roman'; text-anchor: middle" x="133.221883" y="277.255733" transform="rotate(-0 133.221883 277.255733)">2.0</text>
     </g>
    </g>
    <g id="xtick_2">
     <g id="line2d_2">
      <g>
       <use xlink:href="#me89928f1f0" x="214.809494" y="252.840108" style="stroke: #000000; stroke-width: 1.7"/>
      </g>
     </g>
     <g id="text_2">
      <text style="font: 15px 'Times New Roman'; text-anchor: middle" x="214.809494" y="277.255733" transform="rotate(-0 214.809494 277.255733)">4.0</text>
     </g>
    </g>
    <g id="xtick_3">
     <g id="line2d_3">
      <g>
       <use xlink:href="#me89928f1f0" x="296.397106" y="252.840108" style="stroke: #000000; stroke-width: 1.7"/>
      </g>
     </g>
     <g id="text_3">
      <text style="font: 15px 'Times New Roman'; text-anchor: middle" x="296.397106" y="277.255733" transform="rotate(-0 296.397106 277.255733)">6.0</text>
     </g>
    </g>
    <g id="xtick_4">
     <g id="line2d_4">
      <g>
       <use xlink:href="#me89928f1f0" x="377.984717" y="252.840108" style="stroke: #000000; stroke-width: 1.7"/>
      </g>
     </g>
     <g id="text_4">
      <text style="font: 15px 'Times New Roman'; text-anchor: middle" x="377.984717" y="277.255733" transform="rotate(-0 377.984717 277.255733)">8.0</text>
     </g>
    </g>
    <g id="xtick_5">
     <g id="line2d_5">
      <g>
       <use xlink:href="#me89928f1f0" x="459.572328" y="252.840108" style="stroke: #000000; stroke-width: 1.7"/>
      </g>
     </g>
     <g id="text_5">
      <text style="font: 15px 'Times New Roman'; text-anchor: middle" x="459.572328" y="277.255733" transform="rotate(-0 459.572328 277.255733)">10.0</text>
     </g>
    </g>
    <g id="xtick_6">
     <g id="line2d_6">
      <defs>
       <path id="mde6b4cb638" d="M 0 0 
L 0 5 
" style="stroke: #000000; stroke-width: 0.75"/>
      </defs>
      <g>
       <use xlink:href="#mde6b4cb638" x="92.428077" y="252.840108" style="stroke: #000000; stroke-width: 0.75"/>
      </g>
     </g>
    </g>
    <g id="xtick_7">
     <g id="line2d_7">
      <g>
       <use xlink:href="#mde6b4cb638" x="112.82498" y="252.840108" style="stroke: #000000; stroke-width: 0.75"/>
      </g>
     </g>
    </g>
    <g id="xtick_8">
     <g id="line2d_8">
      <g>
       <use xlink:href="#mde6b4cb638" x="153.618786" y="252.840108" style="stroke: #000000; stroke-width: 0.75"/>
      </g>
     </g>
    </g>
    <g id="xtick_9">
     <g id="line2d_9">
      <g>
       <use xlink:href="#mde6b4cb638" x="174.015689" y="252.840108" style="stroke: #000000; stroke-width: 0.75"/>
      </g>
     </g>
    </g>
    <g id="xtick_10">
     <g id="line2d_10">
      <g>
       <use xlink:href="#mde6b4cb638" x="194.412592" y="252.840108" style="stroke: #000000; stroke-width: 0.75"/>
      </g>
     </g>
    </g>
    <g id="xtick_11">
     <g id="line2d_11">
      <g>
       <use xlink:href="#mde6b4cb638" x="235.206397" y="252.840108" style="stroke: #000000; stroke-width: 0.75"/>
      </g>
     </g>
    </g>
    <g id="xtick_12">
     <g id="line2d_12">
      <g>
       <use xlink:href="#mde6b4cb638" x="255.6033" y="252.840108" style="stroke: #000000; stroke-width: 0.75"/>
      </g>
     </g>
    </g>
    <g id="xtick_13">
     <g id="line2d_13">
      <g>
       <use xlink:href="#mde6b4cb638" x="276.000203" y="252.840108" style="stroke: #000000; stroke-width: 0.75"/>
      </g>
     </g>
    </g>
    <g id="xtick_14">
     <g id="line2d_14">
      <g>
       <use xlink:href="#mde6b4cb638" x="316.794009" y="252.840108" style="stroke: #000000; stroke-width: 0.75"/>
      </g>
     </g>
    </g>
    <g id="xtick_15">
     <g id="line2d_15">
      <g>
       <use xlink:href="#mde6b4cb638" x="337.190911" y="252.840108" style="stroke: #000000; stroke-width: 0.75"/>
      </g>
     </g>
    </g>
    <g id="xtick_16">
     <g id="line2d_16">
      <g>
       <use xlink:href="#mde6b4cb638" x="357.587814" y="252.840108" style="stroke: #000000; stroke-width: 0.75"/>
      </g>
     </g>
    </g>
    <g id="xtick_17">
     <g id="line2d_17">
      <g>
       <use xlink:href="#mde6b4cb638" x="398.38162" y="252.840108" style="stroke: #000000; stroke-width: 0.75"/>
      </g>
     </g>
    </g>
    <g id="xtick_18">
     <g id="line2d_18">
      <g>
       <use xlink:href="#mde6b4cb638" x="418.778523" y="252.840108" style="stroke: #000000; stroke-width: 0.75"/>
      </g>
     </g>
    </g>
    <g id="xtick_19">
     <g id="line2d_19">
      <g>
       <use xlink:href="#mde6b4cb638" x="439.175425" y="252.840108" style="stroke: #000000; stroke-width: 0.75"/>
      </g>
     </g>
    </g>
    <g id="xtick_20">
     <g id="line2d_20">
      <g>
       <use xlink:href="#mde6b4cb638" x="479.969231" y="252.840108" style="stroke: #000000; stroke-width: 0.75"/>
      </g>
     </g>
    </g>
    <g id="xtick_21">
     <g id="line2d_21">
      <g>
       <use xlink:href="#mde6b4cb638" x="500.366134" y="252.840108" style="stroke: #000000; stroke-width: 0.75"/>
      </g>
     </g>
    </g>
   </g>
   <g id="matplotlib.axis_2">
    <g id="ytick_1">
     <g id="line2d_22">
      <defs>
       <path id="m078df1430c" d="M 0 0 
L -10 0 
" style="stroke: #000000; stroke-width: 1.7"/>
      </defs>
      <g>
       <use xlink:href="#m078df1430c" x="82.229626" y="231.625163" style="stroke: #000000; stroke-width: 1.7"/>
      </g>
     </g>
     <g id="text_6">
      <text style="font: 15px 'Times New Roman'; text-anchor: end" x="68.229626" y="236.832975" transform="rotate(-0 68.229626 236.832975)">0</text>
     </g>
    </g>
    <g id="ytick_2">
     <g id="line2d_23">
      <g>
       <use xlink:href="#m078df1430c" x="82.229626" y="178.5878" style="stroke: #000000; stroke-width: 1.7"/>
      </g>
     </g>
     <g id="text_7">
      <text style="font: 15px 'Times New Roman'; text-anchor: end" x="68.229626" y="183.795612" transform="rotate(-0 68.229626 183.795612)">1000</text>
     </g>
    </g>
    <g id="ytick_3">
     <g id="line2d_24">
      <g>
       <use xlink:href="#m078df1430c" x="82.229626" y="125.550436" style="stroke: #000000; stroke-width: 1.7"/>
      </g>
     </g>
     <g id="text_8">
      <text style="font: 15px 'Times New Roman'; text-anchor: end" x="68.229626" y="130.758249" transform="rotate(-0 68.229626 130.758249)">2000</text>
     </g>
    </g>
    <g id="ytick_4">
     <g id="line2d_25">
      <g>
       <use xlink:href="#m078df1430c" x="82.229626" y="72.513073" style="stroke: #000000; stroke-width: 1.7"/>
      </g>
     </g>
     <g id="text_9">
      <text style="font: 15px 'Times New Roman'; text-anchor: end" x="68.229626" y="77.720885" transform="rotate(-0 68.229626 77.720885)">3000</text>
     </g>
    </g>
    <g id="ytick_5">
     <g id="line2d_26">
      <defs>
       <path id="ma4338cbf33" d="M 0 0 
L -5 0 
" style="stroke: #000000; stroke-width: 0.75"/>
      </defs>
      <g>
       <use xlink:href="#ma4338cbf33" x="82.229626" y="252.840108" style="stroke: #000000; stroke-width: 0.75"/>
      </g>
     </g>
    </g>
    <g id="ytick_6">
     <g id="line2d_27">
      <g>
       <use xlink:href="#ma4338cbf33" x="82.229626" y="242.232636" style="stroke: #000000; stroke-width: 0.75"/>
      </g>
     </g>
    </g>
    <g id="ytick_7">
     <g id="line2d_28">
      <g>
       <use xlink:href="#ma4338cbf33" x="82.229626" y="221.01769" style="stroke: #000000; stroke-width: 0.75"/>
      </g>
     </g>
    </g>
    <g id="ytick_8">
     <g id="line2d_29">
      <g>
       <use xlink:href="#ma4338cbf33" x="82.229626" y="210.410218" style="stroke: #000000; stroke-width: 0.75"/>
      </g>
     </g>
    </g>
    <g id="ytick_9">
     <g id="line2d_30">
      <g>
       <use xlink:href="#ma4338cbf33" x="82.229626" y="199.802745" style="stroke: #000000; stroke-width: 0.75"/>
      </g>
     </g>
    </g>
    <g id="ytick_10">
     <g id="line2d_31">
      <g>
       <use xlink:href="#ma4338cbf33" x="82.229626" y="189.195272" style="stroke: #000000; stroke-width: 0.75"/>
      </g>
     </g>
    </g>
    <g id="ytick_11">
     <g id="line2d_32">
      <g>
       <use xlink:href="#ma4338cbf33" x="82.229626" y="167.980327" style="stroke: #000000; stroke-width: 0.75"/>
      </g>
     </g>
    </g>
    <g id="ytick_12">
     <g id="line2d_33">
      <g>
       <use xlink:href="#ma4338cbf33" x="82.229626" y="157.372854" style="stroke: #000000; stroke-width: 0.75"/>
      </g>
     </g>
    </g>
    <g id="ytick_13">
     <g id="line2d_34">
      <g>
       <use xlink:href="#ma4338cbf33" x="82.229626" y="146.765382" style="stroke: #000000; stroke-width: 0.75"/>
      </g>
     </g>
    </g>
    <g id="ytick_14">
     <g id="line2d_35">
      <g>
       <use xlink:href="#ma4338cbf33" x="82.229626" y="136.157909" style="stroke: #000000; stroke-width: 0.75"/>
      </g>
     </g>
    </g>
    <g id="ytick_15">
     <g id="line2d_36">
      <g>
       <use xlink:href="#ma4338cbf33" x="82.229626" y="114.942964" style="stroke: #000000; stroke-width: 0.75"/>
      </g>
     </g>
    </g>
    <g id="ytick_16">
     <g id="line2d_37">
      <g>
       <use xlink:href="#ma4338cbf33" x="82.229626" y="104.335491" style="stroke: #000000; stroke-width: 0.75"/>
      </g>
     </g>
    </g>
    <g id="ytick_17">
     <g id="line2d_38">
      <g>
       <use xlink:href="#ma4338cbf33" x="82.229626" y="93.728018" style="stroke: #000000; stroke-width: 0.75"/>
      </g>
     </g>
    </g>
    <g id="ytick_18">
     <g id="line2d_39">
      <g>
       <use xlink:href="#ma4338cbf33" x="82.229626" y="83.120546" style="stroke: #000000; stroke-width: 0.75"/>
      </g>
     </g>
    </g>
    <g id="ytick_19">
     <g id="line2d_40">
      <g>
       <use xlink:href="#ma4338cbf33" x="82.229626" y="61.9056" style="stroke: #000000; stroke-width: 0.75"/>
      </g>
     </g>
    </g>
    <g id="ytick_20">
     <g id="line2d_41">
      <g>
       <use xlink:href="#ma4338cbf33" x="82.229626" y="51.298128" style="stroke: #000000; stroke-width: 0.75"/>
      </g>
     </g>
    </g>
   </g>
   <g id="output_sample.dat">
    <path d="M 82.227994 231.625163 
L 90.006557 231.57761 
L 90.009005 185.506311 
L 91.007637 196.067907 
L 91.482477 224.00799 
L 91.76885 132.97991 
L 92.01606 214.406106 
L 92.113965 217.062641 
L 92.05767 202.55671 
L 92.153127 211.040142 
L 93.085674 148.220196 
L 93.154207 178.197975 
L 93.773457 209.360396 
L 93.807724 125.463985 
L 93.817514 172.074811 
L 93.819962 87.926791 
L 94.067173 219.008476 
L 94.816147 182.044138 
L 95.621417 216.499278 
L 95.486797 158.950716 
L 95.849046 191.633135 
L 96.487877 148.690107 
L 96.492772 203.359696 
L 96.59802 168.352649 
L 96.600468 220.049493 
L 96.708164 127.51441 
L 97.5991 191.736664 
L 97.655396 128.662138 
L 98.071493 204.91857 
L 98.563466 195.441376 
L 99.163135 202.852552 
L 99.138658 160.466524 
L 99.557203 193.994782 
L 100.164215 161.635997 
L 100.315968 204.589155 
L 100.555835 177.661767 
L 101.028228 205.122817 
L 101.038018 158.523765 
L 101.554468 197.648898 
L 102.110079 142.776441 
L 101.647478 203.910064 
L 102.555548 166.432697 
L 103.412218 198.72789 
L 103.375503 126.487076 
L 103.55418 184.758432 
L 104.31784 124.387327 
L 103.960486 198.380495 
L 104.552812 154.143409 
L 105.22591 200.285915 
L 104.768204 133.014915 
L 105.553892 181.957953 
L 105.994465 129.703262 
L 106.295524 198.022334 
L 106.547629 176.256807 
L 107.467938 200.808492 
L 106.838897 100.349203 
L 107.548709 186.450111 
L 107.551157 155.757336 
L 108.292788 199.872913 
L 108.547342 198.597895 
L 108.566923 167.661042 
L 108.779867 200.604829 
L 109.558212 171.740146 
L 110.255786 203.227898 
L 110.559292 199.609954 
L 111.068399 191.690203 
L 110.686569 203.751164 
L 111.555477 198.372804 
L 111.653382 195.224666 
L 112.559005 207.095647 
L 112.742577 206.72359 
L 113.704495 209.171424 
L 114.203811 206.792062 
L 114.196468 213.534118 
L 114.700679 212.329958 
L 115.953865 216.152785 
L 115.469235 210.834092 
L 115.968551 214.946715 
L 115.970999 212.440117 
L 116.509477 216.730892 
L 116.964736 216.404023 
L 117.175232 216.204284 
L 118.636466 222.46508 
L 118.638913 216.744311 
L 119.423378 225.452781 
L 119.63673 221.110612 
L 120.154811 216.308821 
L 119.954922 223.31564 
L 120.187446 223.161142 
L 120.404877 219.403604 
L 121.268482 227.156776 
L 121.481426 222.831621 
L 122.267115 226.060854 
L 123.292671 228.908658 
L 123.348966 227.342056 
L 124.166474 231.090785 
L 124.168922 225.116524 
L 125.116154 232.30333 
L 125.165106 230.636562 
L 125.395184 228.538844 
L 126.599417 247.296537 
L 126.601864 231.622949 
L 127.600497 231.625163 
L 145.700708 231.625163 
L 145.701787 -1 
M 145.714076 -1 
L 145.844072 284.464567 
M 145.845188 284.464567 
L 146.030707 -1 
M 146.034953 -1 
L 146.045824 30.547259 
L 146.051959 -1 
M 146.05838 -1 
L 146.138834 211.128078 
L 146.467039 -1 
M 146.477578 -1 
L 146.997951 217.816885 
L 147.485029 195.94014 
L 148.314775 206.213371 
L 147.514401 106.653754 
L 148.486109 198.877508 
L 149.161655 166.946629 
L 148.892416 208.532695 
L 149.484742 198.319661 
L 149.805381 202.863107 
L 149.516561 174.494376 
L 149.815171 201.02568 
L 149.824962 158.963975 
L 150.529879 209.447695 
L 150.813804 204.088376 
L 150.857861 167.465864 
L 150.975347 217.260099 
L 151.814884 201.436243 
L 152.774354 209.392749 
L 152.610363 164.915298 
L 152.815964 203.587915 
L 153.768091 181.215217 
L 153.775434 208.98452 
L 153.804806 200.24863 
L 153.807253 209.061212 
L 154.778962 183.505848 
L 154.803438 200.502255 
L 154.805886 200.513817 
L 154.8426 169.36195 
L 155.767804 219.055997 
L 155.806966 195.253253 
L 155.997881 220.089377 
L 156.22551 159.276896 
L 156.805598 199.488286 
L 157.003856 157.554242 
L 157.273095 221.014614 
L 157.80423 177.714805 
L 157.975564 218.383908 
L 157.858078 137.667352 
L 158.80531 194.874937 
L 159.617923 161.603114 
L 159.128397 218.769118 
L 159.811286 186.374374 
L 160.349764 196.976702 
L 160.557812 92.786075 
L 160.809918 186.963301 
L 161.647007 121.729094 
L 161.771836 207.007871 
L 161.810998 170.595599 
L 161.962751 214.036806 
L 161.837922 138.445941 
L 162.814526 191.402104 
L 163.071527 163.948426 
L 162.929564 211.981025 
L 163.81071 203.374599 
L 163.857215 210.199235 
L 163.830291 181.700562 
L 164.809343 203.398307 
L 165.60727 212.067264 
L 165.335583 188.031526 
L 165.861823 208.627473 
L 166.060081 202.907234 
L 165.89609 208.809603 
L 166.072319 204.573721 
L 166.596111 177.727003 
L 166.99997 213.117298 
L 167.068504 212.762743 
L 167.37201 217.178793 
L 167.496839 210.318781 
L 167.570267 210.567155 
L 167.658382 173.096311 
L 168.250708 214.771533 
L 168.5689 210.796064 
L 168.583586 210.83441 
L 168.588481 210.753422 
L 169.13675 164.260817 
L 169.227312 220.593285 
L 169.589561 204.120145 
L 169.800057 207.251365 
L 169.594456 197.994065 
L 170.159858 203.320554 
L 170.918623 185.933846 
L 170.769318 210.393458 
L 171.158491 199.798237 
L 171.81935 209.121304 
L 171.403253 192.697435 
L 172.162018 205.098048 
L 172.188942 205.252387 
L 172.389648 197.016109 
L 172.262371 207.651161 
L 173.187575 205.034032 
L 173.449471 206.774984 
L 173.444575 202.78599 
L 173.473947 206.226153 
L 174.306141 213.123079 
L 173.777453 196.952199 
L 174.472579 212.778177 
L 175.045324 199.807306 
L 174.543561 212.881069 
L 175.473659 207.065575 
L 176.418444 212.498139 
L 176.406206 197.538739 
L 176.464949 211.747873 
L 176.477187 195.426579 
L 177.304485 216.115288 
L 177.463581 213.62391 
L 178.190527 183.952317 
L 178.374099 223.375572 
L 178.469556 210.202894 
L 178.58949 210.927438 
L 178.591938 210.065369 
L 178.623757 210.559624 
L 179.110835 203.067513 
L 178.968873 213.47164 
L 179.622389 211.131048 
L 179.637075 214.343097 
L 179.695818 206.928633 
L 179.700714 208.269789 
L 180.672422 192.687252 
L 180.231849 217.138856 
L 180.699346 213.587898 
L 180.811937 223.204633 
L 181.232929 202.925532 
L 181.68574 212.080205 
L 183.191032 226.657487 
L 181.896236 198.77382 
L 183.205717 226.605855 
L 183.227746 226.143645 
L 183.350127 227.169091 
L 183.352575 220.840015 
L 183.621814 230.948629 
L 184.34876 229.89711 
L 184.456455 230.435232 
L 184.681637 229.249434 
L 184.786885 229.297268 
L 184.789333 222.587384 
L 185.232354 237.434133 
L 185.785518 230.211791 
L 186.049861 232.209592 
L 186.659321 246.80191 
L 186.669111 231.626744 
L 187.028913 231.625163 
L 207.312409 231.624366 
L 207.921868 33.966048 
L 208.315936 63.274495 
L 209.001272 221.198335 
L 208.404051 50.61978 
L 209.329255 181.181061 
L 209.373312 133.480052 
L 210.330335 212.550965 
L 210.846784 147.153085 
L 211.138052 213.849001 
L 211.328967 193.137433 
L 211.397501 213.346207 
L 212.266409 185.290768 
L 212.327599 207.260806 
L 212.976221 181.591942 
L 212.844049 214.560869 
L 213.326232 192.508994 
L 214.315073 211.656755 
L 213.830443 170.103943 
L 214.324864 193.810424 
L 214.471722 210.292422 
L 215.218248 167.996768 
L 215.294125 189.274775 
L 216.072471 141.968152 
L 216.241357 210.963238 
L 216.285414 203.255424 
L 216.287862 209.729006 
L 216.322129 155.828406 
L 217.276704 185.406866 
L 217.428457 128.495071 
L 217.876373 201.66669 
L 218.285127 151.011553 
L 219.127111 206.073618 
L 219.156482 119.798534 
L 219.286207 176.931443 
L 219.423274 133.627496 
L 219.298445 207.479214 
L 220.279944 177.66601 
L 220.891851 206.476701 
L 221.117033 122.265832 
L 221.271233 167.493974 
L 221.875797 121.335027 
L 221.303052 205.234142 
L 222.269866 170.238658 
L 223.21465 210.684633 
L 222.331056 150.513532 
L 223.270946 186.642955 
L 223.371298 203.535249 
L 223.96852 185.944718 
L 224.272026 194.963032 
L 225.084638 203.315515 
L 224.602455 181.081882 
L 225.243734 197.572683 
L 225.755288 150.917677 
L 226.071032 207.348317 
L 226.242366 176.437134 
L 227.182256 207.557126 
L 227.192046 147.18862 
L 227.240999 206.234745 
L 227.965497 114.987515 
L 227.263027 207.074857 
L 228.239631 194.558092 
L 228.770766 203.172421 
L 228.628804 129.63007 
L 228.7879 193.547465 
L 228.790347 113.188488 
L 228.981262 210.824386 
L 229.786532 141.718346 
L 230.398439 210.313106 
L 230.550192 121.32548 
L 230.787612 177.498942 
L 230.868384 144.318768 
L 231.458262 211.168228 
L 231.771559 176.805214 
L 232.721239 211.69404 
L 232.696762 155.334098 
L 232.770191 177.931727 
L 232.919496 153.780103 
L 232.966001 212.089221 
L 233.763928 166.456033 
L 233.771271 209.523115 
L 234.209397 160.334461 
L 234.765008 205.054823 
L 235.71224 155.595042 
L 235.756298 208.864868 
L 235.768536 184.216125 
L 235.819936 209.686841 
L 235.930079 170.098639 
L 236.767168 202.751834 
L 236.953188 167.966537 
L 237.09515 213.795115 
L 237.768248 196.856572 
L 238.123154 182.94047 
L 238.152526 208.025923 
L 238.167212 190.625849 
L 239.004301 212.691142 
L 239.121787 157.021216 
L 239.165844 204.980093 
L 239.18053 164.960379 
L 239.388578 213.043947 
L 240.164476 202.669839 
L 240.176715 202.672119 
L 240.259934 204.190844 
L 240.602602 209.425685 
L 240.27462 203.888213 
L 240.634421 208.531899 
L 240.636869 184.223974 
L 240.857155 218.089922 
L 241.633053 211.339008 
L 243.233802 230.054721 
L 243.728223 225.116365 
L 243.975434 235.8565 
L 244.227539 231.030964 
L 245.353448 234.853473 
L 245.409744 231.641288 
L 247.619952 231.625163 
L 266.728587 231.625163 
L 266.731034 190.756692 
L 266.809358 236.200351 
L 267.727219 231.625163 
L 267.825124 231.625163 
L 268.090325 -1 
M 268.139942 -1 
L 268.353812 209.121463 
L 269.144396 174.623257 
L 269.947218 206.214697 
L 269.149291 51.259941 
L 270.138133 181.321982 
L 270.603182 138.210455 
L 270.779412 209.597791 
L 271.136765 196.605387 
L 271.139213 196.60613 
L 271.141661 196.315591 
L 271.144108 196.329593 
L 271.736434 150.484892 
L 271.614053 216.333112 
L 272.142741 203.332965 
L 272.74241 168.404626 
L 272.903953 210.829425 
L 273.143821 188.814093 
L 274.100843 212.042124 
L 273.540336 151.037011 
L 274.142453 201.275221 
L 274.460645 147.070877 
L 275.040733 213.405609 
L 275.141085 187.923436 
L 275.1778 211.194905 
L 276.100556 150.32631 
L 276.139718 184.719661 
L 276.563157 137.413303 
L 276.869111 205.859771 
L 277.135902 178.152363 
L 277.928934 209.296221 
L 277.581371 135.595182 
L 278.136982 202.760002 
L 278.535946 134.48458 
L 278.161459 212.807612 
L 279.135615 165.210185 
L 280.075504 209.43608 
L 280.09019 104.101596 
L 280.134247 157.284282 
L 281.098613 118.197867 
L 280.386353 205.741285 
L 281.118194 172.164975 
L 281.448624 201.362892 
L 281.48289 73.504341 
L 282.119274 186.307812 
L 282.398303 43.818799 
L 283.071401 196.816105 
L 283.117906 176.275901 
L 283.543793 111.046308 
L 284.033319 206.07261 
L 284.111643 181.672718 
L 284.855722 207.27205 
L 284.417597 121.850019 
L 285.110276 184.230392 
L 286.033031 210.595689 
L 285.876383 174.917614 
L 286.113803 207.452907 
L 286.96313 139.650419 
L 286.192127 210.73173 
L 287.117331 173.327023 
L 287.19076 210.993469 
L 288.079249 148.663058 
L 288.120858 190.768944 
L 288.152678 137.432927 
L 288.603041 209.943807 
L 289.119491 186.092162 
L 289.471949 130.264397 
L 289.648179 206.408018 
L 290.069171 176.442969 
L 291.031089 209.585221 
L 290.654154 146.855545 
L 291.067803 208.093652 
L 291.310118 145.928452 
L 291.784958 212.993827 
L 292.068883 191.257418 
L 292.923105 210.850109 
L 292.786038 168.557904 
L 293.008772 208.708461 
L 293.030801 175.109609 
L 293.295145 212.030827 
L 294.009852 189.544523 
L 294.837151 212.124279 
L 294.993799 173.357785 
L 295.003589 198.393118 
L 295.512696 169.604861 
L 295.96306 214.703062 
L 296.002222 207.173188 
L 296.100127 183.991458 
L 296.092784 214.90821 
L 297.003302 184.762144 
L 297.740038 210.913966 
L 297.698428 172.495398 
L 298.006829 206.611204 
L 298.065572 170.644394 
L 298.192849 212.953041 
L 299.007909 184.934834 
L 299.570864 216.010433 
L 299.167005 162.976782 
L 300.008989 203.061838 
L 300.381029 213.188898 
L 300.221933 194.998992 
L 300.525439 210.111034 
L 300.584182 190.13833 
L 301.154479 217.465513 
L 301.524071 211.541292 
L 303.325526 224.685807 
L 303.381821 224.479545 
L 303.384269 222.992483 
L 304.282548 230.321807 
L 304.370663 230.207909 
L 304.661931 230.725596 
L 304.664378 228.006848 
L 304.776969 230.208848 
L 304.779417 226.445004 
L 305.149009 234.866361 
L 305.775602 231.757479 
L 306.446252 235.482692 
L 306.448699 231.627525 
L 306.766891 231.625163 
L 327.823838 231.403115 
L 328.592393 72.596872 
L 328.827365 156.974544 
L 329.828445 204.790591 
L 328.893451 78.449015 
L 329.835788 203.039509 
L 330.002227 160.062909 
L 329.87495 206.738812 
L 330.834421 190.655126 
L 331.58829 209.610891 
L 330.983726 167.761813 
L 331.796339 201.535847 
L 332.050892 157.97748 
L 331.862424 210.258319 
L 332.794971 185.778764 
L 333.774022 213.634783 
L 333.257573 145.307384 
L 333.793603 200.775503 
L 333.813184 168.261955 
L 333.960042 216.191714 
L 334.794683 192.450971 
L 335.560791 209.874063 
L 335.475124 157.487945 
L 335.793316 205.870962 
L 336.131088 209.732029 
L 336.799291 160.2915 
L 336.811529 209.8136 
L 336.809081 153.44862 
L 337.797923 173.016225 
L 338.245839 136.534474 
L 337.974152 206.267363 
L 338.353535 149.652736 
L 338.642355 208.473081 
L 339.078033 119.530165 
L 339.352167 193.596949 
L 339.736445 119.662758 
L 340.345904 205.426403 
L 340.3508 159.215372 
L 340.380171 204.76561 
L 340.602905 75.988611 
L 341.349432 193.939358 
L 341.479156 138.357899 
L 342.286874 207.483722 
L 342.348064 163.734156 
L 342.357855 208.304581 
L 342.565903 143.223016 
L 343.349144 189.260455 
L 344.225395 203.203872 
L 344.333091 181.768821 
L 344.337986 192.414693 
L 345.155494 139.221347 
L 344.64394 207.578924 
L 345.334171 200.083153 
L 345.627886 168.728684 
L 345.630334 210.47853 
L 346.342594 180.830166 
L 346.73911 209.8459 
L 346.663233 135.674738 
L 347.343674 196.441767 
L 347.715713 122.625956 
L 347.830752 209.192427 
L 348.344754 129.903213 
L 349.299329 207.780095 
L 348.511192 94.959015 
L 349.345834 190.867646 
L 349.433948 210.06208 
L 350.08257 125.605595 
L 350.231875 172.969021 
L 350.234323 146.86244 
L 350.23677 204.127889 
L 351.230508 185.451471 
L 351.959901 206.669651 
L 351.742062 119.444245 
L 351.996615 165.987183 
L 351.999063 139.247335 
L 352.038225 209.664618 
L 352.9928 194.938741 
L 353.00259 141.244192 
L 353.988985 212.888282 
L 353.991432 195.375981 
L 354.669425 212.328049 
L 354.777121 152.577216 
L 354.982722 199.203847 
L 355.420847 152.761786 
L 355.491828 208.524633 
L 355.981354 203.10151 
L 356.228565 140.40355 
L 356.407241 210.961117 
L 356.982434 186.080441 
L 357.486646 207.288279 
L 357.85379 157.088574 
L 357.983514 202.55724 
L 358.979699 158.577333 
L 358.925851 212.51002 
L 358.984594 170.069469 
L 359.023756 212.065779 
L 359.601396 152.364536 
L 359.995465 205.429956 
L 360.002807 157.673576 
L 360.472752 214.793915 
L 360.994097 207.260912 
L 361.982939 211.442961 
L 361.233965 179.983106 
L 361.992729 209.228439 
L 362.051472 200.266928 
L 362.96199 219.78908 
L 362.986466 219.468999 
L 363.243467 219.015477 
L 364.467282 229.545223 
L 364.846664 232.738539 
L 365.147722 231.50292 
L 365.514866 222.301619 
L 366.019078 239.717126 
L 366.146355 231.076693 
L 366.57469 232.706568 
L 366.853719 235.553418 
L 366.856167 231.6254 
L 367.487655 231.625163 
L 389.839397 231.625198 
L 390.742572 83.36823 
L 390.84782 146.008538 
L 391.582108 199.537293 
L 391.070554 61.764521 
L 391.853795 196.961268 
L 392.225835 113.059607 
L 392.289473 204.797804 
L 392.854875 175.723252 
L 393.581821 213.019762 
L 393.18041 149.24753 
L 393.86085 198.754514 
L 394.203518 123.132463 
L 394.609825 217.212472 
L 394.778711 186.783822 
L 394.874168 212.996638 
L 395.258446 166.680381 
L 395.777343 206.322734 
L 396.773528 159.198931 
L 396.28645 211.93536 
L 396.775976 205.311046 
L 397.116196 213.372513 
L 397.045215 134.338197 
L 397.750132 188.092095 
L 398.325324 142.477841 
L 398.572535 208.424074 
L 398.746316 170.109247 
L 399.00087 212.004945 
L 398.964155 116.934517 
L 399.744949 178.976404 
L 399.90894 205.551465 
L 400.582038 109.880017 
L 400.726448 191.486327 
L 400.821905 97.575879 
L 401.357936 207.481494 
L 401.727528 108.999597 
L 402.630703 206.314619 
L 402.417759 39.743938 
L 402.728608 165.65623 
L 403.06638 207.78333 
L 402.909732 97.359486 
L 403.72724 169.339144 
L 404.645101 209.106453 
L 403.866755 122.381984 
L 404.738111 182.316008 
L 405.712267 163.756962 
L 405.609466 208.052442 
L 405.724505 190.290122 
L 406.316831 210.651591 
L 405.991296 158.774101 
L 406.72069 180.824544 
L 406.762299 210.611972 
L 407.038881 169.557128 
L 407.729112 203.190719 
L 408.686135 173.981505 
L 407.949399 208.044274 
L 408.730192 182.237619 
L 408.894184 211.171569 
L 409.381262 139.604807 
L 409.704349 187.756528 
L 409.824282 132.146163 
L 409.851206 207.708229 
L 410.702981 174.582418 
L 410.913477 207.091139 
L 411.292859 127.204672 
L 411.699166 174.422775 
L 412.281701 143.632464 
L 412.621922 208.090575 
L 412.692903 187.671933 
L 412.69535 187.654006 
L 412.697798 210.042934 
L 412.702693 157.129943 
L 413.693983 201.698247 
L 413.794335 152.154508 
L 414.291204 207.464947 
L 414.692615 181.202542 
L 415.373056 210.401572 
L 415.047521 150.15606 
L 415.691247 193.118764 
L 416.655613 165.434533 
L 416.518546 209.983267 
L 416.684985 194.31412 
L 416.944433 209.062591 
L 416.694775 169.554476 
L 417.683617 204.921752 
L 418.577001 137.596282 
L 418.662668 213.93524 
L 418.682249 161.139568 
L 418.792393 214.003658 
L 419.683329 188.27465 
L 420.030892 211.872458 
L 419.964807 172.983872 
L 420.684409 200.037753 
L 420.689305 211.678977 
L 420.740705 179.748522 
L 420.823924 207.599396 
L 420.826372 175.253871 
L 421.446438 214.863765 
L 421.823372 204.499044 
L 421.842953 204.344069 
L 422.139116 217.183672 
L 422.15625 198.813969 
L 422.844033 210.699961 
L 423.872037 221.940381 
L 422.861167 210.525839 
L 423.906304 220.41614 
L 423.984628 218.951142 
L 424.711574 226.425613 
L 424.728707 225.922904 
L 425.039556 233.911545 
L 424.73605 225.594337 
L 425.78853 230.174999 
L 426.153227 232.289472 
L 426.155674 229.263425 
L 426.202179 230.664513 
L 426.204627 201.830628 
L 426.537504 243.587846 
L 427.200812 232.580573 
L 427.396622 234.31587 
L 427.39907 231.599795 
L 428.02811 231.625163 
L 449.357559 231.61663 
L 449.357559 231.615875 
L 450.165277 188.442036 
L 450.361087 202.228833 
L 450.381484 178.610977 
L 450.495707 206.914207 
L 450.650723 189.337731 
L 451.103534 148.949991 
L 450.862851 208.561759 
L 451.650171 183.87414 
L 451.727679 200.688575 
L 451.674648 140.152683 
L 451.980601 165.870501 
L 452.38038 107.601001 
L 452.576191 205.259759 
L 452.97597 194.517837 
L 452.980049 194.496463 
L 453.873434 210.579566 
L 453.17178 143.955992 
L 453.979498 191.564876 
L 454.538373 214.182765 
L 454.024371 140.613047 
L 454.978946 201.547144 
L 455.252264 153.000454 
L 455.660202 209.307677 
L 455.974315 197.499969 
L 456.908493 215.14306 
L 456.039585 162.09371 
L 456.973763 203.602501 
L 457.557114 169.282924 
L 457.165494 213.229684 
L 457.703972 194.267129 
" clip-path="url(#p5341c8b7cf)" style="fill: none; stroke: #ff0000; stroke-linecap: square"/>
   </g>
   <g id="Kashiwagi.dat">
    <path d="M 80.593387 231.377325 
L 87.046559 231.625163 
L 89.812379 232.616537 
L 90.733913 177.596 
L 90.964397 169.666918 
L 91.194881 193.706099 
L 91.194881 174.620602 
L 93.268428 205.850064 
L 93.961926 203.867529 
L 93.729402 206.345433 
L 94.422895 204.858796 
L 95.573281 208.576186 
L 96.266774 208.080287 
L 97.188717 203.867529 
L 101.798413 187.26206 
L 103.181324 187.26206 
L 103.870742 191.723031 
L 105.025204 192.466616 
L 106.636559 215.020226 
L 106.869084 219.481198 
L 107.558501 217.498132 
L 107.791026 203.867529 
L 107.791026 166.442243 
L 108.251994 194.449684 
L 108.480439 187.757961 
L 109.173937 195.688636 
L 111.013736 191.475348 
L 111.246261 193.210201 
L 111.246261 194.697368 
L 112.396647 194.945051 
L 114.701496 201.140876 
L 117.928286 204.610582 
L 119.082753 204.115213 
L 119.082753 202.628046 
L 120.00469 207.089018 
L 121.84857 215.763278 
L 123.692449 229.14678 
L 125.07536 231.377325 
L 150.196177 231.129486 
L 150.88968 169.168365 
L 151.350644 161.981802 
L 152.268506 199.406026 
L 152.961999 203.867529 
L 153.190443 205.850064 
L 154.11239 204.362896 
L 155.956265 208.82387 
L 162.181402 186.766692 
L 162.87082 190.731763 
L 163.792757 192.466616 
L 164.48625 190.97945 
L 164.48625 180.074966 
L 164.48625 200.893193 
L 164.48625 200.893193 
L 165.636641 191.475348 
L 165.636641 197.919388 
L 165.636641 230.138154 
L 165.175668 165.69972 
L 166.330135 217.746346 
L 166.791098 175.119155 
L 167.252072 198.662442 
L 168.174009 206.09775 
L 168.634983 203.123944 
L 168.863427 191.723031 
L 169.095956 184.04004 
L 170.707312 190.731763 
L 173.01216 192.466616 
L 174.62759 200.893193 
L 176.932439 204.362896 
L 178.31535 207.584918 
L 180.159234 209.319769 
L 183.614464 222.207318 
L 184.768931 229.14678 
L 186.380286 231.377325 
L 210.811699 231.377325 
L 210.350726 219.976566 
L 211.733637 165.450447 
L 212.423055 184.535941 
L 213.577521 206.841333 
L 214.727903 203.371628 
L 214.960442 205.354166 
L 215.64984 207.584918 
L 217.032761 206.345433 
L 218.187218 200.893193 
L 219.570119 196.184537 
L 221.181484 188.996913 
L 223.025359 188.501543 
L 224.640789 192.466616 
L 225.101763 189.492811 
L 224.869234 195.440953 
L 224.869234 196.679905 
L 226.713128 192.714831 
L 226.484684 168.924395 
L 226.484684 163.716122 
L 226.252154 231.873001 
L 227.174101 210.558721 
L 230.172433 191.971249 
L 230.861851 190.236396 
L 231.322824 191.723031 
L 232.244772 193.210201 
L 234.54962 199.654241 
L 238.698343 206.593649 
L 241.464165 212.04589 
L 245.841332 231.377325 
L 270.044311 231.625163 
L 270.733709 229.642467 
L 271.655657 198.167071 
L 272.577604 185.031839 
L 272.577604 196.679905 
L 273.038577 202.132676 
L 274.421478 205.602381 
L 275.343425 204.115213 
L 275.343425 203.123944 
L 275.80438 207.832601 
L 276.265353 207.584918 
L 277.876718 204.858796 
L 282.718944 186.766692 
L 284.562819 194.945051 
L 286.867667 198.414758 
L 287.789614 202.132676 
L 288.018058 202.628046 
L 288.711542 201.884461 
L 289.40096 195.688636 
L 290.322907 193.706099 
L 291.705808 191.227664 
L 291.938337 192.962518 
L 293.088729 194.20147 
L 293.549702 194.20147 
L 294.47163 197.919388 
L 295.626106 201.140876 
L 301.847148 212.789473 
L 303.462598 220.472466 
L 306.456845 231.377325 
L 331.577686 231.129486 
L 332.499614 172.393033 
L 334.343508 205.106481 
L 334.576018 206.593649 
L 335.497965 204.362896 
L 335.726409 206.345433 
L 336.648356 210.558721 
L 342.17998 188.996913 
L 343.334457 188.749229 
L 345.406776 193.706099 
L 347.022206 199.901924 
L 348.405127 206.841333 
L 350.016472 193.953783 
L 350.477446 190.97945 
L 351.631922 190.236396 
L 353.243268 196.184537 
L 356.470063 202.380359 
L 356.931037 204.858796 
L 359.696859 206.345433 
L 361.769178 213.533058 
L 363.845582 220.968366 
L 365.456927 228.651093 
L 365.917901 231.377325 
L 371.682074 231.873001 
L 375.830797 230.385998 
L 375.830797 225.429338 
L 376.29177 229.890311 
L 380.901467 230.385998 
L 391.042846 230.385998 
L 391.042846 229.890311 
L 391.964754 201.884461 
L 391.964754 182.057503 
L 391.732264 177.596 
L 392.654172 177.102753 
L 392.654172 166.198273 
L 393.576119 197.671173 
L 393.808649 201.636778 
L 394.269622 204.610582 
L 397.492313 208.080287 
L 397.724842 207.584918 
L 398.41426 203.123944 
L 401.412631 190.97945 
L 402.102049 188.005645 
L 402.334539 188.253328 
L 403.71746 189.492811 
L 406.022327 197.919388 
L 406.944275 203.371628 
L 409.016574 204.858796 
L 410.171051 196.679905 
L 411.092998 192.466616 
L 412.475879 192.218933 
L 412.936853 195.192738 
L 414.548218 196.184537 
L 416.624641 202.132676 
L 420.540835 206.09775 
L 425.150532 228.155406 
L 425.383061 230.138154 
L 426.765982 232.120839 
L 434.369925 232.616537 
L 451.42583 232.120839 
L 452.347777 229.642467 
L 451.886803 225.429338 
L 451.886803 214.77201 
L 452.808711 169.417638 
L 454.191632 203.123944 
L 457.879382 209.072084 
L 460.877752 198.414758 
L 461.816 188.253328 
L 463.855698 186.518478 
L 465.732194 188.005645 
L 468.465395 209.319769 
L 469.158898 217.002761 
L 470.097145 211.302306 
L 470.341891 188.996913 
L 471.239367 192.218933 
L 471.688086 190.484079 
L 472.626373 188.005645 
L 472.871118 188.253328 
L 473.319875 193.457885 
L 474.258123 194.697368 
L 475.155561 200.149608 
L 476.991285 204.858796 
L 477.929572 206.09775 
L 478.378291 202.87573 
L 478.623036 199.901924 
L 479.316539 208.328501 
L 480.703544 205.602381 
L 485.517214 226.91624 
L 486.210717 230.881632 
L 487.148965 226.91624 
L 487.39371 231.377325 
L 491.758662 231.873001 
L 504.44553 231.625163 
L 504.44553 231.625163 
" clip-path="url(#p5341c8b7cf)" style="fill: none; stroke-dasharray: 5.55,2.4; stroke-dashoffset: 0; stroke: #000000; stroke-width: 1.5"/>
   </g>
   <g id="patch_3">
    <path d="M 82.229626 252.840108 
L 82.229626 51.298128 
" style="fill: none; stroke: #000000; stroke-width: 1.7; stroke-linejoin: miter; stroke-linecap: square"/>
   </g>
   <g id="patch_4">
    <path d="M 82.229626 252.840108 
L 500.366134 252.840108 
" style="fill: none; stroke: #000000; stroke-width: 1.7; stroke-linejoin: miter; stroke-linecap: square"/>
   </g>
   <g id="x_title_text">
    <!-- $t \, \mathrm{[s]}$ -->
    <g transform="translate(485.336753 276.515074)">
     <text>
      <tspan style="font: italic 15px 'Times New Roman'" x="0" y="-0.84375">t</tspan>
      <tspan style="font: 15px 'Times New Roman'" x="5.972936 10.968054 16.805456" y="-0.84375">[s]</tspan>
     </text>
    </g>
   </g>
   <g id="y_title_text">
    <!-- $\mathrm{Pressure \, [N/m^2]}$ -->
    <g transform="translate(2.997148 36.474588)">
     <text>
      <tspan style="font: 15px 'Times New Roman'" x="0 8.342285 13.337402 19.995117 25.83252 31.669922 39.169922 44.165039 52.62821 57.623327 68.455847 72.623327 90.410292" y="-0.8846875000000018">Pressure[N/m]</tspan>
      <tspan style="font: 10.5px 'Times New Roman'" x="84.516229" y="-9.9015625">2</tspan>
     </text>
    </g>
   </g>
   <g id="legend_1">
    <g id="patch_5">
     <path d="M 384.656134 46.717427 
L 500.366134 46.717427 
L 500.366134 2.928052 
L 384.656134 2.928052 
z
" style="fill: #ffffff; stroke: #000000; stroke-linejoin: miter"/>
    </g>
    <g id="line2d_42">
     <path d="M 390.256134 13.428052 
L 404.256134 13.428052 
L 418.256134 13.428052 
" style="fill: none; stroke: #ff0000; stroke-linecap: square"/>
    </g>
    <g id="text_10">
     <text style="font: 14px 'Times New Roman'; text-anchor: start" x="429.456134" y="18.328052" transform="rotate(-0 429.456134 18.328052)">Numerical</text>
    </g>
    <g id="line2d_43">
     <path d="M 390.256134 33.22274 
L 404.256134 33.22274 
L 418.256134 33.22274 
" style="fill: none; stroke-dasharray: 5.55,2.4; stroke-dashoffset: 0; stroke: #000000; stroke-width: 1.5"/>
    </g>
    <g id="text_11">
     <text style="font: 14px 'Times New Roman'; text-anchor: start" x="429.456134" y="38.12274" transform="rotate(-0 429.456134 38.12274)">Experiment</text>
    </g>
   </g>
  </g>
 </g>
 <defs>
  <clipPath id="p5341c8b7cf">
   <rect x="82.229626" y="51.298128" width="418.136508" height="201.541981"/>
  </clipPath>
 </defs>
</svg>
