<?xml version="1.0" encoding="utf-8" standalone="no"?>
<!DOCTYPE svg PUBLIC "-//W3C//DTD SVG 1.1//EN"
  "http://www.w3.org/Graphics/SVG/1.1/DTD/svg11.dtd">
<svg xmlns:xlink="http://www.w3.org/1999/xlink" width="510.23622pt" height="226.771654pt" viewBox="0 0 510.23622 226.771654" xmlns="http://www.w3.org/2000/svg" version="1.1">
 <metadata>
  <rdf:RDF xmlns:dc="http://purl.org/dc/elements/1.1/" xmlns:cc="http://creativecommons.org/ns#" xmlns:rdf="http://www.w3.org/1999/02/22-rdf-syntax-ns#">
   <cc:Work>
    <dc:type rdf:resource="http://purl.org/dc/dcmitype/StillImage"/>
    <dc:date>2024-12-02T12:33:12.000479</dc:date>
    <dc:format>image/svg+xml</dc:format>
    <dc:creator>
     <cc:Agent>
      <dc:title>Matplotlib v3.9.2, https://matplotlib.org/</dc:title>
     </cc:Agent>
    </dc:creator>
   </cc:Work>
  </rdf:RDF>
 </metadata>
 <defs>
  <style type="text/css">*{stroke-linejoin: round; stroke-linecap: butt}</style>
 </defs>
 <g id="figure_1">
  <g id="patch_1">
   <path d="M 0 226.771654 
L 510.23622 226.771654 
L 510.23622 0 
L 0 0 
z
" style="fill: #ffffff"/>
  </g>
  <g id="axes_1">
   <g id="patch_2">
    <path d="M 36.787462 204.600374 
L 497.62848 204.600374 
L 497.62848 54.424835 
L 36.787462 54.424835 
z
" style="fill: #ffffff"/>
   </g>
   <g id="matplotlib.axis_1">
    <g id="xtick_1">
     <g id="line2d_1">
      <defs>
       <path id="m2e02d136bb" d="M 0 0 
L 0 4 
" style="stroke: #000000; stroke-width: 0.8"/>
      </defs>
      <g>
       <use xlink:href="#m2e02d136bb" x="36.787462" y="204.600374" style="stroke: #000000; stroke-width: 0.8"/>
      </g>
     </g>
     <g id="text_1">
      <text style="font: 11px 'Times New Roman'; text-anchor: middle" x="36.787462" y="220.238499" transform="rotate(-0 36.787462 220.238499)">0.0</text>
     </g>
    </g>
    <g id="xtick_2">
     <g id="line2d_2">
      <g>
       <use xlink:href="#m2e02d136bb" x="267.207971" y="204.600374" style="stroke: #000000; stroke-width: 0.8"/>
      </g>
     </g>
     <g id="text_2">
      <text style="font: 11px 'Times New Roman'; text-anchor: middle" x="267.207971" y="220.238499" transform="rotate(-0 267.207971 220.238499)">10.0</text>
     </g>
    </g>
    <g id="xtick_3">
     <g id="line2d_3">
      <g>
       <use xlink:href="#m2e02d136bb" x="497.62848" y="204.600374" style="stroke: #000000; stroke-width: 0.8"/>
      </g>
     </g>
     <g id="text_3">
      <text style="font: 11px 'Times New Roman'; text-anchor: middle" x="497.62848" y="220.238499" transform="rotate(-0 497.62848 220.238499)">20.0</text>
     </g>
    </g>
    <g id="xtick_4">
     <g id="line2d_4">
      <defs>
       <path id="mb3ea81f6c5" d="M 0 0 
L 0 2 
" style="stroke: #000000; stroke-width: 0.8"/>
      </defs>
      <g>
       <use xlink:href="#mb3ea81f6c5" x="94.39259" y="204.600374" style="stroke: #000000; stroke-width: 0.8"/>
      </g>
     </g>
    </g>
    <g id="xtick_5">
     <g id="line2d_5">
      <g>
       <use xlink:href="#mb3ea81f6c5" x="151.997717" y="204.600374" style="stroke: #000000; stroke-width: 0.8"/>
      </g>
     </g>
    </g>
    <g id="xtick_6">
     <g id="line2d_6">
      <g>
       <use xlink:href="#mb3ea81f6c5" x="209.602844" y="204.600374" style="stroke: #000000; stroke-width: 0.8"/>
      </g>
     </g>
    </g>
    <g id="xtick_7">
     <g id="line2d_7">
      <g>
       <use xlink:href="#mb3ea81f6c5" x="324.813099" y="204.600374" style="stroke: #000000; stroke-width: 0.8"/>
      </g>
     </g>
    </g>
    <g id="xtick_8">
     <g id="line2d_8">
      <g>
       <use xlink:href="#mb3ea81f6c5" x="382.418226" y="204.600374" style="stroke: #000000; stroke-width: 0.8"/>
      </g>
     </g>
    </g>
    <g id="xtick_9">
     <g id="line2d_9">
      <g>
       <use xlink:href="#mb3ea81f6c5" x="440.023353" y="204.600374" style="stroke: #000000; stroke-width: 0.8"/>
      </g>
     </g>
    </g>
   </g>
   <g id="matplotlib.axis_2">
    <g id="ytick_1">
     <g id="line2d_10">
      <defs>
       <path id="m29fbb04d64" d="M 0 0 
L -4 0 
" style="stroke: #000000; stroke-width: 0.8"/>
      </defs>
      <g>
       <use xlink:href="#m29fbb04d64" x="36.787462" y="193.87355" style="stroke: #000000; stroke-width: 0.8"/>
      </g>
     </g>
     <g id="text_4">
      <text style="font: 11px 'Times New Roman'; text-anchor: end" x="28.787462" y="197.692612" transform="rotate(-0 28.787462 197.692612)">−0.1</text>
     </g>
    </g>
    <g id="ytick_2">
     <g id="line2d_11">
      <g>
       <use xlink:href="#m29fbb04d64" x="36.787462" y="140.239429" style="stroke: #000000; stroke-width: 0.8"/>
      </g>
     </g>
     <g id="text_5">
      <text style="font: 11px 'Times New Roman'; text-anchor: end" x="28.787462" y="144.058491" transform="rotate(-0 28.787462 144.058491)">0.0</text>
     </g>
    </g>
    <g id="ytick_3">
     <g id="line2d_12">
      <g>
       <use xlink:href="#m29fbb04d64" x="36.787462" y="86.605308" style="stroke: #000000; stroke-width: 0.8"/>
      </g>
     </g>
     <g id="text_6">
      <text style="font: 11px 'Times New Roman'; text-anchor: end" x="28.787462" y="90.42437" transform="rotate(-0 28.787462 90.42437)">0.1</text>
     </g>
    </g>
    <g id="ytick_4">
     <g id="line2d_13">
      <defs>
       <path id="me632c0e1af" d="M 0 0 
L -2 0 
" style="stroke: #000000; stroke-width: 0.8"/>
      </defs>
      <g>
       <use xlink:href="#me632c0e1af" x="36.787462" y="180.465019" style="stroke: #000000; stroke-width: 0.8"/>
      </g>
     </g>
    </g>
    <g id="ytick_5">
     <g id="line2d_14">
      <g>
       <use xlink:href="#me632c0e1af" x="36.787462" y="167.056489" style="stroke: #000000; stroke-width: 0.8"/>
      </g>
     </g>
    </g>
    <g id="ytick_6">
     <g id="line2d_15">
      <g>
       <use xlink:href="#me632c0e1af" x="36.787462" y="153.647959" style="stroke: #000000; stroke-width: 0.8"/>
      </g>
     </g>
    </g>
    <g id="ytick_7">
     <g id="line2d_16">
      <g>
       <use xlink:href="#me632c0e1af" x="36.787462" y="126.830898" style="stroke: #000000; stroke-width: 0.8"/>
      </g>
     </g>
    </g>
    <g id="ytick_8">
     <g id="line2d_17">
      <g>
       <use xlink:href="#me632c0e1af" x="36.787462" y="113.422368" style="stroke: #000000; stroke-width: 0.8"/>
      </g>
     </g>
    </g>
    <g id="ytick_9">
     <g id="line2d_18">
      <g>
       <use xlink:href="#me632c0e1af" x="36.787462" y="100.013838" style="stroke: #000000; stroke-width: 0.8"/>
      </g>
     </g>
    </g>
    <g id="ytick_10">
     <g id="line2d_19">
      <g>
       <use xlink:href="#me632c0e1af" x="36.787462" y="73.196777" style="stroke: #000000; stroke-width: 0.8"/>
      </g>
     </g>
    </g>
    <g id="ytick_11">
     <g id="line2d_20">
      <g>
       <use xlink:href="#me632c0e1af" x="36.787462" y="59.788247" style="stroke: #000000; stroke-width: 0.8"/>
      </g>
     </g>
    </g>
   </g>
   <g id="d-SPHC-VCS.dat">
    <path d="M 36.787462 193.860248 
L 37.939565 192.177837 
L 40.24377 176.617029 
L 49.46059 76.055476 
L 50.612693 79.340995 
L 52.916898 99.656452 
L 58.677411 164.001543 
L 60.981616 178.881231 
L 63.285821 182.674767 
L 64.437924 180.927919 
L 66.742129 170.667369 
L 69.046334 152.508389 
L 75.958949 86.089347 
L 77.111052 84.406255 
L 78.263154 86.796202 
L 80.567359 104.137342 
L 87.479974 180.412656 
L 89.78418 189.245805 
L 90.936282 189.79748 
L 92.088385 187.745326 
L 94.39259 170.863166 
L 99.001 102.015753 
L 102.457308 64.876623 
L 103.60941 65.010709 
L 105.913615 89.966794 
L 111.674128 173.678211 
L 113.978333 185.727229 
L 116.282538 184.991728 
L 117.434641 181.506916 
L 122.043051 145.553049 
L 127.803564 97.519202 
L 130.107769 92.81763 
L 131.259871 94.994784 
L 133.564076 108.184572 
L 142.780897 188.795519 
L 143.932999 188.756479 
L 145.085102 185.296177 
L 147.389307 168.688967 
L 151.997717 108.195642 
L 155.454025 74.386972 
L 156.606127 73.389699 
L 158.910332 89.482456 
L 166.97505 187.837405 
L 169.279255 190.165608 
L 170.431358 187.432397 
L 172.735563 171.437533 
L 180.800281 85.774354 
L 181.952383 83.135126 
L 184.256588 95.486024 
L 193.473409 176.294875 
L 195.777614 180.992087 
L 198.081819 176.555719 
L 200.386024 166.228941 
L 203.842332 130.734068 
L 208.450742 79.083819 
L 209.602844 75.248604 
L 210.754947 77.330359 
L 213.059152 100.488323 
L 218.819665 180.960078 
L 221.12387 190.553989 
L 222.275972 190.791229 
L 223.428075 187.310053 
L 225.73228 171.26326 
L 230.34069 116.752908 
L 233.796998 80.730869 
L 234.9491 78.612644 
L 236.101203 82.105029 
L 238.405408 103.328421 
L 245.318023 179.090683 
L 247.622228 182.528201 
L 248.774331 181.582148 
L 251.078536 174.105488 
L 254.534843 149.481778 
L 261.447459 90.225096 
L 262.599561 89.069769 
L 264.903766 100.406558 
L 268.360074 134.435208 
L 272.968484 181.568032 
L 275.272689 188.463792 
L 276.424792 187.987339 
L 277.576894 184.241398 
L 279.881099 166.71875 
L 284.48951 100.252204 
L 286.793715 72.711549 
L 287.945817 69.198675 
L 289.09792 73.251162 
L 291.402125 98.757346 
L 297.162638 173.285341 
L 299.466843 184.022774 
L 300.618945 184.496562 
L 302.92315 177.84289 
L 306.379458 156.265647 
L 314.444176 89.369803 
L 315.596278 91.106363 
L 317.900483 105.274642 
L 327.117304 183.121469 
L 328.269406 184.327679 
L 329.421509 183.058942 
L 331.725714 172.935277 
L 335.182022 138.535575 
L 340.942534 76.758029 
L 342.094637 75.773629 
L 343.246739 80.471709 
L 345.550945 108.335783 
L 350.159355 175.24945 
L 352.46356 186.87265 
L 353.615662 188.399662 
L 354.767765 187.289082 
L 355.919867 183.330025 
L 359.376175 153.689901 
L 365.136688 93.575523 
L 366.28879 88.951361 
L 367.440893 89.191529 
L 368.592995 92.828689 
L 372.049303 122.721876 
L 376.657713 165.603889 
L 380.114021 179.105158 
L 381.266123 180.758688 
L 382.418226 179.851504 
L 384.722431 169.637009 
L 388.178739 138.012335 
L 393.939251 80.768467 
L 395.091354 80.607833 
L 397.395559 97.648745 
L 404.308174 179.802751 
L 406.612379 187.79748 
L 407.764482 187.604938 
L 410.068687 177.865862 
L 413.524995 143.826616 
L 419.285507 80.215392 
L 420.43761 80.974529 
L 422.741815 94.031799 
L 430.806533 176.407276 
L 433.110738 178.924685 
L 434.26284 177.962221 
L 436.567046 169.378251 
L 440.023353 145.15825 
L 445.783866 94.400657 
L 446.935968 90.823406 
L 448.088071 91.191835 
L 449.240174 95.138201 
L 451.544379 114.038882 
L 458.456994 184.185559 
L 460.761199 187.853377 
L 461.913302 185.319433 
L 464.217507 170.098338 
L 467.673814 129.379919 
L 472.282224 78.916481 
L 473.434327 78.13707 
L 474.58643 83.400937 
L 478.042737 122.966828 
L 481.499045 165.829812 
L 484.955352 182.909797 
L 486.107455 183.916713 
L 488.41166 176.821106 
L 490.715865 162.533883 
L 498.780583 92.175318 
L 501.084788 95.819194 
L 503.388993 112.443063 
L 509.149506 166.522942 
L 511.23622 178.324952 
L 511.23622 178.324952 
" clip-path="url(#pa80ce4a390)" style="fill: none; stroke: #00ffff; stroke-width: 2.5; stroke-linecap: square"/>
   </g>
   <g id="d-SPHC.dat">
    <path d="M 36.787462 193.860248 
L 37.939565 192.163898 
L 40.24377 176.458347 
L 49.46059 74.309095 
L 50.612693 77.956484 
L 52.916898 98.029338 
L 58.677411 163.774188 
L 60.981616 177.300553 
L 63.285821 180.669811 
L 64.437924 179.889922 
L 66.742129 170.200924 
L 70.198436 139.197363 
L 74.806846 90.603919 
L 77.111052 82.205593 
L 78.263154 84.079409 
L 80.567359 101.672264 
L 87.479974 178.259702 
L 89.78418 189.090818 
L 90.936282 189.330504 
L 93.240487 178.993471 
L 95.544692 154.993805 
L 102.457308 61.19153 
L 103.60941 61.953456 
L 104.761513 70.45779 
L 112.82623 179.153263 
L 115.130436 185.532489 
L 116.282538 184.049377 
L 118.586743 172.188438 
L 122.043051 143.394169 
L 127.803564 94.003341 
L 130.107769 88.859984 
L 131.259871 91.311385 
L 133.564076 106.304702 
L 141.628794 184.117798 
L 142.780897 187.024328 
L 143.932999 186.078216 
L 146.237204 176.822705 
L 148.541409 154.108917 
L 155.454025 68.201456 
L 156.606127 67.426979 
L 158.910332 84.411565 
L 166.97505 185.114824 
L 169.279255 189.881187 
L 170.431358 186.349144 
L 172.735563 169.159435 
L 177.343973 110.46612 
L 180.800281 79.579559 
L 181.952383 79.750599 
L 184.256588 92.266941 
L 193.473409 173.263813 
L 195.777614 178.842577 
L 196.929716 179.297077 
L 198.081819 177.507023 
L 200.386024 165.377484 
L 203.842332 126.580325 
L 208.450742 69.607582 
L 209.602844 65.204489 
L 210.754947 68.471772 
L 213.059152 97.271144 
L 218.819665 178.966021 
L 221.12387 189.042365 
L 222.275972 189.645352 
L 223.428075 186.906177 
L 225.73228 171.411392 
L 229.188587 128.082885 
L 233.796998 74.041997 
L 234.9491 71.771558 
L 236.101203 74.969492 
L 239.55751 114.534016 
L 244.165921 167.496648 
L 246.470126 178.308322 
L 248.774331 179.83846 
L 249.926433 177.803024 
L 252.230638 165.950157 
L 255.686946 136.445772 
L 260.295356 87.682018 
L 261.447459 82.926275 
L 262.599561 82.675375 
L 264.903766 94.178966 
L 275.272689 187.947441 
L 276.424792 187.711563 
L 277.576894 184.567338 
L 279.881099 167.32496 
L 283.337407 110.555597 
L 286.793715 59.771245 
L 287.945817 60.237862 
L 289.09792 63.262236 
L 292.554227 113.643303 
L 296.010535 158.593679 
L 299.466843 179.090602 
L 300.618945 179.439712 
L 302.92315 176.810476 
L 305.227355 168.282978 
L 307.531561 147.419729 
L 313.292073 82.333993 
L 314.444176 81.265816 
L 315.596278 83.83001 
L 317.900483 100.269587 
L 327.117304 179.387703 
L 328.269406 181.994697 
L 329.421509 181.561649 
L 330.573611 179.277871 
L 332.877817 166.002074 
L 336.334124 122.383273 
L 339.790432 74.940262 
L 340.942534 68.207517 
L 342.094637 68.87612 
L 343.246739 75.536083 
L 353.615662 185.554281 
L 354.767765 186.88394 
L 355.919867 184.990211 
L 358.224073 172.592533 
L 361.68038 129.457029 
L 365.136688 85.036241 
L 366.28879 78.985079 
L 367.440893 78.619133 
L 368.592995 81.225108 
L 370.897201 98.561721 
L 377.809816 162.877131 
L 380.114021 174.356184 
L 382.418226 178.699974 
L 383.570329 176.984959 
L 385.874534 165.523835 
L 389.330841 129.580913 
L 393.939251 84.072275 
L 395.091354 80.569324 
L 396.243457 82.038845 
L 398.547662 97.325776 
L 407.764482 185.249617 
L 408.916585 187.72273 
L 410.068687 186.355049 
L 412.372892 172.827027 
L 414.677097 145.3616 
L 420.43761 64.647874 
L 421.589713 67.688982 
L 427.350225 129.210682 
L 430.806533 164.174942 
L 433.110738 176.077968 
L 435.414943 179.636093 
L 436.567046 177.534129 
L 438.871251 164.699253 
L 442.327558 131.528421 
L 446.935968 86.498844 
L 448.088071 84.446159 
L 449.240174 85.982615 
L 451.544379 100.625749 
L 457.304891 153.234241 
L 460.761199 176.444767 
L 463.065404 182.328698 
L 464.217507 180.089162 
L 466.521712 166.988395 
L 468.825917 140.024007 
L 473.434327 73.883669 
L 474.58643 68.606662 
L 475.738532 69.497954 
L 476.890635 75.093548 
L 487.259558 180.606184 
L 488.41166 183.882285 
L 489.563763 182.846176 
L 491.867968 173.426485 
L 496.476378 119.489251 
L 499.932686 80.20681 
L 501.084788 77.970321 
L 503.388993 88.140724 
L 505.693198 109.4238 
L 509.149506 144.653169 
L 511.23622 160.629389 
L 511.23622 160.629389 
" clip-path="url(#pa80ce4a390)" style="fill: none; stroke: #ff0000; stroke-width: 1.4; stroke-linecap: square"/>
   </g>
   <g id="Theory.dat">
    <path d="M 36.787462 193.87355 
L 37.939565 191.816539 
L 40.24377 175.78224 
L 44.85218 112.04352 
L 48.308488 76.993918 
L 49.46059 75.275748 
L 50.612693 79.355556 
L 52.916898 101.848395 
L 58.677411 169.269187 
L 60.981616 178.26402 
L 62.133718 178.886557 
L 63.285821 177.560221 
L 65.590026 169.984645 
L 67.894231 155.424382 
L 75.958949 84.17359 
L 77.111052 84.036618 
L 78.263154 88.418322 
L 80.567359 108.440644 
L 87.479974 182.79511 
L 89.78418 190.78333 
L 90.936282 189.369865 
L 93.240487 174.190609 
L 96.696795 125.399309 
L 100.153102 77.986704 
L 101.305205 71.089159 
L 102.457308 70.649443 
L 103.60941 76.710093 
L 105.913615 104.34267 
L 111.674128 180.055574 
L 113.978333 187.242124 
L 115.130436 185.548967 
L 117.434641 174.079212 
L 120.890948 142.5081 
L 126.651461 89.071657 
L 127.803564 86.304198 
L 128.955666 87.658554 
L 131.259871 101.504846 
L 139.324589 173.475854 
L 141.628794 182.023762 
L 142.780897 182.998147 
L 143.932999 181.106794 
L 146.237204 166.8242 
L 149.693512 121.449701 
L 153.14982 78.055216 
L 154.301922 72.3497 
L 155.454025 72.880382 
L 157.75823 91.746373 
L 165.822948 191.12161 
L 166.97505 193.070085 
L 168.127153 190.988334 
L 170.431358 175.877953 
L 175.039768 117.469365 
L 178.496076 82.671369 
L 179.648178 79.474289 
L 180.800281 81.462585 
L 183.104486 99.058753 
L 190.017101 168.884992 
L 192.321306 176.138965 
L 193.473409 177.050064 
L 194.625511 176.405188 
L 196.929716 169.780386 
L 199.233921 153.842785 
L 207.298639 79.323543 
L 208.450742 81.806133 
L 210.754947 100.828859 
L 218.819665 190.473866 
L 219.971767 193.064478 
L 221.12387 191.648282 
L 223.428075 176.38051 
L 226.884382 128.373387 
L 230.34069 81.022011 
L 232.644895 72.120131 
L 233.796998 77.008127 
L 236.101203 102.120311 
L 241.861715 174.706379 
L 244.165921 182.801246 
L 245.318023 182.202061 
L 247.622228 174.26877 
L 251.078536 149.404547 
L 257.991151 88.177356 
L 259.143254 86.203575 
L 260.295356 88.361659 
L 262.599561 103.689654 
L 270.664279 180.277912 
L 272.968484 187.306043 
L 274.120587 186.10851 
L 276.424792 172.079873 
L 279.881099 124.897444 
L 283.337407 77.956043 
L 284.48951 71.06804 
L 285.641612 70.623206 
L 286.793715 76.696122 
L 289.09792 104.539319 
L 294.858433 182.77227 
L 297.162638 190.740553 
L 298.31474 188.880393 
L 300.618945 175.504355 
L 305.227355 124.059106 
L 308.683663 89.490738 
L 309.835766 84.494116 
L 310.987868 83.965592 
L 312.139971 87.906946 
L 314.444176 106.531346 
L 320.204689 162.533255 
L 323.660996 177.278119 
L 324.813099 178.888292 
L 325.965201 178.591692 
L 327.117304 175.930921 
L 329.421509 161.67821 
L 334.029919 103.84335 
L 336.334124 80.248108 
L 337.486227 75.393553 
L 338.638329 76.31441 
L 340.942534 94.553665 
L 349.007252 191.251507 
L 350.159355 193.838667 
L 351.311457 192.312181 
L 353.615662 177.284139 
L 357.07197 131.683631 
L 360.528278 85.83742 
L 362.832483 75.268806 
L 363.984585 78.566221 
L 366.28879 99.905777 
L 372.049303 168.075057 
L 374.353508 177.884547 
L 375.505611 178.838873 
L 376.657713 177.799725 
L 378.961918 170.768076 
L 381.266123 156.802648 
L 385.874534 110.00294 
L 389.330841 84.477735 
L 390.482944 83.673209 
L 391.635046 87.426351 
L 393.939251 106.580452 
L 400.851867 181.879506 
L 403.156072 190.760252 
L 404.308174 189.858997 
L 406.612379 175.756248 
L 410.068687 127.919024 
L 413.524995 79.377408 
L 415.8292 70.349559 
L 416.981302 75.568921 
L 419.285507 102.053034 
L 425.04602 178.921147 
L 427.350225 187.11631 
L 428.502328 185.852322 
L 430.806533 175.092123 
L 434.26284 144.285769 
L 440.023353 89.865187 
L 441.175456 86.497038 
L 442.327558 87.229081 
L 444.631763 100.063953 
L 453.848584 178.170237 
L 456.152789 183.138572 
L 457.304891 181.676825 
L 459.609096 168.362645 
L 463.065404 123.826146 
L 466.521712 79.206149 
L 467.673814 72.695336 
L 468.825917 72.370254 
L 469.978019 78.318648 
L 472.282224 105.442629 
L 478.042737 183.866225 
L 480.346942 193.006797 
L 481.499045 191.436738 
L 483.80325 177.24847 
L 487.259558 135.624958 
L 491.867968 83.628587 
L 493.02007 79.72782 
L 494.172173 80.988047 
L 496.476378 97.416122 
L 503.388993 167.938105 
L 505.693198 175.829337 
L 506.845301 177.008636 
L 507.997403 176.628403 
L 510.301608 170.624461 
L 511.23622 165.50308 
L 511.23622 165.50308 
" clip-path="url(#pa80ce4a390)" style="fill: none; stroke-dasharray: 3.7,1.6; stroke-dashoffset: 0; stroke: #808080"/>
   </g>
   <g id="patch_3">
    <path d="M 36.787462 204.600374 
L 36.787462 54.424835 
" style="fill: none; stroke: #000000; stroke-width: 0.8; stroke-linejoin: miter; stroke-linecap: square"/>
   </g>
   <g id="patch_4">
    <path d="M 497.62848 204.600374 
L 497.62848 54.424835 
" style="fill: none; stroke: #000000; stroke-width: 0.8; stroke-linejoin: miter; stroke-linecap: square"/>
   </g>
   <g id="patch_5">
    <path d="M 36.787462 204.600374 
L 497.62848 204.600374 
" style="fill: none; stroke: #000000; stroke-width: 0.8; stroke-linejoin: miter; stroke-linecap: square"/>
   </g>
   <g id="patch_6">
    <path d="M 36.787462 54.424835 
L 497.62848 54.424835 
" style="fill: none; stroke: #000000; stroke-width: 0.8; stroke-linejoin: miter; stroke-linecap: square"/>
   </g>
   <g id="x_title_text">
    <!-- $t \, \mathrm{(s)}$ -->
    <g transform="translate(430.533353 220.67281)">
     <text>
      <tspan style="font: italic 13px 'Times New Roman'" x="0" y="-0.96875">t</tspan>
      <tspan style="font: 13px 'Times New Roman'" x="5.176545 9.505647 14.564729" y="-0.96875">(s)</tspan>
     </text>
    </g>
   </g>
   <g id="y_title_text">
    <!-- $y \, \mathrm{(m)}$ -->
    <g transform="translate(3.744847 68.271659)">
     <text>
      <tspan style="font: italic 13px 'Times New Roman'" x="0" y="-0.96875">y</tspan>
      <tspan style="font: 13px 'Times New Roman'" x="7.334748 11.66385 21.775666" y="-0.96875">(m)</tspan>
     </text>
    </g>
   </g>
   <g id="legend_1">
    <g id="patch_7">
     <path d="M 36.787462 49.919569 
L 359.376175 49.919569 
L 359.376175 3.002381 
L 36.787462 3.002381 
z
" style="fill: #ffffff; stroke: #000000; stroke-linejoin: miter"/>
    </g>
    <g id="line2d_21">
     <path d="M 42.787462 14.252381 
L 57.787462 14.252381 
L 72.787462 14.252381 
" style="fill: none; stroke: #00ffff; stroke-width: 2.5; stroke-linecap: square"/>
    </g>
    <g id="text_7">
     <text style="font: 15px 'Times New Roman'; text-anchor: start" x="84.787462" y="19.502381" transform="rotate(-0 84.787462 19.502381)">Scheme-A</text>
    </g>
    <g id="line2d_22">
     <path d="M 42.787462 35.460975 
L 57.787462 35.460975 
L 72.787462 35.460975 
" style="fill: none; stroke: #ff0000; stroke-width: 2.5; stroke-linecap: square"/>
    </g>
    <g id="text_8">
     <text style="font: 15px 'Times New Roman'; text-anchor: start" x="84.787462" y="40.710975" transform="rotate(-0 84.787462 40.710975)">Scheme-B</text>
    </g>
    <g id="line2d_23">
     <path d="M 190.994144 14.252381 
L 205.994144 14.252381 
L 220.994144 14.252381 
" style="fill: none; stroke-dasharray: 9.25,4; stroke-dashoffset: 0; stroke: #808080; stroke-width: 2.5"/>
    </g>
    <g id="text_9">
     <text style="font: 15px 'Times New Roman'; text-anchor: start" x="232.994144" y="19.502381" transform="rotate(-0 232.994144 19.502381)">Theoretical solution</text>
    </g>
   </g>
  </g>
 </g>
 <defs>
  <clipPath id="pa80ce4a390">
   <rect x="36.787462" y="54.424835" width="460.841018" height="150.175539"/>
  </clipPath>
 </defs>
</svg>
